{
.appVersion = "1179";
DisplayStrings = (
"ff fb bf fh hf fi if fj jf fk kf fl lf ft tb hi ij jk kl lt\012\012fffbbffhhffiiffjjffkkffllffttbhiijjkkllt\012\012nnftnnooftoo\012\012lofty goalsftnn\012\012kakbkckdkekfkgkhkikjkkklkmknkokpkqkrksktkukvkwkxkykz\012nnknnookoo\012\012\012nnkannkbnnkcnnkdnnkennkfnnkgnnkhnnkinnkjnnkknnklnnkmnnknnnkonnkpnnkqnnkrnnksnnktnnkunnkvnnkwnnkxnnkynnkz\012\012nnffnnfbnnbfnnfhnnhfnnfinnifnnfjnnjfnnfknnkfnnflnnlfnnftnntbnnhinnijnnjknnklnnlt\012\012ooffoofboobfoofhoohfoofiooifoofjoojfoofkookfoktofloolfooftootboohiooijoojkooklooltf'f*\012\012|ff|fb|bf|fh|hf|fi|if|fj|jf|fk|kf|fl|lf|ft|tb|hi|ij|jk|kl|lt\012techy nology\012aynnynnooyooybynnynnooyooycynnynnooyooydynnynnooyooyeynnynnooyooyfynnynnooyooygynnynnooyooyhynnynnooyooyiynnynnooyooyjynnynnooyooykynnynnooyooylynnynnooyooymynnynnooyooynynnynnooyooyoynnynnooyooypynnynnooyooyqynnynnooyooyrynnynnooyooysynnynnooyooytynnynnooyooyuynnynnooyooyvynnynnooyooywynnynnooyooyxynnynnooyooyyynnynnooyooyz\012\012nnynnooyoo\012nnvnnoovoo\012avnnvnnoovoovbvnnvnnoovoovcvnnvnnoovoovdvnnvnnoovoovevnnvnnoovoovfvnnvnnoovoovgvnnvnnoovoovhvnnvnnoovoovivnnvnnoovoovjvnnvnnoovoovkvnnvnnoovoovlvnnvnnoovoovmvnnvnnoovoovnvnnvnnoovoovovnnvnnoovoovpvnnvnnoovoovqvnnvnnoovoovrvnnvnnoovoovsvnnvnnoovoovtvnnvnnoovoovuvnnvnnoovoovvvnnvnnoovoovwvnnvnnoovoovxvnnvnnoovoovyvnnvnnoovoovz\012\012nnynnooyoo\012nnvnnoovoo\012nnwnnoowoo\012awnnwnnoowoowbwnnwnnoowoowcwnnwnnoowoowdwnnwnnoowoowewnnwnnoowoowfwnnwnnoowoowgwnnwnnoowoowhwnnwnnoowoowiwnnwnnoowoowjwnnwnnoowoowkwnnwnnoowoowlwnnwnnoowoowmwnnwnnoowoownwnnwnnoowoowownnwnnoowoowpwnnwnnoowoowqwnnwnnoowoowrwnnwnnoowoowswnnwnnoowoowtwnnwnnoowoowuwnnwnnoowoowvwnnwnnoowoowwwnnwnnoowoowxwnnwnnoowoowywnnwnnoowoowz",

glyphs = (
{
glyphname = A;
layers = (
{
anchors = (
{
name = bottom;
position = "{1078, 0}";
},
{
name = topcap;
position = "{642, 1461}";
}
);
layerId = "FA6D65B5-4623-4FAC-A199-3F662257AC29";
paths = (
{
closed = 1;
nodes = (
"510 0 LINE",
"510 65 LINE",
"364 86 OFFCURVE",
"312 114 OFFCURVE",
"312 174 CURVE SMOOTH",
"312 197 OFFCURVE",
"319 224 OFFCURVE",
"331 257 CURVE SMOOTH",
"581 908 LINE",
"588 908 LINE",
"848 201 LINE SMOOTH",
"859 172 OFFCURVE",
"864 148 OFFCURVE",
"864 130 CURVE SMOOTH",
"864 83 OFFCURVE",
"820 69 OFFCURVE",
"692 65 CURVE",
"692 0 LINE",
"1417 0 LINE",
"1417 65 LINE",
"1288 74 OFFCURVE",
"1260 92 OFFCURVE",
"1227 172 CURVE SMOOTH",
"723 1390 LINE",
"461 1290 LINE",
"542 1109 LINE",
"209 260 LINE SMOOTH",
"153 118 OFFCURVE",
"130 93 OFFCURVE",
"-35 65 CURVE",
"-35 0 LINE"
);
},
{
closed = 1;
nodes = (
"891 391 LINE",
"891 491 LINE",
"324 491 LINE",
"324 391 LINE"
);
}
);
width = 1375;
},
{
anchors = (
{
name = bottom;
position = "{1052, 0}";
},
{
name = topcap;
position = "{642, 1461}";
}
);
associatedMasterId = "FA6D65B5-4623-4FAC-A199-3F662257AC29";
layerId = "CBD44848-52BD-4DC5-BFA6-577546B7224D";
paths = (
{
closed = 1;
nodes = (
"452 0 LINE",
"452 40 LINE",
"334 58 OFFCURVE",
"271 86 OFFCURVE",
"271 150 CURVE SMOOTH",
"271 171 OFFCURVE",
"278 197 OFFCURVE",
"290 232 CURVE SMOOTH",
"593 1081 LINE",
"600 1081 LINE",
"928 176 LINE SMOOTH",
"943 134 OFFCURVE",
"947 114 OFFCURVE",
"947 99 CURVE SMOOTH",
"947 62 OFFCURVE",
"928 48 OFFCURVE",
"766 40 CURVE",
"766 0 LINE",
"1325 0 LINE",
"1325 40 LINE",
"1202 49 OFFCURVE",
"1176 67 OFFCURVE",
"1146 148 CURVE SMOOTH",
"681 1390 LINE",
"509 1295 LINE",
"554 1192 LINE",
"213 236 LINE SMOOTH",
"169 113 OFFCURVE",
"144 69 OFFCURVE",
"-42 40 CURVE",
"-42 0 LINE"
);
},
{
closed = 1;
nodes = (
"838 498 LINE",
"838 568 LINE",
"363 568 LINE",
"363 498 LINE"
);
}
);
width = 1309;
},
{
anchors = (
{
name = bottom;
position = "{1055.467, 0}";
},
{
name = topcap;
position = "{642, 1461}";
}
);
layerId = "7C8D72FA-6E62-4564-8BB2-D9F9BC4EB15A";
paths = (
{
closed = 1;
nodes = (
"459.733 0 LINE",
"459.733 43.333 LINE",
"338 61.733 OFFCURVE",
"276.467 89.733 OFFCURVE",
"276.467 153.2 CURVE SMOOTH",
"276.467 174.467 OFFCURVE",
"283.467 200.6 OFFCURVE",
"295.467 235.333 CURVE SMOOTH",
"591.4 1057.933 LINE",
"598.4 1057.933 LINE",
"917.333 179.333 LINE SMOOTH",
"931.8 139.067 OFFCURVE",
"935.933 118.533 OFFCURVE",
"935.933 103.133 CURVE SMOOTH",
"935.933 64.8 OFFCURVE",
"913.6 50.8 OFFCURVE",
"756.133 43.333 CURVE",
"756.133 0 LINE",
"1337.267 0 LINE",
"1337.267 43.333 LINE",
"1213.467 52.333 OFFCURVE",
"1187.2 70.333 OFFCURVE",
"1156.8 151.2 CURVE SMOOTH",
"686.6 1390 LINE",
"502.6 1294.333 LINE",
"552.4 1180.933 LINE",
"212.467 239.2 LINE SMOOTH",
"166.867 113.667 OFFCURVE",
"142.133 72.2 OFFCURVE",
"-41.067 43.333 CURVE",
"-41.067 0 LINE"
);
},
{
closed = 1;
nodes = (
"845.067 483.733 LINE",
"845.067 557.733 LINE",
"357.8 557.733 LINE",
"357.8 483.733 LINE"
);
}
);
width = 1317.8;
}
);
leftKerningGroup = A;
rightKerningGroup = A;
unicode = 0041;
},
{
glyphname = Aringacute;
layers = (
{
components = (
{
name = A;
}
);
layerId = "FA6D65B5-4623-4FAC-A199-3F662257AC29";
paths = (
{
closed = 1;
nodes = (
"521 1482 LINE",
"540 1468 OFFCURVE",
"567 1461 OFFCURVE",
"595 1461 CURVE SMOOTH",
"655 1461 OFFCURVE",
"700 1498 OFFCURVE",
"715 1552 CURVE",
"794 1575 OFFCURVE",
"810 1609 OFFCURVE",
"810 1644 CURVE SMOOTH",
"810 1686 OFFCURVE",
"767 1705 OFFCURVE",
"732 1705 CURVE SMOOTH",
"708 1705 OFFCURVE",
"688 1698 OFFCURVE",
"667 1686 CURVE",
"646 1700 OFFCURVE",
"621 1707 OFFCURVE",
"595 1707 CURVE SMOOTH",
"524 1707 OFFCURVE",
"472 1654 OFFCURVE",
"472 1584 CURVE SMOOTH",
"472 1570 OFFCURVE",
"473 1558 OFFCURVE",
"477 1545 CURVE",
"401 1489 LINE",
"421 1452 LINE"
);
},
{
closed = 1;
nodes = (
"574 1549 OFFCURVE",
"560 1563 OFFCURVE",
"560 1584 CURVE SMOOTH",
"560 1605 OFFCURVE",
"574 1619 OFFCURVE",
"595 1619 CURVE SMOOTH",
"616 1619 OFFCURVE",
"630 1605 OFFCURVE",
"630 1584 CURVE SMOOTH",
"630 1563 OFFCURVE",
"616 1549 OFFCURVE",
"595 1549 CURVE SMOOTH"
);
}
);
width = 1375;
},
{
associatedMasterId = "FA6D65B5-4623-4FAC-A199-3F662257AC29";
components = (
{
name = A;
}
);
layerId = "CBD44848-52BD-4DC5-BFA6-577546B7224D";
paths = (
{
closed = 1;
nodes = (
"532 1482 LINE",
"551 1468 OFFCURVE",
"577 1461 OFFCURVE",
"605 1461 CURVE SMOOTH",
"665 1461 OFFCURVE",
"711 1498 OFFCURVE",
"725 1552 CURVE",
"804 1575 OFFCURVE",
"820 1609 OFFCURVE",
"820 1644 CURVE SMOOTH",
"820 1686 OFFCURVE",
"778 1705 OFFCURVE",
"743 1705 CURVE SMOOTH",
"718 1705 OFFCURVE",
"699 1698 OFFCURVE",
"678 1686 CURVE",
"656 1700 OFFCURVE",
"632 1707 OFFCURVE",
"605 1707 CURVE SMOOTH",
"535 1707 OFFCURVE",
"482 1654 OFFCURVE",
"482 1584 CURVE SMOOTH",
"482 1570 OFFCURVE",
"484 1558 OFFCURVE",
"488 1545 CURVE",
"412 1489 LINE",
"431 1452 LINE"
);
},
{
closed = 1;
nodes = (
"568 1522 OFFCURVE",
"544 1547 OFFCURVE",
"544 1584 CURVE SMOOTH",
"544 1621 OFFCURVE",
"568 1646 OFFCURVE",
"605 1646 CURVE SMOOTH",
"642 1646 OFFCURVE",
"667 1621 OFFCURVE",
"667 1584 CURVE SMOOTH",
"667 1547 OFFCURVE",
"642 1522 OFFCURVE",
"605 1522 CURVE SMOOTH"
);
}
);
width = 1309;
},
{
components = (
{
alignment = -1;
name = A;
}
);
layerId = "7C8D72FA-6E62-4564-8BB2-D9F9BC4EB15A";
paths = (
{
closed = 1;
nodes = (
"530.533 1482 LINE",
"549.533 1468 OFFCURVE",
"575.667 1461 OFFCURVE",
"603.667 1461 CURVE SMOOTH",
"663.667 1461 OFFCURVE",
"709.533 1498 OFFCURVE",
"723.667 1552 CURVE",
"802.667 1575 OFFCURVE",
"818.667 1609 OFFCURVE",
"818.667 1644 CURVE SMOOTH",
"818.667 1686 OFFCURVE",
"776.533 1705 OFFCURVE",
"741.533 1705 CURVE SMOOTH",
"716.667 1705 OFFCURVE",
"697.533 1698 OFFCURVE",
"676.533 1686 CURVE",
"654.667 1700 OFFCURVE",
"630.533 1707 OFFCURVE",
"603.667 1707 CURVE SMOOTH",
"533.533 1707 OFFCURVE",
"480.667 1654 OFFCURVE",
"480.667 1584 CURVE SMOOTH",
"480.667 1570 OFFCURVE",
"482.533 1558 OFFCURVE",
"486.533 1545 CURVE",
"410.533 1489 LINE",
"429.667 1452 LINE"
);
},
{
closed = 1;
nodes = (
"568.8 1525.6 OFFCURVE",
"546.133 1549.133 OFFCURVE",
"546.133 1584 CURVE SMOOTH",
"546.133 1618.867 OFFCURVE",
"568.8 1642.4 OFFCURVE",
"603.667 1642.4 CURVE SMOOTH",
"638.533 1642.4 OFFCURVE",
"662.067 1618.867 OFFCURVE",
"662.067 1584 CURVE SMOOTH",
"662.067 1549.133 OFFCURVE",
"638.533 1525.6 OFFCURVE",
"603.667 1525.6 CURVE SMOOTH"
);
}
);
width = 1317.8;
}
);
leftKerningGroup = A;
rightKerningGroup = A;
unicode = 01FA;
},
{
glyphname = AE;
layers = (
{
layerId = "FA6D65B5-4623-4FAC-A199-3F662257AC29";
paths = (
{
closed = 1;
nodes = (
"479 0 LINE",
"479 65 LINE",
"384 79 OFFCURVE",
"343 106 OFFCURVE",
"343 155 CURVE SMOOTH",
"343 181 OFFCURVE",
"357 215 OFFCURVE",
"378 257 CURVE SMOOTH",
"507 507 LINE",
"861 507 LINE",
"861 99 LINE",
"711 65 LINE",
"711 0 LINE",
"1779 0 LINE",
"1853 412 LINE",
"1762 412 LINE",
"1721 297 OFFCURVE",
"1677 204 OFFCURVE",
"1602 100 CURVE",
"1163 100 LINE",
"1163 669 LINE",
"1385 669 LINE",
"1424 604 OFFCURVE",
"1448 540 OFFCURVE",
"1461 470 CURVE",
"1535 470 LINE",
"1535 963 LINE",
"1461 963 LINE",
"1448 892 OFFCURVE",
"1424 829 OFFCURVE",
"1385 764 CURVE",
"1163 764 LINE",
"1163 1255 LINE",
"1612 1255 LINE",
"1672 1163 OFFCURVE",
"1720 1061 OFFCURVE",
"1748 968 CURVE",
"1822 968 LINE",
"1788 1355 LINE",
"676 1355 LINE",
"676 1308 LINE",
"785 1276 LINE",
"250 260 LINE SMOOTH",
"180 127 OFFCURVE",
"132 92 OFFCURVE",
"-48 65 CURVE",
"-48 0 LINE"
);
},
{
closed = 1;
nodes = (
"854 1174 LINE",
"861 1174 LINE",
"861 602 LINE",
"556 602 LINE"
);
}
);
width = 1924;
},
{
associatedMasterId = "FA6D65B5-4623-4FAC-A199-3F662257AC29";
layerId = "CBD44848-52BD-4DC5-BFA6-577546B7224D";
paths = (
{
closed = 1;
nodes = (
"454 0 LINE",
"454 40 LINE",
"345 58 OFFCURVE",
"297 77 OFFCURVE",
"297 127 CURVE SMOOTH",
"297 153 OFFCURVE",
"310 187 OFFCURVE",
"334 232 CURVE SMOOTH",
"480 514 LINE",
"829 514 LINE",
"829 74 LINE",
"679 40 LINE",
"679 0 LINE",
"1651 0 LINE",
"1716 412 LINE",
"1658 412 LINE",
"1619 297 OFFCURVE",
"1580 185 OFFCURVE",
"1510 70 CURVE",
"1014 70 LINE",
"1014 646 LINE",
"1329 646 LINE",
"1362 576 OFFCURVE",
"1383 505 OFFCURVE",
"1394 435 CURVE",
"1436 435 LINE",
"1436 928 LINE",
"1394 928 LINE",
"1382 857 OFFCURVE",
"1362 787 OFFCURVE",
"1329 716 CURVE",
"1014 716 LINE",
"1014 1285 LINE",
"1519 1285 LINE",
"1577 1184 OFFCURVE",
"1617 1068 OFFCURVE",
"1646 968 CURVE",
"1688 968 LINE",
"1658 1355 LINE",
"662 1355 LINE",
"662 1315 LINE",
"811 1285 LINE",
"259 236 LINE SMOOTH",
"192 109 OFFCURVE",
"151 69 OFFCURVE",
"-39 40 CURVE",
"-39 0 LINE"
);
},
{
closed = 1;
nodes = (
"820 1174 LINE",
"827 1174 LINE",
"827 584 LINE",
"517 584 LINE"
);
}
);
width = 1811;
},
{
layerId = "7C8D72FA-6E62-4564-8BB2-D9F9BC4EB15A";
paths = (
{
closed = 1;
nodes = (
"457.333 0 LINE",
"457.333 43.333 LINE",
"350.2 60.8 OFFCURVE",
"303.133 80.867 OFFCURVE",
"303.133 130.733 CURVE SMOOTH",
"303.133 156.733 OFFCURVE",
"316.267 190.733 OFFCURVE",
"339.867 235.333 CURVE SMOOTH",
"483.6 513.067 LINE",
"833.267 513.067 LINE",
"833.267 77.333 LINE",
"683.267 43.333 LINE",
"683.267 0 LINE",
"1668.067 0 LINE",
"1734.267 412 LINE",
"1671.867 412 LINE",
"1632.6 297 OFFCURVE",
"1592.933 187.533 OFFCURVE",
"1522.267 74 CURVE",
"1033.867 74 LINE",
"1033.867 649.067 LINE",
"1336.467 649.067 LINE",
"1370.267 579.733 OFFCURVE",
"1391.667 509.667 OFFCURVE",
"1402.933 439.667 CURVE",
"1449.2 439.667 LINE",
"1449.2 932.667 LINE",
"1402.933 932.667 LINE",
"1390.8 861.667 OFFCURVE",
"1370.267 792.6 OFFCURVE",
"1336.467 722.4 CURVE",
"1033.867 722.4 LINE",
"1033.867 1281 LINE",
"1531.4 1281 LINE",
"1589.667 1181.2 OFFCURVE",
"1630.733 1067.067 OFFCURVE",
"1659.6 968 CURVE",
"1705.867 968 LINE",
"1675.333 1355 LINE",
"663.867 1355 LINE",
"663.867 1314.067 LINE",
"807.533 1283.8 LINE",
"257.8 239.2 LINE SMOOTH",
"190.4 111.4 OFFCURVE",
"148.467 72.067 OFFCURVE",
"-40.2 43.333 CURVE",
"-40.2 0 LINE"
);
},
{
closed = 1;
nodes = (
"824.533 1174 LINE",
"831.533 1174 LINE",
"831.533 586.4 LINE",
"522.2 586.4 LINE"
);
}
);
width = 1826.06667;
}
);
leftKerningGroup = AE;
rightKerningGroup = E;
unicode = 00C6;
},
{
glyphname = B;
layers = (
{
layerId = "FA6D65B5-4623-4FAC-A199-3F662257AC29";
paths = (
{
closed = 1;
nodes = (
"699 0 LINE SMOOTH",
"910 0 OFFCURVE",
"1028 26 OFFCURVE",
"1118 92 CURVE SMOOTH",
"1199 153 OFFCURVE",
"1248 252 OFFCURVE",
"1248 359 CURVE SMOOTH",
"1248 565 OFFCURVE",
"1091 713 OFFCURVE",
"854 736 CURVE",
"854 743 LINE",
"1063 780 OFFCURVE",
"1181 884 OFFCURVE",
"1181 1026 CURVE SMOOTH",
"1181 1130 OFFCURVE",
"1128 1225 OFFCURVE",
"1037 1283 CURVE SMOOTH",
"957 1332 OFFCURVE",
"845 1355 OFFCURVE",
"667 1355 CURVE SMOOTH",
"74 1355 LINE",
"74 1290 LINE",
"224 1253 LINE",
"224 104 LINE",
"74 65 LINE",
"74 0 LINE"
);
},
{
closed = 1;
nodes = (
"558 93 OFFCURVE",
"526 116 OFFCURVE",
"526 199 CURVE SMOOTH",
"526 674 LINE",
"591 674 LINE",
"813 674 OFFCURVE",
"917 581 OFFCURVE",
"917 375 CURVE SMOOTH",
"917 181 OFFCURVE",
"836 93 OFFCURVE",
"662 93 CURVE SMOOTH"
);
},
{
closed = 1;
nodes = (
"526 1260 LINE",
"558 1260 LINE SMOOTH",
"658 1260 OFFCURVE",
"734 1241 OFFCURVE",
"785 1200 CURVE SMOOTH",
"832 1162 OFFCURVE",
"859 1102 OFFCURVE",
"859 1019 CURVE SMOOTH",
"859 875 OFFCURVE",
"780 788 OFFCURVE",
"639 774 CURVE SMOOTH",
"616 771 OFFCURVE",
"588 769 OFFCURVE",
"546 769 CURVE SMOOTH",
"526 769 LINE"
);
}
);
width = 1322;
},
{
associatedMasterId = "FA6D65B5-4623-4FAC-A199-3F662257AC29";
layerId = "CBD44848-52BD-4DC5-BFA6-577546B7224D";
paths = (
{
closed = 1;
nodes = (
"637 0 LINE SMOOTH",
"829 0 OFFCURVE",
"936 26 OFFCURVE",
"1017 92 CURVE SMOOTH",
"1091 153 OFFCURVE",
"1135 252 OFFCURVE",
"1135 359 CURVE SMOOTH",
"1135 551 OFFCURVE",
"996 695 OFFCURVE",
"785 718 CURVE",
"785 725 LINE",
"972 764 OFFCURVE",
"1075 873 OFFCURVE",
"1075 1026 CURVE SMOOTH",
"1075 1130 OFFCURVE",
"1026 1225 OFFCURVE",
"943 1283 CURVE SMOOTH",
"871 1332 OFFCURVE",
"769 1355 OFFCURVE",
"607 1355 CURVE SMOOTH",
"86 1355 LINE",
"86 1315 LINE",
"236 1281 LINE",
"236 74 LINE",
"86 40 LINE",
"86 0 LINE"
);
},
{
closed = 1;
nodes = (
"456 67 OFFCURVE",
"421 90 OFFCURVE",
"421 172 CURVE SMOOTH",
"421 685 LINE",
"570 685 LINE",
"817 685 OFFCURVE",
"931 586 OFFCURVE",
"931 375 CURVE SMOOTH",
"931 164 OFFCURVE",
"818 67 OFFCURVE",
"576 67 CURVE SMOOTH"
);
},
{
closed = 1;
nodes = (
"421 1285 LINE",
"572 1285 LINE SMOOTH",
"700 1285 OFFCURVE",
"762 1267 OFFCURVE",
"813 1214 CURVE SMOOTH",
"859 1167 OFFCURVE",
"878 1114 OFFCURVE",
"878 1031 CURVE SMOOTH",
"878 871 OFFCURVE",
"806 774 OFFCURVE",
"678 760 CURVE SMOOTH",
"639 757 OFFCURVE",
"598 755 OFFCURVE",
"530 755 CURVE SMOOTH",
"421 755 LINE"
);
}
);
width = 1230;
},
{
layerId = "7C8D72FA-6E62-4564-8BB2-D9F9BC4EB15A";
paths = (
{
closed = 1;
nodes = (
"645.267 0 LINE SMOOTH",
"839.8 0 OFFCURVE",
"948.267 26 OFFCURVE",
"1030.467 92 CURVE SMOOTH",
"1105.4 153 OFFCURVE",
"1150.067 252 OFFCURVE",
"1150.067 359 CURVE SMOOTH",
"1150.067 552.867 OFFCURVE",
"1008.667 697.4 OFFCURVE",
"794.2 720.4 CURVE",
"794.2 727.4 LINE",
"984.133 766.133 OFFCURVE",
"1089.133 874.467 OFFCURVE",
"1089.133 1026 CURVE SMOOTH",
"1089.133 1130 OFFCURVE",
"1039.6 1225 OFFCURVE",
"955.533 1283 CURVE SMOOTH",
"882.467 1332 OFFCURVE",
"779.133 1355 OFFCURVE",
"615 1355 CURVE SMOOTH",
"84.4 1355 LINE",
"84.4 1311.667 LINE",
"234.4 1277.267 LINE",
"234.4 78 LINE",
"84.4 43.333 LINE",
"84.4 0 LINE"
);
},
{
closed = 1;
nodes = (
"469.6 70.467 OFFCURVE",
"435 93.467 OFFCURVE",
"435 175.6 CURVE SMOOTH",
"435 683.533 LINE",
"572.8 683.533 LINE",
"816.467 683.533 OFFCURVE",
"929.133 585.333 OFFCURVE",
"929.133 375 CURVE SMOOTH",
"929.133 166.267 OFFCURVE",
"820.4 70.467 OFFCURVE",
"587.467 70.467 CURVE SMOOTH"
);
},
{
closed = 1;
nodes = (
"435 1281.667 LINE",
"570.133 1281.667 LINE SMOOTH",
"694.4 1281.667 OFFCURVE",
"758.267 1263.533 OFFCURVE",
"809.267 1212.133 CURVE SMOOTH",
"855.4 1166.333 OFFCURVE",
"875.467 1112.4 OFFCURVE",
"875.467 1029.4 CURVE SMOOTH",
"875.467 871.533 OFFCURVE",
"802.533 775.867 OFFCURVE",
"672.8 761.867 CURVE SMOOTH",
"635.933 758.867 OFFCURVE",
"596.667 756.867 OFFCURVE",
"532.133 756.867 CURVE SMOOTH",
"435 756.867 LINE"
);
}
);
width = 1242.26667;
}
);
leftKerningGroup = I;
unicode = 0042;
},
{
glyphname = C;
layers = (
{
anchors = (
{
name = bottom;
position = "{777, 0}";
},
{
name = topcap;
position = "{775, 1461}";
}
);
layerId = "FA6D65B5-4623-4FAC-A199-3F662257AC29";
paths = (
{
closed = 1;
nodes = (
"922 -18 OFFCURVE",
"1051 23 OFFCURVE",
"1188 116 CURVE",
"1260 0 LINE",
"1325 0 LINE",
"1325 488 LINE",
"1246 488 LINE",
"1230 401 OFFCURVE",
"1199 327 OFFCURVE",
"1158 268 CURVE SMOOTH",
"1079 153 OFFCURVE",
"959 88 OFFCURVE",
"815 88 CURVE SMOOTH",
"553 88 OFFCURVE",
"412 297 OFFCURVE",
"412 686 CURVE SMOOTH",
"412 1072 OFFCURVE",
"551 1269 OFFCURVE",
"822 1269 CURVE SMOOTH",
"970 1269 OFFCURVE",
"1081 1211 OFFCURVE",
"1163 1084 CURVE SMOOTH",
"1193 1040 OFFCURVE",
"1218 986 OFFCURVE",
"1241 924 CURVE",
"1325 924 LINE",
"1325 1355 LINE",
"1272 1355 LINE",
"1195 1265 LINE",
"1188 1265 LINE",
"1072 1334 OFFCURVE",
"920 1373 OFFCURVE",
"773 1373 CURVE SMOOTH",
"366 1373 OFFCURVE",
"79 1081 OFFCURVE",
"79 669 CURVE SMOOTH",
"79 260 OFFCURVE",
"359 -18 OFFCURVE",
"767 -18 CURVE SMOOTH"
);
}
);
width = 1431;
},
{
anchors = (
{
name = bottom;
position = "{762, 0}";
},
{
name = topcap;
position = "{762, 1461}";
}
);
associatedMasterId = "FA6D65B5-4623-4FAC-A199-3F662257AC29";
layerId = "CBD44848-52BD-4DC5-BFA6-577546B7224D";
paths = (
{
closed = 1;
nodes = (
"880 -18 OFFCURVE",
"998 23 OFFCURVE",
"1123 116 CURVE",
"1204 0 LINE",
"1246 0 LINE",
"1246 461 LINE",
"1199 461 LINE",
"1181 368 OFFCURVE",
"1149 289 OFFCURVE",
"1105 227 CURVE SMOOTH",
"1030 118 OFFCURVE",
"915 62 OFFCURVE",
"774 62 CURVE SMOOTH",
"486 62 OFFCURVE",
"320 289 OFFCURVE",
"320 681 CURVE SMOOTH",
"320 1074 OFFCURVE",
"482 1295 OFFCURVE",
"773 1295 CURVE SMOOTH",
"929 1295 OFFCURVE",
"1038 1243 OFFCURVE",
"1121 1109 CURVE SMOOTH",
"1148 1065 OFFCURVE",
"1172 1014 OFFCURVE",
"1193 950 CURVE",
"1246 950 LINE",
"1246 1355 LINE",
"1214 1355 LINE",
"1128 1265 LINE",
"1121 1265 LINE",
"1016 1334 OFFCURVE",
"880 1373 OFFCURVE",
"743 1373 CURVE SMOOTH",
"366 1373 OFFCURVE",
"99 1081 OFFCURVE",
"99 669 CURVE SMOOTH",
"99 262 OFFCURVE",
"357 -18 OFFCURVE",
"736 -18 CURVE SMOOTH"
);
}
);
width = 1362;
},
{
anchors = (
{
name = bottom;
position = "{764, 0}";
},
{
name = topcap;
position = "{763.733, 1461}";
}
);
layerId = "7C8D72FA-6E62-4564-8BB2-D9F9BC4EB15A";
paths = (
{
closed = 1;
nodes = (
"885.6 -18 OFFCURVE",
"1005.067 23 OFFCURVE",
"1131.667 116 CURVE",
"1211.467 0 LINE",
"1256.533 0 LINE",
"1256.533 464.6 LINE",
"1205.267 464.6 LINE",
"1187.533 372.4 OFFCURVE",
"1155.667 294.067 OFFCURVE",
"1112.067 232.467 CURVE SMOOTH",
"1036.533 122.667 OFFCURVE",
"920.867 65.467 OFFCURVE",
"779.467 65.467 CURVE SMOOTH",
"494.933 65.467 OFFCURVE",
"332.267 290.067 OFFCURVE",
"332.267 681.667 CURVE SMOOTH",
"332.267 1073.733 OFFCURVE",
"491.2 1291.533 OFFCURVE",
"779.533 1291.533 CURVE SMOOTH",
"934.467 1291.533 OFFCURVE",
"1043.733 1238.733 OFFCURVE",
"1126.6 1105.667 CURVE SMOOTH",
"1154 1061.667 OFFCURVE",
"1178.133 1010.267 OFFCURVE",
"1199.4 946.533 CURVE",
"1256.533 946.533 LINE",
"1256.533 1355 LINE",
"1221.733 1355 LINE",
"1136.933 1265 LINE",
"1129.933 1265 LINE",
"1023.467 1334 OFFCURVE",
"885.333 1373 OFFCURVE",
"747 1373 CURVE SMOOTH",
"366 1373 OFFCURVE",
"96.333 1081 OFFCURVE",
"96.333 669 CURVE SMOOTH",
"96.333 261.733 OFFCURVE",
"357.267 -18 OFFCURVE",
"740.133 -18 CURVE SMOOTH"
);
}
);
width = 1371.2;
}
);
leftKerningGroup = C;
rightKerningGroup = C;
unicode = 0043;
},
{
glyphname = D;
layers = (
{
anchors = (
{
name = bottom;
position = "{725, 0}";
},
{
name = topcap;
position = "{722, 1461}";
}
);
layerId = "FA6D65B5-4623-4FAC-A199-3F662257AC29";
paths = (
{
closed = 1;
nodes = (
"725 0 LINE",
"924 0 OFFCURVE",
"1052 30 OFFCURVE",
"1169 104 CURVE SMOOTH",
"1348 217 OFFCURVE",
"1464 433 OFFCURVE",
"1464 679 CURVE SMOOTH",
"1464 919 OFFCURVE",
"1355 1113 OFFCURVE",
"1183 1227 CURVE SMOOTH",
"1040 1322 OFFCURVE",
"859 1355 OFFCURVE",
"553 1355 CURVE SMOOTH",
"72 1355 LINE",
"72 1290 LINE",
"224 1257 LINE",
"224 100 LINE",
"72 67 LINE",
"72 0 LINE"
);
},
{
closed = 1;
nodes = (
"577 95 OFFCURVE",
"526 127 OFFCURVE",
"526 201 CURVE SMOOTH",
"526 1257 LINE",
"685 1257 LINE SMOOTH",
"834 1257 OFFCURVE",
"942 1216 OFFCURVE",
"1012 1130 CURVE SMOOTH",
"1091 1035 OFFCURVE",
"1126 894 OFFCURVE",
"1126 679 CURVE SMOOTH",
"1126 461 OFFCURVE",
"1091 306 OFFCURVE",
"1012 213 CURVE SMOOTH",
"943 132 OFFCURVE",
"843 95 OFFCURVE",
"706 95 CURVE SMOOTH"
);
}
);
width = 1545;
},
{
anchors = (
{
name = bottom;
position = "{722, 0}";
},
{
name = topcap;
position = "{722, 1461}";
}
);
associatedMasterId = "FA6D65B5-4623-4FAC-A199-3F662257AC29";
layerId = "CBD44848-52BD-4DC5-BFA6-577546B7224D";
paths = (
{
closed = 1;
nodes = (
"676 0 LINE",
"852 0 OFFCURVE",
"963 30 OFFCURVE",
"1065 104 CURVE SMOOTH",
"1228 224 OFFCURVE",
"1325 435 OFFCURVE",
"1325 674 CURVE SMOOTH",
"1325 905 OFFCURVE",
"1236 1105 OFFCURVE",
"1077 1227 CURVE SMOOTH",
"954 1320 OFFCURVE",
"804 1355 OFFCURVE",
"524 1355 CURVE SMOOTH",
"86 1355 LINE",
"86 1315 LINE",
"236 1281 LINE",
"236 74 LINE",
"86 40 LINE",
"86 0 LINE"
);
},
{
closed = 1;
nodes = (
"465 67 OFFCURVE",
"421 92 OFFCURVE",
"421 172 CURVE SMOOTH",
"421 1285 LINE",
"560 1285 LINE SMOOTH",
"757 1285 OFFCURVE",
"866 1250 OFFCURVE",
"956 1156 CURVE SMOOTH",
"1054 1052 OFFCURVE",
"1105 894 OFFCURVE",
"1105 695 CURVE SMOOTH",
"1105 498 OFFCURVE",
"1054 326 OFFCURVE",
"961 209 CURVE SMOOTH",
"876 107 OFFCURVE",
"776 67 OFFCURVE",
"604 67 CURVE SMOOTH"
);
}
);
width = 1426;
},
{
anchors = (
{
name = bottom;
position = "{722.4, 0}";
},
{
name = topcap;
position = "{722, 1461}";
}
);
layerId = "7C8D72FA-6E62-4564-8BB2-D9F9BC4EB15A";
paths = (
{
closed = 1;
nodes = (
"682.533 0 LINE",
"861.6 0 OFFCURVE",
"974.867 30 OFFCURVE",
"1078.867 104 CURVE SMOOTH",
"1244 223.067 OFFCURVE",
"1343.533 434.733 OFFCURVE",
"1343.533 674.667 CURVE SMOOTH",
"1343.533 906.867 OFFCURVE",
"1251.867 1106.067 OFFCURVE",
"1091.133 1227 CURVE SMOOTH",
"965.467 1320.267 OFFCURVE",
"811.333 1355 OFFCURVE",
"527.867 1355 CURVE SMOOTH",
"84.133 1355 LINE",
"84.133 1311.667 LINE",
"234.4 1277.8 LINE",
"234.4 77.467 LINE",
"84.133 43.6 LINE",
"84.133 0 LINE"
);
},
{
closed = 1;
nodes = (
"479.933 70.733 OFFCURVE",
"435 96.667 OFFCURVE",
"435 175.867 CURVE SMOOTH",
"435 1281.267 LINE",
"576.667 1281.267 LINE SMOOTH",
"767.267 1281.267 OFFCURVE",
"876.133 1245.467 OFFCURVE",
"963.467 1152.533 CURVE SMOOTH",
"1058.933 1049.733 OFFCURVE",
"1107.8 894 OFFCURVE",
"1107.8 692.867 CURVE SMOOTH",
"1107.8 493.067 OFFCURVE",
"1058.933 323.333 OFFCURVE",
"967.8 209.533 CURVE SMOOTH",
"884.933 110.333 OFFCURVE",
"784.933 70.733 OFFCURVE",
"617.6 70.733 CURVE SMOOTH"
);
}
);
width = 1441.86667;
}
);
leftKerningGroup = I;
rightKerningGroup = D;
unicode = 0044;
},
{
glyphname = Eth;
layers = (
{
layerId = "FA6D65B5-4623-4FAC-A199-3F662257AC29";
paths = (
{
closed = 1;
nodes = (
"725 0 LINE SMOOTH",
"924 0 OFFCURVE",
"1052 30 OFFCURVE",
"1169 104 CURVE SMOOTH",
"1348 218 OFFCURVE",
"1464 433 OFFCURVE",
"1464 679 CURVE SMOOTH",
"1464 919 OFFCURVE",
"1355 1112 OFFCURVE",
"1183 1227 CURVE SMOOTH",
"1040 1322 OFFCURVE",
"859 1355 OFFCURVE",
"553 1355 CURVE SMOOTH",
"72 1355 LINE",
"72 1290 LINE",
"224 1257 LINE",
"224 773 LINE",
"92 773 LINE",
"92 623 LINE",
"224 623 LINE",
"224 100 LINE",
"72 67 LINE",
"72 0 LINE"
);
},
{
closed = 1;
nodes = (
"577 95 OFFCURVE",
"526 127 OFFCURVE",
"526 201 CURVE SMOOTH",
"526 623 LINE",
"773 623 LINE",
"773 773 LINE",
"526 773 LINE",
"526 1257 LINE",
"685 1257 LINE SMOOTH",
"834 1257 OFFCURVE",
"942 1216 OFFCURVE",
"1012 1130 CURVE SMOOTH",
"1091 1035 OFFCURVE",
"1126 894 OFFCURVE",
"1126 679 CURVE SMOOTH",
"1126 461 OFFCURVE",
"1091 306 OFFCURVE",
"1012 213 CURVE SMOOTH",
"943 132 OFFCURVE",
"843 95 OFFCURVE",
"706 95 CURVE SMOOTH"
);
}
);
width = 1545;
},
{
associatedMasterId = "FA6D65B5-4623-4FAC-A199-3F662257AC29";
layerId = "CBD44848-52BD-4DC5-BFA6-577546B7224D";
paths = (
{
closed = 1;
nodes = (
"678 0 LINE SMOOTH",
"854 0 OFFCURVE",
"964 30 OFFCURVE",
"1067 104 CURVE SMOOTH",
"1230 224 OFFCURVE",
"1327 435 OFFCURVE",
"1327 674 CURVE SMOOTH",
"1327 905 OFFCURVE",
"1237 1105 OFFCURVE",
"1079 1227 CURVE SMOOTH",
"956 1320 OFFCURVE",
"806 1355 OFFCURVE",
"526 1355 CURVE SMOOTH",
"88 1355 LINE",
"88 1315 LINE",
"238 1281 LINE",
"238 755 LINE",
"99 755 LINE",
"99 641 LINE",
"238 641 LINE",
"238 74 LINE",
"88 40 LINE",
"88 0 LINE"
);
},
{
closed = 1;
nodes = (
"466 67 OFFCURVE",
"422 92 OFFCURVE",
"422 172 CURVE SMOOTH",
"422 641 LINE",
"639 641 LINE",
"639 755 LINE",
"422 755 LINE",
"422 1285 LINE",
"561 1285 LINE SMOOTH",
"759 1285 OFFCURVE",
"868 1250 OFFCURVE",
"957 1156 CURVE SMOOTH",
"1056 1052 OFFCURVE",
"1107 894 OFFCURVE",
"1107 695 CURVE SMOOTH",
"1107 498 OFFCURVE",
"1056 326 OFFCURVE",
"963 209 CURVE SMOOTH",
"878 107 OFFCURVE",
"778 67 OFFCURVE",
"605 67 CURVE SMOOTH"
);
}
);
width = 1427;
},
{
layerId = "7C8D72FA-6E62-4564-8BB2-D9F9BC4EB15A";
paths = (
{
closed = 1;
nodes = (
"684.267 0 LINE SMOOTH",
"863.333 0 OFFCURVE",
"975.733 30 OFFCURVE",
"1080.6 104 CURVE SMOOTH",
"1245.733 223.2 OFFCURVE",
"1345.267 434.733 OFFCURVE",
"1345.267 674.667 CURVE SMOOTH",
"1345.267 906.867 OFFCURVE",
"1252.733 1105.933 OFFCURVE",
"1092.867 1227 CURVE SMOOTH",
"967.2 1320.267 OFFCURVE",
"813.067 1355 OFFCURVE",
"529.6 1355 CURVE SMOOTH",
"85.867 1355 LINE",
"85.867 1311.667 LINE",
"236.133 1277.8 LINE",
"236.133 757.4 LINE",
"98.067 757.4 LINE",
"98.067 638.6 LINE",
"236.133 638.6 LINE",
"236.133 77.467 LINE",
"85.867 43.6 LINE",
"85.867 0 LINE"
);
},
{
closed = 1;
nodes = (
"480.8 70.733 OFFCURVE",
"435.867 96.667 OFFCURVE",
"435.867 175.867 CURVE SMOOTH",
"435.867 638.6 LINE",
"656.867 638.6 LINE",
"656.867 757.4 LINE",
"435.867 757.4 LINE",
"435.867 1281.267 LINE",
"577.533 1281.267 LINE SMOOTH",
"769 1281.267 OFFCURVE",
"877.867 1245.467 OFFCURVE",
"964.333 1152.533 CURVE SMOOTH",
"1060.667 1049.733 OFFCURVE",
"1109.533 894 OFFCURVE",
"1109.533 692.867 CURVE SMOOTH",
"1109.533 493.067 OFFCURVE",
"1060.667 323.333 OFFCURVE",
"969.533 209.533 CURVE SMOOTH",
"886.667 110.333 OFFCURVE",
"786.667 70.733 OFFCURVE",
"618.467 70.733 CURVE SMOOTH"
);
}
);
width = 1442.73333;
}
);
leftKerningGroup = I;
rightKerningGroup = D;
unicode = 00D0;
},
{
glyphname = Dcroat;
layers = (
{
layerId = "FA6D65B5-4623-4FAC-A199-3F662257AC29";
paths = (
{
closed = 1;
nodes = (
"725 0 LINE SMOOTH",
"924 0 OFFCURVE",
"1052 30 OFFCURVE",
"1169 104 CURVE SMOOTH",
"1348 218 OFFCURVE",
"1464 433 OFFCURVE",
"1464 679 CURVE SMOOTH",
"1464 919 OFFCURVE",
"1355 1112 OFFCURVE",
"1183 1227 CURVE SMOOTH",
"1040 1322 OFFCURVE",
"859 1355 OFFCURVE",
"553 1355 CURVE SMOOTH",
"72 1355 LINE",
"72 1290 LINE",
"224 1257 LINE",
"224 773 LINE",
"92 773 LINE",
"92 623 LINE",
"224 623 LINE",
"224 100 LINE",
"72 67 LINE",
"72 0 LINE"
);
},
{
closed = 1;
nodes = (
"577 95 OFFCURVE",
"526 127 OFFCURVE",
"526 201 CURVE SMOOTH",
"526 623 LINE",
"773 623 LINE",
"773 773 LINE",
"526 773 LINE",
"526 1257 LINE",
"685 1257 LINE SMOOTH",
"834 1257 OFFCURVE",
"942 1216 OFFCURVE",
"1012 1130 CURVE SMOOTH",
"1091 1035 OFFCURVE",
"1126 894 OFFCURVE",
"1126 679 CURVE SMOOTH",
"1126 461 OFFCURVE",
"1091 306 OFFCURVE",
"1012 213 CURVE SMOOTH",
"943 132 OFFCURVE",
"843 95 OFFCURVE",
"706 95 CURVE SMOOTH"
);
}
);
width = 1545;
},
{
associatedMasterId = "FA6D65B5-4623-4FAC-A199-3F662257AC29";
layerId = "CBD44848-52BD-4DC5-BFA6-577546B7224D";
paths = (
{
closed = 1;
nodes = (
"678 0 LINE SMOOTH",
"854 0 OFFCURVE",
"964 30 OFFCURVE",
"1067 104 CURVE SMOOTH",
"1230 224 OFFCURVE",
"1327 435 OFFCURVE",
"1327 674 CURVE SMOOTH",
"1327 905 OFFCURVE",
"1237 1105 OFFCURVE",
"1079 1227 CURVE SMOOTH",
"956 1320 OFFCURVE",
"806 1355 OFFCURVE",
"526 1355 CURVE SMOOTH",
"88 1355 LINE",
"88 1315 LINE",
"238 1281 LINE",
"238 755 LINE",
"99 755 LINE",
"99 641 LINE",
"238 641 LINE",
"238 74 LINE",
"88 40 LINE",
"88 0 LINE"
);
},
{
closed = 1;
nodes = (
"466 67 OFFCURVE",
"422 92 OFFCURVE",
"422 172 CURVE SMOOTH",
"422 641 LINE",
"639 641 LINE",
"639 755 LINE",
"422 755 LINE",
"422 1285 LINE",
"561 1285 LINE SMOOTH",
"759 1285 OFFCURVE",
"868 1250 OFFCURVE",
"957 1156 CURVE SMOOTH",
"1056 1052 OFFCURVE",
"1107 894 OFFCURVE",
"1107 695 CURVE SMOOTH",
"1107 498 OFFCURVE",
"1056 326 OFFCURVE",
"963 209 CURVE SMOOTH",
"878 107 OFFCURVE",
"778 67 OFFCURVE",
"605 67 CURVE SMOOTH"
);
}
);
width = 1427;
},
{
layerId = "7C8D72FA-6E62-4564-8BB2-D9F9BC4EB15A";
paths = (
{
closed = 1;
nodes = (
"684.267 0 LINE SMOOTH",
"863.333 0 OFFCURVE",
"975.733 30 OFFCURVE",
"1080.6 104 CURVE SMOOTH",
"1245.733 223.2 OFFCURVE",
"1345.267 434.733 OFFCURVE",
"1345.267 674.667 CURVE SMOOTH",
"1345.267 906.867 OFFCURVE",
"1252.733 1105.933 OFFCURVE",
"1092.867 1227 CURVE SMOOTH",
"967.2 1320.267 OFFCURVE",
"813.067 1355 OFFCURVE",
"529.6 1355 CURVE SMOOTH",
"85.867 1355 LINE",
"85.867 1311.667 LINE",
"236.133 1277.8 LINE",
"236.133 757.4 LINE",
"98.067 757.4 LINE",
"98.067 638.6 LINE",
"236.133 638.6 LINE",
"236.133 77.467 LINE",
"85.867 43.6 LINE",
"85.867 0 LINE"
);
},
{
closed = 1;
nodes = (
"480.8 70.733 OFFCURVE",
"435.867 96.667 OFFCURVE",
"435.867 175.867 CURVE SMOOTH",
"435.867 638.6 LINE",
"656.867 638.6 LINE",
"656.867 757.4 LINE",
"435.867 757.4 LINE",
"435.867 1281.267 LINE",
"577.533 1281.267 LINE SMOOTH",
"769 1281.267 OFFCURVE",
"877.867 1245.467 OFFCURVE",
"964.333 1152.533 CURVE SMOOTH",
"1060.667 1049.733 OFFCURVE",
"1109.533 894 OFFCURVE",
"1109.533 692.867 CURVE SMOOTH",
"1109.533 493.067 OFFCURVE",
"1060.667 323.333 OFFCURVE",
"969.533 209.533 CURVE SMOOTH",
"886.667 110.333 OFFCURVE",
"786.667 70.733 OFFCURVE",
"618.467 70.733 CURVE SMOOTH"
);
}
);
width = 1442.73333;
}
);
leftKerningGroup = I;
rightKerningGroup = D;
unicode = 0110;
},
{
glyphname = E;
layers = (
{
anchors = (
{
name = bottom;
position = "{680, 0}";
},
{
name = topcap;
position = "{669, 1461}";
}
);
layerId = "FA6D65B5-4623-4FAC-A199-3F662257AC29";
paths = (
{
closed = 1;
nodes = (
"1142 0 LINE",
"1216 412 LINE",
"1125 412 LINE",
"1082 308 OFFCURVE",
"1040 204 OFFCURVE",
"964 100 CURVE",
"526 100 LINE",
"526 1255 LINE",
"975 1255 LINE",
"1035 1163 OFFCURVE",
"1079 1060 OFFCURVE",
"1111 968 CURVE",
"1184 968 LINE",
"1151 1355 LINE",
"74 1355 LINE",
"74 1290 LINE",
"224 1257 LINE",
"224 99 LINE",
"74 65 LINE",
"74 0 LINE"
);
},
{
closed = 1;
nodes = (
"898 470 LINE",
"898 963 LINE",
"824 963 LINE",
"810 898 OFFCURVE",
"787 829 OFFCURVE",
"748 764 CURVE",
"498 764 LINE",
"498 669 LINE",
"748 669 LINE",
"785 604 OFFCURVE",
"810 535 OFFCURVE",
"824 470 CURVE"
);
}
);
width = 1287;
},
{
anchors = (
{
name = bottom;
position = "{630, 0}";
},
{
name = topcap;
position = "{627, 1461}";
}
);
associatedMasterId = "FA6D65B5-4623-4FAC-A199-3F662257AC29";
layerId = "CBD44848-52BD-4DC5-BFA6-577546B7224D";
paths = (
{
closed = 1;
nodes = (
"1058 0 LINE",
"1123 412 LINE",
"1065 412 LINE",
"1026 297 OFFCURVE",
"987 185 OFFCURVE",
"917 70 CURVE",
"421 70 LINE",
"421 1285 LINE",
"926 1285 LINE",
"984 1184 OFFCURVE",
"1024 1068 OFFCURVE",
"1052 968 CURVE",
"1095 968 LINE",
"1065 1355 LINE",
"86 1355 LINE",
"86 1315 LINE",
"236 1281 LINE",
"236 74 LINE",
"86 40 LINE",
"86 0 LINE"
);
},
{
closed = 1;
nodes = (
"843 468 LINE",
"843 961 LINE",
"801 961 LINE",
"788 891 OFFCURVE",
"769 820 OFFCURVE",
"736 750 CURVE",
"396 750 LINE",
"396 679 LINE",
"736 679 LINE",
"769 609 OFFCURVE",
"790 539 OFFCURVE",
"801 468 CURVE"
);
}
);
width = 1218;
},
{
anchors = (
{
name = bottom;
position = "{636.667, 0}";
},
{
name = topcap;
position = "{632.6, 1461}";
}
);
layerId = "7C8D72FA-6E62-4564-8BB2-D9F9BC4EB15A";
paths = (
{
closed = 1;
nodes = (
"1069.2 0 LINE",
"1135.4 412 LINE",
"1073 412 LINE",
"1033.467 298.467 OFFCURVE",
"994.067 187.533 OFFCURVE",
"923.267 74 CURVE",
"435 74 LINE",
"435 1281 LINE",
"932.533 1281 LINE",
"990.8 1181.2 OFFCURVE",
"1031.333 1066.933 OFFCURVE",
"1059.867 968 CURVE",
"1106.867 968 LINE",
"1076.467 1355 LINE",
"84.4 1355 LINE",
"84.4 1311.667 LINE",
"234.4 1277.8 LINE",
"234.4 77.333 LINE",
"84.4 43.333 LINE",
"84.4 0 LINE"
);
},
{
closed = 1;
nodes = (
"850.333 468.267 LINE",
"850.333 961.267 LINE",
"804.067 961.267 LINE",
"790.933 891.933 OFFCURVE",
"771.4 821.2 OFFCURVE",
"737.6 751.867 CURVE",
"409.6 751.867 LINE",
"409.6 677.667 LINE",
"737.6 677.667 LINE",
"771.133 608.333 OFFCURVE",
"792.667 538.467 OFFCURVE",
"804.067 468.267 CURVE"
);
}
);
width = 1227.2;
}
);
leftKerningGroup = I;
rightKerningGroup = E;
unicode = 0045;
},
{
glyphname = F;
layers = (
{
layerId = "FA6D65B5-4623-4FAC-A199-3F662257AC29";
paths = (
{
closed = 1;
nodes = (
"725 0 LINE",
"725 65 LINE",
"524 99 LINE",
"524 1255 LINE",
"986 1255 LINE",
"1044 1163 OFFCURVE",
"1084 1060 OFFCURVE",
"1112 968 CURVE",
"1181 968 LINE",
"1151 1355 LINE",
"74 1355 LINE",
"74 1290 LINE",
"224 1257 LINE",
"224 99 LINE",
"74 65 LINE",
"74 0 LINE"
);
},
{
closed = 1;
nodes = (
"896 470 LINE",
"896 963 LINE",
"827 963 LINE",
"815 896 OFFCURVE",
"796 831 OFFCURVE",
"762 764 CURVE",
"502 764 LINE",
"502 671 LINE",
"762 671 LINE",
"794 604 OFFCURVE",
"815 537 OFFCURVE",
"827 470 CURVE"
);
}
);
width = 1204;
},
{
associatedMasterId = "FA6D65B5-4623-4FAC-A199-3F662257AC29";
layerId = "CBD44848-52BD-4DC5-BFA6-577546B7224D";
paths = (
{
closed = 1;
nodes = (
"621 0 LINE",
"621 40 LINE",
"421 74 LINE",
"421 1285 LINE",
"926 1285 LINE",
"984 1184 OFFCURVE",
"1024 1068 OFFCURVE",
"1052 968 CURVE",
"1095 968 LINE",
"1065 1355 LINE",
"86 1355 LINE",
"86 1315 LINE",
"236 1281 LINE",
"236 74 LINE",
"86 40 LINE",
"86 0 LINE"
);
},
{
closed = 1;
nodes = (
"843 468 LINE",
"843 961 LINE",
"801 961 LINE",
"788 891 OFFCURVE",
"769 820 OFFCURVE",
"736 750 CURVE",
"396 750 LINE",
"396 679 LINE",
"736 679 LINE",
"769 609 OFFCURVE",
"790 539 OFFCURVE",
"801 468 CURVE"
);
}
);
width = 1144;
},
{
layerId = "7C8D72FA-6E62-4564-8BB2-D9F9BC4EB15A";
paths = (
{
closed = 1;
nodes = (
"634.867 0 LINE",
"634.867 43.333 LINE",
"434.733 77.333 LINE",
"434.733 1281 LINE",
"934 1281 LINE",
"992 1181.2 OFFCURVE",
"1032 1066.933 OFFCURVE",
"1060 968 CURVE",
"1106.467 968 LINE",
"1076.467 1355 LINE",
"84.4 1355 LINE",
"84.4 1311.667 LINE",
"234.4 1277.8 LINE",
"234.4 77.333 LINE",
"84.4 43.333 LINE",
"84.4 0 LINE"
);
},
{
closed = 1;
nodes = (
"850.067 468.267 LINE",
"850.067 961.267 LINE",
"804.467 961.267 LINE",
"791.6 891.667 OFFCURVE",
"772.6 821.467 OFFCURVE",
"739.467 751.867 CURVE",
"410.133 751.867 LINE",
"410.133 677.933 LINE",
"739.467 677.933 LINE",
"772.333 608.333 OFFCURVE",
"793.333 538.733 OFFCURVE",
"804.467 468.267 CURVE"
);
}
);
width = 1152;
}
);
leftKerningGroup = I;
unicode = 0046;
},
{
glyphname = G;
layers = (
{
anchors = (
{
name = bottom;
position = "{772, 0}";
},
{
name = topcap;
position = "{794, 1461}";
}
);
layerId = "FA6D65B5-4623-4FAC-A199-3F662257AC29";
paths = (
{
closed = 1;
nodes = (
"968 -18 OFFCURVE",
"1207 51 OFFCURVE",
"1318 143 CURVE",
"1318 581 LINE",
"1475 614 LINE",
"1475 679 LINE",
"857 679 LINE",
"857 614 LINE",
"1016 581 LINE",
"1016 283 LINE SMOOTH",
"1016 227 OFFCURVE",
"1012 208 OFFCURVE",
"996 185 CURVE SMOOTH",
"954 123 OFFCURVE",
"866 84 OFFCURVE",
"764 84 CURVE SMOOTH",
"526 84 OFFCURVE",
"417 259 OFFCURVE",
"417 664 CURVE SMOOTH",
"417 1068 OFFCURVE",
"549 1267 OFFCURVE",
"817 1267 CURVE SMOOTH",
"1003 1267 OFFCURVE",
"1114 1176 OFFCURVE",
"1236 924 CURVE",
"1315 924 LINE",
"1315 1355 LINE",
"1258 1355 LINE",
"1181 1265 LINE",
"1174 1265 LINE",
"1088 1332 OFFCURVE",
"942 1373 OFFCURVE",
"785 1373 CURVE SMOOTH",
"371 1373 OFFCURVE",
"79 1077 OFFCURVE",
"79 656 CURVE SMOOTH",
"79 252 OFFCURVE",
"352 -18 OFFCURVE",
"764 -18 CURVE SMOOTH"
);
}
);
width = 1505;
},
{
anchors = (
{
name = bottom;
position = "{752, 0}";
},
{
name = topcap;
position = "{769, 1461}";
}
);
associatedMasterId = "FA6D65B5-4623-4FAC-A199-3F662257AC29";
layerId = "CBD44848-52BD-4DC5-BFA6-577546B7224D";
paths = (
{
closed = 1;
nodes = (
"917 -18 OFFCURVE",
"1119 49 OFFCURVE",
"1216 143 CURVE",
"1216 605 LINE",
"1373 639 LINE",
"1373 679 LINE",
"873 679 LINE",
"873 639 LINE",
"1031 605 LINE",
"1031 262 LINE SMOOTH",
"1031 202 OFFCURVE",
"1028 188 OFFCURVE",
"1017 171 CURVE SMOOTH",
"973 99 OFFCURVE",
"880 63 OFFCURVE",
"766 63 CURVE SMOOTH",
"468 63 OFFCURVE",
"322 262 OFFCURVE",
"322 662 CURVE SMOOTH",
"322 1077 OFFCURVE",
"479 1294 OFFCURVE",
"781 1294 CURVE SMOOTH",
"977 1294 OFFCURVE",
"1082 1206 OFFCURVE",
"1195 950 CURVE",
"1236 950 LINE",
"1236 1355 LINE",
"1197 1355 LINE",
"1102 1265 LINE",
"1095 1265 LINE",
"1017 1334 OFFCURVE",
"894 1373 OFFCURVE",
"757 1373 CURVE SMOOTH",
"377 1373 OFFCURVE",
"97 1070 OFFCURVE",
"97 662 CURVE SMOOTH",
"97 264 OFFCURVE",
"361 -18 OFFCURVE",
"736 -18 CURVE SMOOTH"
);
}
);
width = 1422;
},
{
anchors = (
{
name = bottom;
position = "{754.667, 0}";
},
{
name = topcap;
position = "{772.333, 1461}";
}
);
layerId = "7C8D72FA-6E62-4564-8BB2-D9F9BC4EB15A";
paths = (
{
closed = 1;
nodes = (
"923.8 -18 OFFCURVE",
"1130.733 49.267 OFFCURVE",
"1229.6 143 CURVE",
"1229.6 601.8 LINE",
"1386.6 635.667 LINE",
"1386.6 679 LINE",
"870.867 679 LINE",
"870.867 635.667 LINE",
"1029 601.8 LINE",
"1029 264.8 LINE SMOOTH",
"1029 205.333 OFFCURVE",
"1025.867 190.667 OFFCURVE",
"1014.2 172.867 CURVE SMOOTH",
"970.467 102.2 OFFCURVE",
"878.133 65.8 OFFCURVE",
"765.733 65.8 CURVE SMOOTH",
"475.733 65.8 OFFCURVE",
"334.667 261.6 OFFCURVE",
"334.667 662.267 CURVE SMOOTH",
"334.667 1075.8 OFFCURVE",
"488.333 1290.4 OFFCURVE",
"785.8 1290.4 CURVE SMOOTH",
"980.467 1290.4 OFFCURVE",
"1086.267 1202 OFFCURVE",
"1200.467 946.533 CURVE",
"1246.533 946.533 LINE",
"1246.533 1355 LINE",
"1205.133 1355 LINE",
"1112.533 1265 LINE",
"1105.533 1265 LINE",
"1026.467 1333.733 OFFCURVE",
"900.4 1373 OFFCURVE",
"760.733 1373 CURVE SMOOTH",
"376.2 1373 OFFCURVE",
"94.6 1070.933 OFFCURVE",
"94.6 661.2 CURVE SMOOTH",
"94.6 262.4 OFFCURVE",
"359.8 -18 OFFCURVE",
"739.733 -18 CURVE SMOOTH"
);
}
);
width = 1433.06667;
}
);
leftKerningGroup = G;
rightKerningGroup = G;
unicode = 0047;
},
{
glyphname = H;
layers = (
{
anchors = (
{
name = bottom;
position = "{812, 0}";
},
{
name = topcap;
position = "{812, 1461}";
}
);
layerId = "FA6D65B5-4623-4FAC-A199-3F662257AC29";
paths = (
{
closed = 1;
nodes = (
"1551 0 LINE",
"1551 65 LINE",
"1403 102 LINE",
"1403 1255 LINE",
"1551 1290 LINE",
"1551 1355 LINE",
"950 1355 LINE",
"950 1290 LINE",
"1100 1255 LINE",
"1100 102 LINE",
"950 65 LINE",
"950 0 LINE"
);
},
{
closed = 1;
nodes = (
"674 0 LINE",
"674 65 LINE",
"526 102 LINE",
"526 1255 LINE",
"674 1290 LINE",
"674 1355 LINE",
"74 1355 LINE",
"74 1290 LINE",
"224 1255 LINE",
"224 102 LINE",
"74 65 LINE",
"74 0 LINE"
);
},
{
closed = 1;
nodes = (
"1276 665 LINE",
"1276 766 LINE",
"354 766 LINE",
"354 665 LINE"
);
}
);
width = 1624;
},
{
anchors = (
{
name = bottom;
position = "{760, 0}";
},
{
name = topcap;
position = "{760, 1461}";
}
);
associatedMasterId = "FA6D65B5-4623-4FAC-A199-3F662257AC29";
layerId = "CBD44848-52BD-4DC5-BFA6-577546B7224D";
paths = (
{
closed = 1;
nodes = (
"1429 0 LINE",
"1429 37 LINE",
"1272 74 LINE",
"1272 1281 LINE",
"1429 1311 LINE",
"1429 1355 LINE",
"929 1355 LINE",
"929 1315 LINE",
"1088 1281 LINE",
"1088 74 LINE",
"929 40 LINE",
"929 0 LINE"
);
},
{
closed = 1;
nodes = (
"579 0 LINE",
"579 40 LINE",
"422 74 LINE",
"422 1281 LINE",
"579 1315 LINE",
"579 1355 LINE",
"79 1355 LINE",
"79 1315 LINE",
"238 1281 LINE",
"238 74 LINE",
"79 40 LINE",
"79 0 LINE"
);
},
{
closed = 1;
nodes = (
"1162 678 LINE",
"1162 748 LINE",
"352 748 LINE",
"352 678 LINE"
);
}
);
width = 1508;
},
{
anchors = (
{
name = bottom;
position = "{766.933, 0}";
},
{
name = topcap;
position = "{766.933, 1461}";
}
);
layerId = "7C8D72FA-6E62-4564-8BB2-D9F9BC4EB15A";
paths = (
{
closed = 1;
nodes = (
"1445.267 0 LINE",
"1445.267 40.733 LINE",
"1289.467 77.733 LINE",
"1289.467 1277.533 LINE",
"1445.267 1308.2 LINE",
"1445.267 1355 LINE",
"931.8 1355 LINE",
"931.8 1311.667 LINE",
"1089.6 1277.533 LINE",
"1089.6 77.733 LINE",
"931.8 43.333 LINE",
"931.8 0 LINE"
);
},
{
closed = 1;
nodes = (
"591.667 0 LINE",
"591.667 43.333 LINE",
"435.867 77.733 LINE",
"435.867 1277.533 LINE",
"591.667 1311.667 LINE",
"591.667 1355 LINE",
"78.333 1355 LINE",
"78.333 1311.667 LINE",
"236.133 1277.533 LINE",
"236.133 77.733 LINE",
"78.333 43.333 LINE",
"78.333 0 LINE"
);
},
{
closed = 1;
nodes = (
"1177.2 676.267 LINE",
"1177.2 750.4 LINE",
"352.267 750.4 LINE",
"352.267 676.267 LINE"
);
}
);
width = 1523.46667;
}
);
leftKerningGroup = I;
rightKerningGroup = I;
unicode = 0048;
},
{
glyphname = Hbar;
layers = (
{
layerId = "FA6D65B5-4623-4FAC-A199-3F662257AC29";
paths = (
{
closed = 1;
nodes = (
"676 0 LINE",
"676 65 LINE",
"528 102 LINE",
"528 665 LINE",
"1102 665 LINE",
"1102 102 LINE",
"952 65 LINE",
"952 0 LINE",
"1552 0 LINE",
"1552 65 LINE",
"1404 102 LINE",
"1404 945 LINE",
"1540 945 LINE",
"1540 1077 LINE",
"1404 1077 LINE",
"1404 1255 LINE",
"1552 1290 LINE",
"1552 1355 LINE",
"952 1355 LINE",
"952 1290 LINE",
"1102 1255 LINE",
"1102 1077 LINE",
"528 1077 LINE",
"528 1255 LINE",
"676 1290 LINE",
"676 1355 LINE",
"76 1355 LINE",
"76 1290 LINE",
"225 1255 LINE",
"225 1077 LINE",
"93 1077 LINE",
"93 945 LINE",
"225 945 LINE",
"225 102 LINE",
"76 65 LINE",
"76 0 LINE"
);
},
{
closed = 1;
nodes = (
"528 945 LINE",
"1102 945 LINE",
"1102 766 LINE",
"528 766 LINE"
);
}
);
width = 1628;
},
{
associatedMasterId = "FA6D65B5-4623-4FAC-A199-3F662257AC29";
layerId = "CBD44848-52BD-4DC5-BFA6-577546B7224D";
paths = (
{
closed = 1;
nodes = (
"579 0 LINE",
"579 40 LINE",
"422 74 LINE",
"422 678 LINE",
"1088 678 LINE",
"1088 74 LINE",
"929 40 LINE",
"929 0 LINE",
"1429 0 LINE",
"1429 37 LINE",
"1272 74 LINE",
"1272 963 LINE",
"1431 963 LINE",
"1431 1077 LINE",
"1272 1077 LINE",
"1272 1281 LINE",
"1429 1311 LINE",
"1429 1355 LINE",
"929 1355 LINE",
"929 1315 LINE",
"1088 1281 LINE",
"1088 1077 LINE",
"422 1077 LINE",
"422 1281 LINE",
"579 1315 LINE",
"579 1355 LINE",
"79 1355 LINE",
"79 1315 LINE",
"238 1281 LINE",
"238 1077 LINE",
"97 1077 LINE",
"97 963 LINE",
"238 963 LINE",
"238 74 LINE",
"79 40 LINE",
"79 0 LINE"
);
},
{
closed = 1;
nodes = (
"422 963 LINE",
"1088 963 LINE",
"1088 748 LINE",
"422 748 LINE"
);
}
);
width = 1510;
},
{
layerId = "7C8D72FA-6E62-4564-8BB2-D9F9BC4EB15A";
paths = (
{
closed = 1;
nodes = (
"591.933 0 LINE",
"591.933 43.333 LINE",
"436.133 77.733 LINE",
"436.133 676.267 LINE",
"1089.867 676.267 LINE",
"1089.867 77.733 LINE",
"932.067 43.333 LINE",
"932.067 0 LINE",
"1445.4 0 LINE",
"1445.4 40.733 LINE",
"1289.6 77.733 LINE",
"1289.6 960.6 LINE",
"1445.533 960.6 LINE",
"1445.533 1077 LINE",
"1289.6 1077 LINE",
"1289.6 1277.533 LINE",
"1445.4 1308.2 LINE",
"1445.4 1355 LINE",
"932.067 1355 LINE",
"932.067 1311.667 LINE",
"1089.867 1277.533 LINE",
"1089.867 1077 LINE",
"436.133 1077 LINE",
"436.133 1277.533 LINE",
"591.933 1311.667 LINE",
"591.933 1355 LINE",
"78.6 1355 LINE",
"78.6 1311.667 LINE",
"236.267 1277.533 LINE",
"236.267 1077 LINE",
"96.467 1077 LINE",
"96.467 960.6 LINE",
"236.267 960.6 LINE",
"236.267 77.733 LINE",
"78.6 43.333 LINE",
"78.6 0 LINE"
);
},
{
closed = 1;
nodes = (
"436.133 960.6 LINE",
"1089.867 960.6 LINE",
"1089.867 750.4 LINE",
"436.133 750.4 LINE"
);
}
);
width = 1525.73333;
}
);
leftKerningGroup = I;
rightKerningGroup = I;
unicode = 0126;
},
{
glyphname = I;
layers = (
{
anchors = (
{
name = bottom;
position = "{374, 0}";
},
{
name = topcap;
position = "{374, 1461}";
}
);
layerId = "FA6D65B5-4623-4FAC-A199-3F662257AC29";
paths = (
{
closed = 1;
nodes = (
"674 0 LINE",
"674 65 LINE",
"526 102 LINE",
"526 1255 LINE",
"674 1290 LINE",
"674 1355 LINE",
"74 1355 LINE",
"74 1290 LINE",
"224 1255 LINE",
"224 102 LINE",
"74 65 LINE",
"74 0 LINE"
);
}
);
width = 748;
},
{
anchors = (
{
name = bottom;
position = "{331, 0}";
},
{
name = topcap;
position = "{331, 1461}";
}
);
associatedMasterId = "FA6D65B5-4623-4FAC-A199-3F662257AC29";
layerId = "CBD44848-52BD-4DC5-BFA6-577546B7224D";
paths = (
{
closed = 1;
nodes = (
"579 0 LINE",
"579 40 LINE",
"422 74 LINE",
"422 1281 LINE",
"579 1315 LINE",
"579 1355 LINE",
"79 1355 LINE",
"79 1315 LINE",
"238 1281 LINE",
"238 74 LINE",
"79 40 LINE",
"79 0 LINE"
);
}
);
width = 658;
},
{
anchors = (
{
name = bottom;
position = "{336.733, 0}";
},
{
name = topcap;
position = "{336.733, 1461}";
}
);
layerId = "7C8D72FA-6E62-4564-8BB2-D9F9BC4EB15A";
paths = (
{
closed = 1;
nodes = (
"591.667 0 LINE",
"591.667 43.333 LINE",
"435.867 77.733 LINE",
"435.867 1277.533 LINE",
"591.667 1311.667 LINE",
"591.667 1355 LINE",
"78.333 1355 LINE",
"78.333 1311.667 LINE",
"236.133 1277.533 LINE",
"236.133 77.733 LINE",
"78.333 43.333 LINE",
"78.333 0 LINE"
);
}
);
width = 670;
}
);
leftKerningGroup = I;
rightKerningGroup = I;
unicode = 0049;
},
{
glyphname = J;
layers = (
{
anchors = (
{
name = topcap;
position = "{360, 1461}";
}
);
layerId = "FA6D65B5-4623-4FAC-A199-3F662257AC29";
paths = (
{
closed = 1;
nodes = (
"192 -458 OFFCURVE",
"359 -378 OFFCURVE",
"452 -231 CURVE",
"503 -137 OFFCURVE",
"512 -72 OFFCURVE",
"512 273 CURVE SMOOTH",
"512 1255 LINE",
"660 1290 LINE",
"660 1355 LINE",
"60 1355 LINE",
"60 1290 LINE",
"209 1255 LINE",
"209 -76 LINE SMOOTH",
"209 -266 OFFCURVE",
"153 -357 OFFCURVE",
"83 -357 CURVE SMOOTH",
"40 -357 OFFCURVE",
"11 -324 OFFCURVE",
"-16 -245 CURVE SMOOTH",
"-39 -181 OFFCURVE",
"-72 -136 OFFCURVE",
"-144 -136 CURVE SMOOTH",
"-215 -136 OFFCURVE",
"-271 -181 OFFCURVE",
"-271 -269 CURVE SMOOTH",
"-271 -384 OFFCURVE",
"-164 -458 OFFCURVE",
"26 -458 CURVE SMOOTH"
);
}
);
width = 720;
},
{
anchors = (
{
name = topcap;
position = "{319, 1461}";
}
);
associatedMasterId = "FA6D65B5-4623-4FAC-A199-3F662257AC29";
layerId = "CBD44848-52BD-4DC5-BFA6-577546B7224D";
paths = (
{
closed = 1;
nodes = (
"128 -458 OFFCURVE",
"268 -378 OFFCURVE",
"350 -231 CURVE SMOOTH",
"401 -137 OFFCURVE",
"410 -72 OFFCURVE",
"410 273 CURVE SMOOTH",
"410 1281 LINE",
"567 1315 LINE",
"567 1355 LINE",
"67 1355 LINE",
"67 1315 LINE",
"225 1281 LINE",
"225 -84 LINE SMOOTH",
"225 -275 OFFCURVE",
"162 -366 OFFCURVE",
"81 -366 CURVE SMOOTH",
"35 -366 OFFCURVE",
"-2 -338 OFFCURVE",
"-26 -271 CURVE SMOOTH",
"-46 -218 OFFCURVE",
"-74 -190 OFFCURVE",
"-123 -190 CURVE SMOOTH",
"-187 -190 OFFCURVE",
"-227 -234 OFFCURVE",
"-227 -304 CURVE SMOOTH",
"-227 -400 OFFCURVE",
"-146 -458 OFFCURVE",
"-16 -458 CURVE SMOOTH"
);
}
);
width = 637;
},
{
anchors = (
{
name = topcap;
position = "{324.467, 1461}";
}
);
layerId = "7C8D72FA-6E62-4564-8BB2-D9F9BC4EB15A";
paths = (
{
closed = 1;
nodes = (
"136.533 -458 OFFCURVE",
"280.133 -378 OFFCURVE",
"363.6 -231 CURVE SMOOTH",
"414.6 -137 OFFCURVE",
"423.6 -72 OFFCURVE",
"423.6 273 CURVE SMOOTH",
"423.6 1277.533 LINE",
"579.4 1311.667 LINE",
"579.4 1355 LINE",
"66.067 1355 LINE",
"66.067 1311.667 LINE",
"222.867 1277.533 LINE",
"222.867 -82.933 LINE SMOOTH",
"222.867 -273.8 OFFCURVE",
"160.8 -364.8 OFFCURVE",
"81.267 -364.8 CURVE SMOOTH",
"35.667 -364.8 OFFCURVE",
"-0.267 -336.133 OFFCURVE",
"-24.667 -267.533 CURVE SMOOTH",
"-45.067 -213.067 OFFCURVE",
"-73.733 -182.8 OFFCURVE",
"-125.8 -182.8 CURVE SMOOTH",
"-190.733 -182.8 OFFCURVE",
"-232.867 -226.933 OFFCURVE",
"-232.867 -299.333 CURVE SMOOTH",
"-232.867 -397.867 OFFCURVE",
"-148.4 -458 OFFCURVE",
"-10.4 -458 CURVE SMOOTH"
);
}
);
width = 648.06667;
}
);
leftKerningGroup = J;
rightKerningGroup = J;
unicode = 004A;
},
{
glyphname = K;
layers = (
{
anchors = (
{
name = bottom;
position = "{770, 0}";
}
);
layerId = "FA6D65B5-4623-4FAC-A199-3F662257AC29";
paths = (
{
closed = 1;
nodes = (
"674 0 LINE",
"674 65 LINE",
"526 102 LINE",
"526 577 LINE",
"565 618 LINE",
"998 0 LINE",
"1468 0 LINE",
"1468 65 LINE",
"1308 99 LINE",
"773 843 LINE",
"1082 1181 LINE SMOOTH",
"1140 1244 OFFCURVE",
"1177 1264 OFFCURVE",
"1343 1290 CURVE",
"1343 1355 LINE",
"838 1355 LINE",
"838 1292 LINE",
"928 1288 OFFCURVE",
"973 1274 OFFCURVE",
"973 1241 CURVE SMOOTH",
"973 1227 OFFCURVE",
"968 1206 OFFCURVE",
"949 1186 CURVE SMOOTH",
"526 732 LINE",
"526 1255 LINE",
"674 1290 LINE",
"674 1355 LINE",
"74 1355 LINE",
"74 1290 LINE",
"224 1255 LINE",
"224 102 LINE",
"74 65 LINE",
"74 0 LINE"
);
}
);
width = 1420;
},
{
anchors = (
{
name = bottom;
position = "{697, 0}";
}
);
associatedMasterId = "FA6D65B5-4623-4FAC-A199-3F662257AC29";
layerId = "CBD44848-52BD-4DC5-BFA6-577546B7224D";
paths = (
{
closed = 1;
nodes = (
"579 0 LINE",
"579 40 LINE",
"422 74 LINE",
"422 537 LINE",
"537 667 LINE",
"1038 0 LINE",
"1420 0 LINE",
"1420 40 LINE",
"1225 74 LINE",
"660 808 LINE",
"1008 1206 LINE SMOOTH",
"1065 1271 OFFCURVE",
"1104 1287 OFFCURVE",
"1265 1315 CURVE",
"1265 1355 LINE",
"801 1355 LINE",
"801 1315 LINE",
"905 1308 OFFCURVE",
"949 1292 OFFCURVE",
"949 1262 CURVE SMOOTH",
"949 1248 OFFCURVE",
"940 1230 OFFCURVE",
"920 1209 CURVE SMOOTH",
"422 651 LINE",
"422 1281 LINE",
"579 1315 LINE",
"579 1355 LINE",
"79 1355 LINE",
"79 1315 LINE",
"238 1281 LINE",
"238 74 LINE",
"79 40 LINE",
"79 0 LINE"
);
}
);
width = 1378;
},
{
anchors = (
{
name = bottom;
position = "{706.733, 0}";
}
);
layerId = "7C8D72FA-6E62-4564-8BB2-D9F9BC4EB15A";
paths = (
{
closed = 1;
nodes = (
"591.667 0 LINE",
"591.667 43.333 LINE",
"435.867 77.733 LINE",
"435.867 542.333 LINE",
"540.733 660.467 LINE",
"1032.667 0 LINE",
"1426.4 0 LINE",
"1426.4 43.333 LINE",
"1236.067 77.333 LINE",
"675.067 812.667 LINE",
"1017.867 1202.667 LINE SMOOTH",
"1075 1267.4 OFFCURVE",
"1113.733 1283.933 OFFCURVE",
"1275.4 1311.667 CURVE",
"1275.4 1355 LINE",
"805.933 1355 LINE",
"805.933 1311.933 LINE",
"908.067 1305.333 OFFCURVE",
"952.2 1289.6 OFFCURVE",
"952.2 1259.2 CURVE SMOOTH",
"952.2 1245.2 OFFCURVE",
"943.733 1226.8 OFFCURVE",
"923.867 1205.933 CURVE SMOOTH",
"435.867 661.8 LINE",
"435.867 1277.533 LINE",
"591.667 1311.667 LINE",
"591.667 1355 LINE",
"78.333 1355 LINE",
"78.333 1311.667 LINE",
"236.133 1277.533 LINE",
"236.133 77.733 LINE",
"78.333 43.333 LINE",
"78.333 0 LINE"
);
}
);
width = 1383.6;
}
);
leftKerningGroup = I;
rightKerningGroup = K;
unicode = 004B;
},
{
glyphname = L;
layers = (
{
anchors = (
{
name = bottom;
position = "{655, 0}";
},
{
name = topcap;
position = "{392, 1461}";
}
);
layerId = "FA6D65B5-4623-4FAC-A199-3F662257AC29";
paths = (
{
closed = 1;
nodes = (
"1142 0 LINE",
"1216 412 LINE",
"1125 412 LINE",
"1082 308 OFFCURVE",
"1040 204 OFFCURVE",
"964 100 CURVE",
"526 100 LINE",
"526 1255 LINE",
"692 1290 LINE",
"692 1355 LINE",
"74 1355 LINE",
"74 1290 LINE",
"224 1257 LINE",
"224 99 LINE",
"74 65 LINE",
"74 0 LINE"
);
}
);
width = 1230;
},
{
anchors = (
{
name = bottom;
position = "{607, 0}";
},
{
name = topcap;
position = "{335, 1461}";
}
);
associatedMasterId = "FA6D65B5-4623-4FAC-A199-3F662257AC29";
layerId = "CBD44848-52BD-4DC5-BFA6-577546B7224D";
paths = (
{
closed = 1;
nodes = (
"1058 0 LINE",
"1123 421 LINE",
"1077 421 LINE",
"1038 304 OFFCURVE",
"1000 187 OFFCURVE",
"929 70 CURVE",
"421 70 LINE",
"421 1281 LINE",
"588 1315 LINE",
"588 1355 LINE",
"86 1355 LINE",
"86 1315 LINE",
"236 1281 LINE",
"236 74 LINE",
"86 40 LINE",
"86 0 LINE"
);
}
);
width = 1155;
},
{
anchors = (
{
name = bottom;
position = "{613.4, 0}";
},
{
name = topcap;
position = "{342.6, 1461}";
}
);
layerId = "7C8D72FA-6E62-4564-8BB2-D9F9BC4EB15A";
paths = (
{
closed = 1;
nodes = (
"1069.2 0 LINE",
"1135.4 419.8 LINE",
"1083.4 419.8 LINE",
"1043.867 304.533 OFFCURVE",
"1005.333 189.267 OFFCURVE",
"933.667 74 CURVE",
"435 74 LINE",
"435 1277.533 LINE",
"601.867 1311.667 LINE",
"601.867 1355 LINE",
"84.4 1355 LINE",
"84.4 1311.667 LINE",
"234.4 1277.8 LINE",
"234.4 77.333 LINE",
"84.4 43.333 LINE",
"84.4 0 LINE"
);
}
);
width = 1165;
}
);
leftKerningGroup = I;
rightKerningGroup = L;
unicode = 004C;
},
{
glyphname = Lslash;
layers = (
{
components = (
{
name = L;
transform = "{1, 0, 0, 1, 2, 0}";
}
);
layerId = "FA6D65B5-4623-4FAC-A199-3F662257AC29";
paths = (
{
closed = 1;
nodes = (
"656 778 LINE",
"656 945 LINE",
"107 653 LINE",
"107 486 LINE"
);
}
);
width = 1232;
},
{
associatedMasterId = "FA6D65B5-4623-4FAC-A199-3F662257AC29";
components = (
{
name = L;
transform = "{1, 0, 0, 1, 2, 0}";
}
);
layerId = "CBD44848-52BD-4DC5-BFA6-577546B7224D";
paths = (
{
closed = 1;
nodes = (
"590 799 LINE",
"590 913 LINE",
"104 653 LINE",
"104 539 LINE"
);
}
);
width = 1156;
},
{
components = (
{
alignment = -1;
name = L;
transform = "{1, 0, 0, 1, 2, 0}";
}
);
layerId = "7C8D72FA-6E62-4564-8BB2-D9F9BC4EB15A";
paths = (
{
closed = 1;
nodes = (
"598.8 796.2 LINE",
"598.8 917.267 LINE",
"104.4 653 LINE",
"104.4 531.933 LINE"
);
}
);
width = 1166.13333;
}
);
leftKerningGroup = I;
rightKerningGroup = L;
unicode = 0141;
},
{
glyphname = M;
layers = (
{
layerId = "FA6D65B5-4623-4FAC-A199-3F662257AC29";
paths = (
{
closed = 1;
nodes = (
"915 -18 LINE",
"1357 1045 LINE",
"1364 1045 LINE",
"1364 102 LINE",
"1214 65 LINE",
"1214 0 LINE",
"1815 0 LINE",
"1815 65 LINE",
"1667 102 LINE",
"1667 1255 LINE",
"1815 1290 LINE",
"1815 1355 LINE",
"1362 1355 LINE",
"980 447 LINE",
"970 447 LINE",
"604 1355 LINE",
"70 1355 LINE",
"70 1290 LINE",
"225 1257 LINE",
"225 99 LINE",
"69 65 LINE",
"69 0 LINE",
"502 0 LINE",
"502 65 LINE",
"347 99 LINE",
"347 1093 LINE",
"354 1093 LINE",
"831 -18 LINE"
);
}
);
width = 1888;
},
{
associatedMasterId = "FA6D65B5-4623-4FAC-A199-3F662257AC29";
layerId = "CBD44848-52BD-4DC5-BFA6-577546B7224D";
paths = (
{
closed = 1;
nodes = (
"854 -18 LINE",
"1353 1155 LINE",
"1360 1155 LINE",
"1360 74 LINE",
"1202 40 LINE",
"1202 0 LINE",
"1702 0 LINE",
"1702 40 LINE",
"1545 74 LINE",
"1545 1281 LINE",
"1702 1315 LINE",
"1702 1355 LINE",
"1334 1355 LINE",
"896 312 LINE",
"887 312 LINE",
"449 1355 LINE",
"79 1355 LINE",
"79 1315 LINE",
"238 1281 LINE",
"238 74 LINE",
"79 40 LINE",
"79 0 LINE",
"465 0 LINE",
"465 40 LINE",
"308 74 LINE",
"308 1162 LINE",
"315 1162 LINE",
"806 -18 LINE"
);
}
);
width = 1781;
},
{
layerId = "7C8D72FA-6E62-4564-8BB2-D9F9BC4EB15A";
paths = (
{
closed = 1;
nodes = (
"862.133 -18 LINE",
"1353.533 1140.333 LINE",
"1360.533 1140.333 LINE",
"1360.533 77.733 LINE",
"1203.6 43.333 LINE",
"1203.6 0 LINE",
"1717.067 0 LINE",
"1717.067 43.333 LINE",
"1561.267 77.733 LINE",
"1561.267 1277.533 LINE",
"1717.067 1311.667 LINE",
"1717.067 1355 LINE",
"1337.733 1355 LINE",
"907.2 330 LINE",
"898.067 330 LINE",
"469.667 1355 LINE",
"77.8 1355 LINE",
"77.8 1311.667 LINE",
"236.267 1277.8 LINE",
"236.267 77.333 LINE",
"77.667 43.333 LINE",
"77.667 0 LINE",
"469.933 0 LINE",
"469.933 43.333 LINE",
"313.2 77.333 LINE",
"313.2 1152.8 LINE",
"320.2 1152.8 LINE",
"809.333 -18 LINE"
);
}
);
width = 1795.26667;
}
);
leftKerningGroup = N;
rightKerningGroup = I;
unicode = 004D;
},
{
glyphname = N;
layers = (
{
anchors = (
{
name = bottom;
position = "{773, 0}";
},
{
name = topcap;
position = "{803, 1461}";
}
);
layerId = "FA6D65B5-4623-4FAC-A199-3F662257AC29";
paths = (
{
closed = 1;
nodes = (
"1334 -18 LINE",
"1334 1257 LINE",
"1491 1290 LINE",
"1491 1355 LINE",
"1058 1355 LINE",
"1058 1290 LINE",
"1213 1257 LINE",
"1213 519 LINE",
"547 1355 LINE",
"70 1355 LINE",
"70 1290 LINE",
"225 1257 LINE",
"225 99 LINE",
"69 65 LINE",
"69 0 LINE",
"502 0 LINE",
"502 65 LINE",
"347 99 LINE",
"347 1074 LINE",
"1213 -18 LINE"
);
}
);
width = 1545;
},
{
anchors = (
{
name = bottom;
position = "{713, 0}";
},
{
name = topcap;
position = "{737, 1461}";
}
);
associatedMasterId = "FA6D65B5-4623-4FAC-A199-3F662257AC29";
layerId = "CBD44848-52BD-4DC5-BFA6-577546B7224D";
paths = (
{
closed = 1;
nodes = (
"1230 -35 LINE",
"1230 1281 LINE",
"1389 1315 LINE",
"1389 1355 LINE",
"1003 1355 LINE",
"1003 1315 LINE",
"1160 1281 LINE",
"1160 359 LINE",
"435 1355 LINE",
"79 1355 LINE",
"79 1315 LINE",
"238 1281 LINE",
"238 74 LINE",
"79 40 LINE",
"79 0 LINE",
"465 0 LINE",
"465 40 LINE",
"308 74 LINE",
"308 1174 LINE",
"1176 -35 LINE"
);
}
);
width = 1457;
},
{
anchors = (
{
name = bottom;
position = "{721, 0}";
},
{
name = topcap;
position = "{745.8, 1461}";
}
);
layerId = "7C8D72FA-6E62-4564-8BB2-D9F9BC4EB15A";
paths = (
{
closed = 1;
nodes = (
"1243.867 -32.733 LINE",
"1243.867 1277.8 LINE",
"1402.6 1311.667 LINE",
"1402.6 1355 LINE",
"1010.333 1355 LINE",
"1010.333 1311.667 LINE",
"1167.067 1277.8 LINE",
"1167.067 380.333 LINE",
"449.933 1355 LINE",
"77.8 1355 LINE",
"77.8 1311.667 LINE",
"236.267 1277.8 LINE",
"236.267 77.333 LINE",
"77.667 43.333 LINE",
"77.667 0 LINE",
"469.933 0 LINE",
"469.933 43.333 LINE",
"313.2 77.333 LINE",
"313.2 1160.667 LINE",
"1180.933 -32.733 LINE"
);
}
);
width = 1468.73333;
}
);
leftKerningGroup = N;
rightKerningGroup = N;
unicode = 004E;
},
{
glyphname = Eng;
layers = (
{
layerId = "FA6D65B5-4623-4FAC-A199-3F662257AC29";
paths = (
{
closed = 1;
nodes = (
"1262 458 LINE",
"547 1355 LINE",
"257 1355 LINE",
"248 1199 LINE",
"1213 -18 LINE"
);
},
{
closed = 1;
nodes = (
"1014 -458 OFFCURVE",
"1181 -378 OFFCURVE",
"1274 -231 CURVE",
"1325 -137 OFFCURVE",
"1334 -72 OFFCURVE",
"1334 273 CURVE",
"1031 273 LINE",
"1031 -76 LINE SMOOTH",
"1031 -266 OFFCURVE",
"975 -357 OFFCURVE",
"905 -357 CURVE SMOOTH",
"862 -357 OFFCURVE",
"832 -324 OFFCURVE",
"806 -245 CURVE SMOOTH",
"783 -181 OFFCURVE",
"750 -136 OFFCURVE",
"678 -136 CURVE SMOOTH",
"607 -136 OFFCURVE",
"551 -181 OFFCURVE",
"551 -269 CURVE SMOOTH",
"551 -384 OFFCURVE",
"658 -458 OFFCURVE",
"848 -458 CURVE SMOOTH"
);
},
{
closed = 1;
nodes = (
"502 0 LINE",
"502 65 LINE",
"347 99 LINE",
"347 1355 LINE",
"70 1355 LINE",
"70 1290 LINE",
"225 1257 LINE",
"225 99 LINE",
"69 65 LINE",
"69 0 LINE"
);
},
{
closed = 1;
nodes = (
"1334 246 LINE",
"1334 1257 LINE",
"1491 1290 LINE",
"1491 1355 LINE",
"1058 1355 LINE",
"1058 1290 LINE",
"1213 1257 LINE",
"1213 246 LINE"
);
}
);
width = 1544;
},
{
associatedMasterId = "FA6D65B5-4623-4FAC-A199-3F662257AC29";
layerId = "CBD44848-52BD-4DC5-BFA6-577546B7224D";
paths = (
{
closed = 1;
nodes = (
"1197 308 LINE",
"435 1355 LINE",
"268 1355 LINE",
"259 1243 LINE",
"1176 -35 LINE"
);
},
{
closed = 1;
nodes = (
"949 -458 OFFCURVE",
"1088 -378 OFFCURVE",
"1170 -231 CURVE SMOOTH",
"1221 -137 OFFCURVE",
"1230 -72 OFFCURVE",
"1230 273 CURVE",
"1045 273 LINE",
"1045 -84 LINE SMOOTH",
"1045 -275 OFFCURVE",
"982 -366 OFFCURVE",
"901 -366 CURVE SMOOTH",
"855 -366 OFFCURVE",
"818 -338 OFFCURVE",
"794 -271 CURVE SMOOTH",
"774 -218 OFFCURVE",
"746 -190 OFFCURVE",
"697 -190 CURVE SMOOTH",
"634 -190 OFFCURVE",
"593 -234 OFFCURVE",
"593 -304 CURVE SMOOTH",
"593 -400 OFFCURVE",
"674 -458 OFFCURVE",
"804 -458 CURVE SMOOTH"
);
},
{
closed = 1;
nodes = (
"465 0 LINE",
"465 40 LINE",
"308 74 LINE",
"308 1355 LINE",
"79 1355 LINE",
"79 1315 LINE",
"238 1281 LINE",
"238 74 LINE",
"79 40 LINE",
"79 0 LINE"
);
},
{
closed = 1;
nodes = (
"1230 211 LINE",
"1230 1281 LINE",
"1389 1315 LINE",
"1389 1355 LINE",
"1003 1355 LINE",
"1003 1315 LINE",
"1160 1281 LINE",
"1160 211 LINE"
);
}
);
width = 1456;
},
{
layerId = "7C8D72FA-6E62-4564-8BB2-D9F9BC4EB15A";
paths = (
{
closed = 1;
nodes = (
"1205.667 328 LINE",
"449.933 1355 LINE",
"266.533 1355 LINE",
"257.533 1237.133 LINE",
"1180.933 -32.733 LINE"
);
},
{
closed = 1;
nodes = (
"957.667 -458 OFFCURVE",
"1100.4 -378 OFFCURVE",
"1183.867 -231 CURVE SMOOTH",
"1234.867 -137 OFFCURVE",
"1243.867 -72 OFFCURVE",
"1243.867 273 CURVE",
"1043.133 273 LINE",
"1043.133 -82.933 LINE SMOOTH",
"1043.133 -273.8 OFFCURVE",
"981.067 -364.8 OFFCURVE",
"901.533 -364.8 CURVE SMOOTH",
"855.933 -364.8 OFFCURVE",
"819.867 -336.133 OFFCURVE",
"795.6 -267.533 CURVE SMOOTH",
"775.2 -213.067 OFFCURVE",
"746.533 -182.8 OFFCURVE",
"694.467 -182.8 CURVE SMOOTH",
"630.4 -182.8 OFFCURVE",
"587.4 -226.933 OFFCURVE",
"587.4 -299.333 CURVE SMOOTH",
"587.4 -397.867 OFFCURVE",
"671.867 -458 OFFCURVE",
"809.867 -458 CURVE SMOOTH"
);
},
{
closed = 1;
nodes = (
"469.933 0 LINE",
"469.933 43.333 LINE",
"313.2 77.333 LINE",
"313.2 1355 LINE",
"77.8 1355 LINE",
"77.8 1311.667 LINE",
"236.267 1277.8 LINE",
"236.267 77.333 LINE",
"77.667 43.333 LINE",
"77.667 0 LINE"
);
},
{
closed = 1;
nodes = (
"1243.867 215.667 LINE",
"1243.867 1277.8 LINE",
"1402.6 1311.667 LINE",
"1402.6 1355 LINE",
"1010.333 1355 LINE",
"1010.333 1311.667 LINE",
"1167.067 1277.8 LINE",
"1167.067 215.667 LINE"
);
}
);
width = 1467.73333;
}
);
leftKerningGroup = N;
rightKerningGroup = N;
unicode = 014A;
},
{
glyphname = O;
layers = (
{
anchors = (
{
name = bottom;
position = "{765, 0}";
},
{
name = topcap;
position = "{765, 1461}";
}
);
layerId = "FA6D65B5-4623-4FAC-A199-3F662257AC29";
paths = (
{
closed = 1;
nodes = (
"1206 -18 OFFCURVE",
"1450 296 OFFCURVE",
"1450 678 CURVE SMOOTH",
"1450 1060 OFFCURVE",
"1206 1373 OFFCURVE",
"764 1373 CURVE SMOOTH",
"324 1373 OFFCURVE",
"79 1060 OFFCURVE",
"79 678 CURVE SMOOTH",
"79 296 OFFCURVE",
"324 -18 OFFCURVE",
"764 -18 CURVE SMOOTH"
);
},
{
closed = 1;
nodes = (
"480 84 OFFCURVE",
"426 433 OFFCURVE",
"426 678 CURVE SMOOTH",
"426 920 OFFCURVE",
"480 1267 OFFCURVE",
"764 1267 CURVE SMOOTH",
"1052 1267 OFFCURVE",
"1104 920 OFFCURVE",
"1104 678 CURVE SMOOTH",
"1104 433 OFFCURVE",
"1049 84 OFFCURVE",
"764 84 CURVE SMOOTH"
);
}
);
width = 1529;
},
{
anchors = (
{
name = bottom;
position = "{737, 0}";
},
{
name = topcap;
position = "{737, 1461}";
}
);
associatedMasterId = "FA6D65B5-4623-4FAC-A199-3F662257AC29";
layerId = "CBD44848-52BD-4DC5-BFA6-577546B7224D";
paths = (
{
closed = 1;
nodes = (
"1100 -18 OFFCURVE",
"1375 282 OFFCURVE",
"1375 678 CURVE SMOOTH",
"1375 1074 OFFCURVE",
"1100 1373 OFFCURVE",
"736 1373 CURVE SMOOTH",
"371 1373 OFFCURVE",
"97 1074 OFFCURVE",
"97 678 CURVE SMOOTH",
"97 282 OFFCURVE",
"371 -18 OFFCURVE",
"736 -18 CURVE SMOOTH"
);
},
{
closed = 1;
nodes = (
"475 62 OFFCURVE",
"319 294 OFFCURVE",
"319 679 CURVE SMOOTH",
"319 1065 OFFCURVE",
"475 1294 OFFCURVE",
"737 1294 CURVE SMOOTH",
"998 1294 OFFCURVE",
"1153 1067 OFFCURVE",
"1153 683 CURVE SMOOTH",
"1153 294 OFFCURVE",
"996 62 OFFCURVE",
"736 62 CURVE SMOOTH"
);
}
);
width = 1471;
},
{
anchors = (
{
name = bottom;
position = "{740.733, 0}";
},
{
name = topcap;
position = "{740.733, 1461}";
}
);
layerId = "7C8D72FA-6E62-4564-8BB2-D9F9BC4EB15A";
paths = (
{
closed = 1;
nodes = (
"1114.133 -18 OFFCURVE",
"1385 283.867 OFFCURVE",
"1385 678 CURVE SMOOTH",
"1385 1072.133 OFFCURVE",
"1114.133 1373 OFFCURVE",
"739.733 1373 CURVE SMOOTH",
"364.733 1373 OFFCURVE",
"94.6 1072.133 OFFCURVE",
"94.6 678 CURVE SMOOTH",
"94.6 283.867 OFFCURVE",
"364.733 -18 OFFCURVE",
"739.733 -18 CURVE SMOOTH"
);
},
{
closed = 1;
nodes = (
"475.667 64.933 OFFCURVE",
"333.267 312.533 OFFCURVE",
"333.267 678.867 CURVE SMOOTH",
"333.267 1045.667 OFFCURVE",
"475.667 1290.4 OFFCURVE",
"740.6 1290.4 CURVE SMOOTH",
"1005.2 1290.4 OFFCURVE",
"1146.467 1047.4 OFFCURVE",
"1146.467 682.333 CURVE SMOOTH",
"1146.467 312.533 OFFCURVE",
"1003.067 64.933 OFFCURVE",
"739.733 64.933 CURVE SMOOTH"
);
}
);
width = 1478.73333;
}
);
leftKerningGroup = O;
rightKerningGroup = O;
unicode = 004F;
},
{
glyphname = Oslash;
layers = (
{
layerId = "FA6D65B5-4623-4FAC-A199-3F662257AC29";
paths = (
{
closed = 1;
nodes = (
"1204 -18 OFFCURVE",
"1448 296 OFFCURVE",
"1448 678 CURVE SMOOTH",
"1448 873 OFFCURVE",
"1383 1049 OFFCURVE",
"1262 1176 CURVE",
"1417 1355 LINE",
"1280 1355 LINE",
"1184 1244 LINE",
"1075 1324 OFFCURVE",
"933 1373 OFFCURVE",
"762 1373 CURVE SMOOTH",
"322 1373 OFFCURVE",
"77 1060 OFFCURVE",
"77 678 CURVE SMOOTH",
"77 480 OFFCURVE",
"143 301 OFFCURVE",
"266 174 CURVE",
"116 0 LINE",
"252 0 LINE",
"343 107 LINE",
"452 28 OFFCURVE",
"593 -18 OFFCURVE",
"762 -18 CURVE SMOOTH"
);
},
{
closed = 1;
nodes = (
"625 84 OFFCURVE",
"540 165 OFFCURVE",
"491 278 CURVE",
"1074 956 LINE",
"1095 864 OFFCURVE",
"1102 764 OFFCURVE",
"1102 678 CURVE SMOOTH",
"1102 433 OFFCURVE",
"1047 84 OFFCURVE",
"762 84 CURVE SMOOTH"
);
},
{
closed = 1;
nodes = (
"431 488 OFFCURVE",
"424 590 OFFCURVE",
"424 678 CURVE SMOOTH",
"424 920 OFFCURVE",
"479 1267 OFFCURVE",
"762 1267 CURVE SMOOTH",
"903 1267 OFFCURVE",
"987 1184 OFFCURVE",
"1037 1072 CURVE",
"454 392 LINE"
);
}
);
width = 1526;
},
{
associatedMasterId = "FA6D65B5-4623-4FAC-A199-3F662257AC29";
layerId = "CBD44848-52BD-4DC5-BFA6-577546B7224D";
paths = (
{
closed = 1;
nodes = (
"1102 -18 OFFCURVE",
"1376 282 OFFCURVE",
"1376 678 CURVE SMOOTH",
"1376 871 OFFCURVE",
"1309 1042 OFFCURVE",
"1199 1165 CURVE",
"1362 1355 LINE",
"1264 1355 LINE",
"1146 1218 LINE",
"1037 1315 OFFCURVE",
"896 1373 OFFCURVE",
"737 1373 CURVE SMOOTH",
"373 1373 OFFCURVE",
"99 1074 OFFCURVE",
"99 678 CURVE SMOOTH",
"99 488 OFFCURVE",
"162 319 OFFCURVE",
"268 195 CURVE",
"100 0 LINE",
"197 0 LINE",
"320 143 LINE",
"429 42 OFFCURVE",
"574 -18 OFFCURVE",
"737 -18 CURVE SMOOTH"
);
},
{
closed = 1;
nodes = (
"597 62 OFFCURVE",
"486 130 OFFCURVE",
"414 253 CURVE",
"1093 1042 LINE",
"1133 945 OFFCURVE",
"1155 825 OFFCURVE",
"1155 683 CURVE SMOOTH",
"1155 294 OFFCURVE",
"998 62 OFFCURVE",
"737 62 CURVE SMOOTH"
);
},
{
closed = 1;
nodes = (
"340 421 OFFCURVE",
"320 540 OFFCURVE",
"320 679 CURVE SMOOTH",
"320 1065 OFFCURVE",
"477 1294 OFFCURVE",
"739 1294 CURVE SMOOTH",
"876 1294 OFFCURVE",
"984 1230 OFFCURVE",
"1056 1114 CURVE",
"378 326 LINE"
);
}
);
width = 1473;
},
{
layerId = "7C8D72FA-6E62-4564-8BB2-D9F9BC4EB15A";
paths = (
{
closed = 1;
nodes = (
"1115.6 -18 OFFCURVE",
"1385.6 283.867 OFFCURVE",
"1385.6 678 CURVE SMOOTH",
"1385.6 871.267 OFFCURVE",
"1318.867 1042.933 OFFCURVE",
"1207.4 1166.467 CURVE",
"1369.333 1355 LINE",
"1266.133 1355 LINE",
"1151.067 1221.467 LINE",
"1042.067 1316.2 OFFCURVE",
"900.933 1373 OFFCURVE",
"740.333 1373 CURVE SMOOTH",
"366.2 1373 OFFCURVE",
"96.067 1072.133 OFFCURVE",
"96.067 678 CURVE SMOOTH",
"96.067 486.933 OFFCURVE",
"159.467 316.6 OFFCURVE",
"267.733 192.2 CURVE",
"102.133 0 LINE",
"204.333 0 LINE",
"323.067 138.2 LINE",
"432.067 40.133 OFFCURVE",
"576.533 -18 OFFCURVE",
"740.333 -18 CURVE SMOOTH"
);
},
{
closed = 1;
nodes = (
"600.733 64.933 OFFCURVE",
"493.2 134.667 OFFCURVE",
"424.267 256.333 CURVE",
"1090.467 1030.533 LINE",
"1127.933 934.2 OFFCURVE",
"1147.933 816.867 OFFCURVE",
"1147.933 682.333 CURVE SMOOTH",
"1147.933 312.533 OFFCURVE",
"1004.533 64.933 OFFCURVE",
"740.333 64.933 CURVE SMOOTH"
);
},
{
closed = 1;
nodes = (
"352.133 429.933 OFFCURVE",
"333.867 546.667 OFFCURVE",
"333.867 678.867 CURVE SMOOTH",
"333.867 1045.667 OFFCURVE",
"477.267 1290.4 OFFCURVE",
"742.067 1290.4 CURVE SMOOTH",
"879.6 1290.4 OFFCURVE",
"984.4 1223.867 OFFCURVE",
"1053.467 1108.4 CURVE",
"388.133 334.8 LINE"
);
}
);
width = 1480.06667;
}
);
leftKerningGroup = O;
rightKerningGroup = O;
unicode = 00D8;
},
{
glyphname = Oslashacute;
layers = (
{
components = (
{
name = acute.cap;
transform = "{1, 0, 0, 1, 556, 0}";
}
);
layerId = "FA6D65B5-4623-4FAC-A199-3F662257AC29";
paths = (
{
closed = 1;
nodes = (
"1204 -18 OFFCURVE",
"1448 296 OFFCURVE",
"1448 678 CURVE SMOOTH",
"1448 873 OFFCURVE",
"1383 1049 OFFCURVE",
"1262 1176 CURVE",
"1417 1355 LINE",
"1280 1355 LINE",
"1184 1244 LINE",
"1075 1324 OFFCURVE",
"933 1373 OFFCURVE",
"762 1373 CURVE SMOOTH",
"322 1373 OFFCURVE",
"77 1060 OFFCURVE",
"77 678 CURVE SMOOTH",
"77 480 OFFCURVE",
"143 301 OFFCURVE",
"266 174 CURVE",
"116 0 LINE",
"252 0 LINE",
"343 107 LINE",
"452 28 OFFCURVE",
"593 -18 OFFCURVE",
"762 -18 CURVE SMOOTH"
);
},
{
closed = 1;
nodes = (
"625 84 OFFCURVE",
"540 165 OFFCURVE",
"491 278 CURVE",
"1074 956 LINE",
"1095 864 OFFCURVE",
"1102 764 OFFCURVE",
"1102 678 CURVE SMOOTH",
"1102 433 OFFCURVE",
"1047 84 OFFCURVE",
"762 84 CURVE SMOOTH"
);
},
{
closed = 1;
nodes = (
"431 488 OFFCURVE",
"424 590 OFFCURVE",
"424 678 CURVE SMOOTH",
"424 920 OFFCURVE",
"479 1267 OFFCURVE",
"762 1267 CURVE SMOOTH",
"903 1267 OFFCURVE",
"987 1184 OFFCURVE",
"1037 1072 CURVE",
"454 392 LINE"
);
}
);
width = 1526;
},
{
associatedMasterId = "FA6D65B5-4623-4FAC-A199-3F662257AC29";
components = (
{
name = acute.cap;
transform = "{1, 0, 0, 1, 540, 0}";
}
);
layerId = "CBD44848-52BD-4DC5-BFA6-577546B7224D";
paths = (
{
closed = 1;
nodes = (
"1102 -18 OFFCURVE",
"1376 282 OFFCURVE",
"1376 678 CURVE SMOOTH",
"1376 871 OFFCURVE",
"1309 1042 OFFCURVE",
"1199 1165 CURVE",
"1362 1355 LINE",
"1264 1355 LINE",
"1146 1218 LINE",
"1037 1315 OFFCURVE",
"896 1373 OFFCURVE",
"737 1373 CURVE SMOOTH",
"373 1373 OFFCURVE",
"99 1074 OFFCURVE",
"99 678 CURVE SMOOTH",
"99 488 OFFCURVE",
"162 319 OFFCURVE",
"268 195 CURVE",
"100 0 LINE",
"197 0 LINE",
"320 143 LINE",
"429 42 OFFCURVE",
"574 -18 OFFCURVE",
"737 -18 CURVE SMOOTH"
);
},
{
closed = 1;
nodes = (
"597 62 OFFCURVE",
"486 130 OFFCURVE",
"414 253 CURVE",
"1093 1042 LINE",
"1133 945 OFFCURVE",
"1155 825 OFFCURVE",
"1155 683 CURVE SMOOTH",
"1155 294 OFFCURVE",
"998 62 OFFCURVE",
"737 62 CURVE SMOOTH"
);
},
{
closed = 1;
nodes = (
"340 421 OFFCURVE",
"320 540 OFFCURVE",
"320 679 CURVE SMOOTH",
"320 1065 OFFCURVE",
"477 1294 OFFCURVE",
"739 1294 CURVE SMOOTH",
"876 1294 OFFCURVE",
"984 1230 OFFCURVE",
"1056 1114 CURVE",
"378 326 LINE"
);
}
);
width = 1473;
},
{
components = (
{
alignment = -1;
name = acute.cap;
transform = "{1, 0, 0, 1, 542.133, 0}";
}
);
layerId = "7C8D72FA-6E62-4564-8BB2-D9F9BC4EB15A";
paths = (
{
closed = 1;
nodes = (
"1115.6 -18 OFFCURVE",
"1385.6 283.867 OFFCURVE",
"1385.6 678 CURVE SMOOTH",
"1385.6 871.267 OFFCURVE",
"1318.867 1042.933 OFFCURVE",
"1207.4 1166.467 CURVE",
"1369.333 1355 LINE",
"1266.133 1355 LINE",
"1151.067 1221.467 LINE",
"1042.067 1316.2 OFFCURVE",
"900.933 1373 OFFCURVE",
"740.333 1373 CURVE SMOOTH",
"366.2 1373 OFFCURVE",
"96.067 1072.133 OFFCURVE",
"96.067 678 CURVE SMOOTH",
"96.067 486.933 OFFCURVE",
"159.467 316.6 OFFCURVE",
"267.733 192.2 CURVE",
"102.133 0 LINE",
"204.333 0 LINE",
"323.067 138.2 LINE",
"432.067 40.133 OFFCURVE",
"576.533 -18 OFFCURVE",
"740.333 -18 CURVE SMOOTH"
);
},
{
closed = 1;
nodes = (
"600.733 64.933 OFFCURVE",
"493.2 134.667 OFFCURVE",
"424.267 256.333 CURVE",
"1090.467 1030.533 LINE",
"1127.933 934.2 OFFCURVE",
"1147.933 816.867 OFFCURVE",
"1147.933 682.333 CURVE SMOOTH",
"1147.933 312.533 OFFCURVE",
"1004.533 64.933 OFFCURVE",
"740.333 64.933 CURVE SMOOTH"
);
},
{
closed = 1;
nodes = (
"352.133 429.933 OFFCURVE",
"333.867 546.667 OFFCURVE",
"333.867 678.867 CURVE SMOOTH",
"333.867 1045.667 OFFCURVE",
"477.267 1290.4 OFFCURVE",
"742.067 1290.4 CURVE SMOOTH",
"879.6 1290.4 OFFCURVE",
"984.4 1223.867 OFFCURVE",
"1053.467 1108.4 CURVE",
"388.133 334.8 LINE"
);
}
);
width = 1480.06667;
}
);
leftKerningGroup = O;
rightKerningGroup = O;
unicode = 01FE;
},
{
glyphname = OE;
layers = (
{
components = (
{
name = E;
transform = "{1, 0, 0, 1, 776, 0}";
}
);
layerId = "FA6D65B5-4623-4FAC-A199-3F662257AC29";
paths = (
{
closed = 1;
nodes = (
"926 -18 OFFCURVE",
"1060 25 OFFCURVE",
"1167 97 CURVE",
"1019 208 LINE",
"968 136 OFFCURVE",
"887 84 OFFCURVE",
"764 84 CURVE SMOOTH",
"480 84 OFFCURVE",
"426 433 OFFCURVE",
"426 678 CURVE SMOOTH",
"426 920 OFFCURVE",
"480 1267 OFFCURVE",
"764 1267 CURVE SMOOTH",
"899 1267 OFFCURVE",
"982 1206 OFFCURVE",
"1031 1121 CURVE",
"1179 1251 LINE",
"1070 1329 OFFCURVE",
"931 1373 OFFCURVE",
"764 1373 CURVE SMOOTH",
"324 1373 OFFCURVE",
"79 1060 OFFCURVE",
"79 678 CURVE SMOOTH",
"79 296 OFFCURVE",
"324 -18 OFFCURVE",
"764 -18 CURVE SMOOTH"
);
}
);
width = 2063;
},
{
associatedMasterId = "FA6D65B5-4623-4FAC-A199-3F662257AC29";
components = (
{
name = E;
transform = "{1, 0, 0, 1, 799, 0}";
}
);
layerId = "CBD44848-52BD-4DC5-BFA6-577546B7224D";
paths = (
{
closed = 1;
nodes = (
"876 -18 OFFCURVE",
"1017 11 OFFCURVE",
"1114 56 CURVE",
"1045 180 LINE",
"977 106 OFFCURVE",
"864 62 OFFCURVE",
"744 62 CURVE SMOOTH",
"475 62 OFFCURVE",
"319 287 OFFCURVE",
"319 679 CURVE SMOOTH",
"319 1070 OFFCURVE",
"473 1294 OFFCURVE",
"746 1294 CURVE SMOOTH",
"889 1294 OFFCURVE",
"1010 1232 OFFCURVE",
"1077 1126 CURVE",
"1126 1288 LINE",
"1024 1339 OFFCURVE",
"880 1373 OFFCURVE",
"752 1373 CURVE SMOOTH",
"371 1373 OFFCURVE",
"97 1082 OFFCURVE",
"97 678 CURVE SMOOTH",
"97 273 OFFCURVE",
"371 -18 OFFCURVE",
"752 -18 CURVE SMOOTH"
);
}
);
width = 2017;
},
{
components = (
{
alignment = -1;
name = E;
transform = "{1, 0, 0, 1, 795.933, 0}";
}
);
layerId = "7C8D72FA-6E62-4564-8BB2-D9F9BC4EB15A";
paths = (
{
closed = 1;
nodes = (
"882.667 -18 OFFCURVE",
"1022.733 12.867 OFFCURVE",
"1121.067 61.467 CURVE",
"1041.533 183.733 LINE",
"975.8 110 OFFCURVE",
"867.067 64.933 OFFCURVE",
"746.667 64.933 CURVE SMOOTH",
"475.667 64.933 OFFCURVE",
"333.267 306.467 OFFCURVE",
"333.267 678.867 CURVE SMOOTH",
"333.267 1050 OFFCURVE",
"473.933 1290.4 OFFCURVE",
"748.4 1290.4 CURVE SMOOTH",
"890.333 1290.4 OFFCURVE",
"1006.267 1228.533 OFFCURVE",
"1070.867 1125.333 CURVE",
"1133.067 1283.067 LINE",
"1030.133 1337.667 OFFCURVE",
"886.8 1373 OFFCURVE",
"753.6 1373 CURVE SMOOTH",
"364.733 1373 OFFCURVE",
"94.6 1079.067 OFFCURVE",
"94.6 678 CURVE SMOOTH",
"94.6 276.067 OFFCURVE",
"364.733 -18 OFFCURVE",
"753.6 -18 CURVE SMOOTH"
);
}
);
width = 2023.13333;
}
);
leftKerningGroup = O;
rightKerningGroup = E;
unicode = 0152;
},
{
glyphname = P;
layers = (
{
layerId = "FA6D65B5-4623-4FAC-A199-3F662257AC29";
paths = (
{
closed = 1;
nodes = (
"746 0 LINE",
"746 65 LINE",
"526 104 LINE",
"526 563 LINE",
"632 563 LINE SMOOTH",
"979 563 OFFCURVE",
"1177 706 OFFCURVE",
"1177 954 CURVE SMOOTH",
"1177 1200 OFFCURVE",
"977 1355 OFFCURVE",
"660 1355 CURVE SMOOTH",
"74 1355 LINE",
"74 1290 LINE",
"224 1253 LINE",
"224 104 LINE",
"74 65 LINE",
"74 0 LINE"
);
},
{
closed = 1;
nodes = (
"526 1260 LINE",
"570 1260 LINE SMOOTH",
"678 1260 OFFCURVE",
"744 1241 OFFCURVE",
"788 1197 CURVE SMOOTH",
"832 1153 OFFCURVE",
"855 1077 OFFCURVE",
"855 970 CURVE SMOOTH",
"855 855 OFFCURVE",
"831 781 OFFCURVE",
"776 730 CURVE SMOOTH",
"723 681 OFFCURVE",
"648 658 OFFCURVE",
"539 658 CURVE SMOOTH",
"526 658 LINE"
);
}
);
width = 1221;
},
{
associatedMasterId = "FA6D65B5-4623-4FAC-A199-3F662257AC29";
layerId = "CBD44848-52BD-4DC5-BFA6-577546B7224D";
paths = (
{
closed = 1;
nodes = (
"621 0 LINE",
"621 40 LINE",
"421 74 LINE",
"421 581 LINE",
"607 581 LINE SMOOTH",
"913 581 OFFCURVE",
"1104 711 OFFCURVE",
"1104 952 CURVE SMOOTH",
"1104 1213 OFFCURVE",
"910 1355 OFFCURVE",
"634 1355 CURVE SMOOTH",
"86 1355 LINE",
"86 1315 LINE",
"236 1281 LINE",
"236 74 LINE",
"86 40 LINE",
"86 0 LINE"
);
},
{
closed = 1;
nodes = (
"421 1285 LINE",
"583 1285 LINE SMOOTH",
"655 1285 OFFCURVE",
"700 1280 OFFCURVE",
"739 1264 CURVE SMOOTH",
"841 1223 OFFCURVE",
"901 1121 OFFCURVE",
"901 970 CURVE SMOOTH",
"901 887 OFFCURVE",
"884 806 OFFCURVE",
"831 744 CURVE SMOOTH",
"780 685 OFFCURVE",
"700 649 OFFCURVE",
"553 649 CURVE SMOOTH",
"421 649 LINE"
);
}
);
width = 1167;
},
{
layerId = "7C8D72FA-6E62-4564-8BB2-D9F9BC4EB15A";
paths = (
{
closed = 1;
nodes = (
"637.667 0 LINE",
"637.667 43.333 LINE",
"435 78 LINE",
"435 578.6 LINE",
"610.333 578.6 LINE SMOOTH",
"921.8 578.6 OFFCURVE",
"1113.733 710.333 OFFCURVE",
"1113.733 952.267 CURVE SMOOTH",
"1113.733 1211.267 OFFCURVE",
"918.933 1355 OFFCURVE",
"637.467 1355 CURVE SMOOTH",
"84.4 1355 LINE",
"84.4 1311.667 LINE",
"234.4 1277.267 LINE",
"234.4 78 LINE",
"84.4 43.333 LINE",
"84.4 0 LINE"
);
},
{
closed = 1;
nodes = (
"435 1281.667 LINE",
"581.267 1281.667 LINE SMOOTH",
"658.067 1281.667 OFFCURVE",
"705.867 1274.8 OFFCURVE",
"745.533 1255.067 CURVE SMOOTH",
"839.8 1213.667 OFFCURVE",
"894.867 1115.133 OFFCURVE",
"894.867 970 CURVE SMOOTH",
"894.867 882.733 OFFCURVE",
"876.933 802.667 OFFCURVE",
"823.667 742.133 CURVE SMOOTH",
"772.4 684.467 OFFCURVE",
"693.067 650.2 OFFCURVE",
"551.133 650.2 CURVE SMOOTH",
"435 650.2 LINE"
);
}
);
width = 1174.2;
}
);
leftKerningGroup = I;
unicode = 0050;
},
{
glyphname = Thorn;
layers = (
{
layerId = "FA6D65B5-4623-4FAC-A199-3F662257AC29";
paths = (
{
closed = 1;
nodes = (
"746 0 LINE",
"746 65 LINE",
"526 104 LINE",
"526 287 LINE",
"632 287 LINE SMOOTH",
"979 287 OFFCURVE",
"1177 429 OFFCURVE",
"1177 678 CURVE SMOOTH",
"1177 924 OFFCURVE",
"977 1079 OFFCURVE",
"660 1079 CURVE SMOOTH",
"526 1079 LINE",
"526 1251 LINE",
"746 1290 LINE",
"746 1355 LINE",
"74 1355 LINE",
"74 1290 LINE",
"224 1251 LINE",
"224 104 LINE",
"74 65 LINE",
"74 0 LINE"
);
},
{
closed = 1;
nodes = (
"526 984 LINE",
"570 984 LINE SMOOTH",
"678 984 OFFCURVE",
"744 964 OFFCURVE",
"788 920 CURVE SMOOTH",
"832 876 OFFCURVE",
"855 801 OFFCURVE",
"855 693 CURVE SMOOTH",
"855 579 OFFCURVE",
"831 505 OFFCURVE",
"776 454 CURVE SMOOTH",
"723 405 OFFCURVE",
"648 382 OFFCURVE",
"539 382 CURVE SMOOTH",
"526 382 LINE"
);
}
);
width = 1225;
},
{
associatedMasterId = "FA6D65B5-4623-4FAC-A199-3F662257AC29";
layerId = "CBD44848-52BD-4DC5-BFA6-577546B7224D";
paths = (
{
closed = 1;
nodes = (
"621 0 LINE",
"621 40 LINE",
"421 74 LINE",
"421 294 LINE",
"607 294 LINE SMOOTH",
"913 294 OFFCURVE",
"1104 424 OFFCURVE",
"1104 665 CURVE SMOOTH",
"1104 926 OFFCURVE",
"910 1068 OFFCURVE",
"634 1068 CURVE SMOOTH",
"421 1068 LINE",
"421 1281 LINE",
"621 1315 LINE",
"621 1355 LINE",
"86 1355 LINE",
"86 1315 LINE",
"236 1281 LINE",
"236 74 LINE",
"86 40 LINE",
"86 0 LINE"
);
},
{
closed = 1;
nodes = (
"421 998 LINE",
"583 998 LINE SMOOTH",
"655 998 OFFCURVE",
"700 993 OFFCURVE",
"739 977 CURVE SMOOTH",
"841 936 OFFCURVE",
"901 834 OFFCURVE",
"901 683 CURVE SMOOTH",
"901 600 OFFCURVE",
"884 519 OFFCURVE",
"831 458 CURVE SMOOTH",
"780 398 OFFCURVE",
"700 363 OFFCURVE",
"553 363 CURVE SMOOTH",
"421 363 LINE"
);
}
);
width = 1170;
},
{
layerId = "7C8D72FA-6E62-4564-8BB2-D9F9BC4EB15A";
paths = (
{
closed = 1;
nodes = (
"637.667 0 LINE",
"637.667 43.333 LINE",
"435 78 LINE",
"435 293.067 LINE",
"610.333 293.067 LINE SMOOTH",
"921.8 293.067 OFFCURVE",
"1113.733 424.667 OFFCURVE",
"1113.733 666.733 CURVE SMOOTH",
"1113.733 925.733 OFFCURVE",
"918.933 1069.467 OFFCURVE",
"637.467 1069.467 CURVE SMOOTH",
"435 1069.467 LINE",
"435 1277 LINE",
"637.667 1311.667 LINE",
"637.667 1355 LINE",
"84.4 1355 LINE",
"84.4 1311.667 LINE",
"234.4 1277 LINE",
"234.4 78 LINE",
"84.4 43.333 LINE",
"84.4 0 LINE"
);
},
{
closed = 1;
nodes = (
"435 996.133 LINE",
"581.267 996.133 LINE SMOOTH",
"658.067 996.133 OFFCURVE",
"705.867 989.133 OFFCURVE",
"745.533 969.4 CURVE SMOOTH",
"839.8 928 OFFCURVE",
"894.867 829.6 OFFCURVE",
"894.867 684.333 CURVE SMOOTH",
"894.867 597.2 OFFCURVE",
"876.933 517.133 OFFCURVE",
"823.667 457.467 CURVE SMOOTH",
"772.4 398.933 OFFCURVE",
"693.067 365.533 OFFCURVE",
"551.133 365.533 CURVE SMOOTH",
"435 365.533 LINE"
);
}
);
width = 1177.33333;
}
);
leftKerningGroup = I;
unicode = 00DE;
},
{
glyphname = Q;
layers = (
{
layerId = "FA6D65B5-4623-4FAC-A199-3F662257AC29";
paths = (
{
closed = 1;
nodes = (
"524 -343 OFFCURVE",
"579 -290 OFFCURVE",
"579 -222 CURVE SMOOTH",
"579 -169 OFFCURVE",
"546 -153 OFFCURVE",
"546 -113 CURVE SMOOTH",
"546 -65 OFFCURVE",
"590 -39 OFFCURVE",
"649 -39 CURVE SMOOTH",
"873 -39 OFFCURVE",
"917 -341 OFFCURVE",
"1148 -341 CURVE SMOOTH",
"1276 -341 OFFCURVE",
"1410 -246 OFFCURVE",
"1487 -60 CURVE",
"1434 -25 LINE",
"1378 -81 OFFCURVE",
"1322 -100 OFFCURVE",
"1250 -100 CURVE SMOOTH",
"1119 -100 OFFCURVE",
"1017 -42 OFFCURVE",
"910 -9 CURVE",
"910 -2 LINE",
"1255 62 OFFCURVE",
"1450 341 OFFCURVE",
"1450 678 CURVE SMOOTH",
"1450 1060 OFFCURVE",
"1206 1373 OFFCURVE",
"764 1373 CURVE SMOOTH",
"324 1373 OFFCURVE",
"79 1060 OFFCURVE",
"79 678 CURVE SMOOTH",
"79 373 OFFCURVE",
"243 113 OFFCURVE",
"528 19 CURVE",
"528 12 LINE",
"405 -37 OFFCURVE",
"329 -113 OFFCURVE",
"329 -208 CURVE SMOOTH",
"329 -285 OFFCURVE",
"378 -343 OFFCURVE",
"452 -343 CURVE SMOOTH"
);
},
{
closed = 1;
nodes = (
"480 67 OFFCURVE",
"426 426 OFFCURVE",
"426 674 CURVE SMOOTH",
"426 919 OFFCURVE",
"479 1267 OFFCURVE",
"766 1267 CURVE SMOOTH",
"1052 1267 OFFCURVE",
"1104 919 OFFCURVE",
"1104 678 CURVE SMOOTH",
"1104 426 OFFCURVE",
"1049 67 OFFCURVE",
"764 67 CURVE SMOOTH"
);
}
);
width = 1529;
},
{
associatedMasterId = "FA6D65B5-4623-4FAC-A199-3F662257AC29";
layerId = "CBD44848-52BD-4DC5-BFA6-577546B7224D";
paths = (
{
closed = 1;
nodes = (
"502 -282 OFFCURVE",
"540 -245 OFFCURVE",
"540 -194 CURVE SMOOTH",
"540 -150 OFFCURVE",
"510 -141 OFFCURVE",
"510 -100 CURVE SMOOTH",
"510 -56 OFFCURVE",
"544 -21 OFFCURVE",
"620 -21 CURVE SMOOTH",
"827 -21 OFFCURVE",
"889 -289 OFFCURVE",
"1109 -289 CURVE SMOOTH",
"1230 -289 OFFCURVE",
"1350 -208 OFFCURVE",
"1422 -42 CURVE",
"1375 -25 LINE",
"1327 -88 OFFCURVE",
"1281 -118 OFFCURVE",
"1202 -118 CURVE SMOOTH",
"1056 -118 OFFCURVE",
"945 -23 OFFCURVE",
"825 5 CURVE",
"825 12 LINE",
"1153 39 OFFCURVE",
"1375 327 OFFCURVE",
"1375 678 CURVE SMOOTH",
"1375 1074 OFFCURVE",
"1100 1373 OFFCURVE",
"736 1373 CURVE SMOOTH",
"371 1373 OFFCURVE",
"97 1074 OFFCURVE",
"97 678 CURVE SMOOTH",
"97 357 OFFCURVE",
"282 90 OFFCURVE",
"556 30 CURVE",
"556 23 LINE",
"436 -23 OFFCURVE",
"363 -100 OFFCURVE",
"363 -185 CURVE SMOOTH",
"363 -243 OFFCURVE",
"398 -282 OFFCURVE",
"451 -282 CURVE SMOOTH"
);
},
{
closed = 1;
nodes = (
"475 62 OFFCURVE",
"319 294 OFFCURVE",
"319 679 CURVE SMOOTH",
"319 1065 OFFCURVE",
"475 1294 OFFCURVE",
"737 1294 CURVE SMOOTH",
"998 1294 OFFCURVE",
"1153 1067 OFFCURVE",
"1153 681 CURVE SMOOTH",
"1153 294 OFFCURVE",
"996 62 OFFCURVE",
"736 62 CURVE SMOOTH"
);
}
);
width = 1471;
},
{
layerId = "7C8D72FA-6E62-4564-8BB2-D9F9BC4EB15A";
paths = (
{
closed = 1;
nodes = (
"504.933 -290.133 OFFCURVE",
"545.2 -251 OFFCURVE",
"545.2 -197.733 CURVE SMOOTH",
"545.2 -152.533 OFFCURVE",
"514.8 -142.6 OFFCURVE",
"514.8 -101.733 CURVE SMOOTH",
"514.8 -57.2 OFFCURVE",
"550.133 -23.4 OFFCURVE",
"623.867 -23.4 CURVE SMOOTH",
"833.133 -23.4 OFFCURVE",
"892.733 -295.933 OFFCURVE",
"1114.2 -295.933 CURVE SMOOTH",
"1236.133 -295.933 OFFCURVE",
"1358 -213.067 OFFCURVE",
"1430.667 -44.4 CURVE",
"1382.867 -25 LINE",
"1333.8 -87.067 OFFCURVE",
"1286.467 -115.6 OFFCURVE",
"1208.4 -115.6 CURVE SMOOTH",
"1064.4 -115.6 OFFCURVE",
"954.6 -25.533 OFFCURVE",
"836.333 3.133 CURVE",
"836.333 10.133 LINE",
"1166.6 42.067 OFFCURVE",
"1385 328.867 OFFCURVE",
"1385 678 CURVE SMOOTH",
"1385 1072.133 OFFCURVE",
"1114.133 1373 OFFCURVE",
"739.733 1373 CURVE SMOOTH",
"364.733 1373 OFFCURVE",
"94.6 1072.133 OFFCURVE",
"94.6 678 CURVE SMOOTH",
"94.6 359.133 OFFCURVE",
"276.8 93.067 OFFCURVE",
"552.267 28.533 CURVE",
"552.267 21.533 LINE",
"431.867 -24.867 OFFCURVE",
"358.467 -101.733 OFFCURVE",
"358.467 -188.067 CURVE SMOOTH",
"358.467 -248.6 OFFCURVE",
"395.333 -290.133 OFFCURVE",
"451.133 -290.133 CURVE SMOOTH"
);
},
{
closed = 1;
nodes = (
"475.667 62.667 OFFCURVE",
"333.267 311.6 OFFCURVE",
"333.267 678.333 CURVE SMOOTH",
"333.267 1045.533 OFFCURVE",
"475.533 1290.4 OFFCURVE",
"740.867 1290.4 CURVE SMOOTH",
"1005.2 1290.4 OFFCURVE",
"1146.467 1047.267 OFFCURVE",
"1146.467 680.6 CURVE SMOOTH",
"1146.467 311.6 OFFCURVE",
"1003.067 62.667 OFFCURVE",
"739.733 62.667 CURVE SMOOTH"
);
}
);
width = 1478.73333;
}
);
leftKerningGroup = O;
rightKerningGroup = O;
unicode = 0051;
},
{
glyphname = R;
layers = (
{
anchors = (
{
name = bottom;
position = "{767, 0}";
},
{
name = topcap;
position = "{638, 1461}";
}
);
layerId = "FA6D65B5-4623-4FAC-A199-3F662257AC29";
paths = (
{
closed = 1;
nodes = (
"727 0 LINE",
"727 65 LINE",
"526 104 LINE",
"526 590 LINE",
"598 590 LINE",
"952 0 LINE",
"1433 0 LINE",
"1433 65 LINE",
"1272 99 LINE",
"933 627 LINE",
"1089 683 OFFCURVE",
"1179 799 OFFCURVE",
"1179 970 CURVE SMOOTH",
"1179 1220 OFFCURVE",
"986 1355 OFFCURVE",
"709 1355 CURVE SMOOTH",
"74 1355 LINE",
"74 1290 LINE",
"224 1253 LINE",
"224 104 LINE",
"74 65 LINE",
"74 0 LINE"
);
},
{
closed = 1;
nodes = (
"526 1260 LINE",
"563 1260 LINE SMOOTH",
"635 1260 OFFCURVE",
"678 1253 OFFCURVE",
"718 1237 CURVE SMOOTH",
"808 1200 OFFCURVE",
"871 1114 OFFCURVE",
"871 987 CURVE SMOOTH",
"871 912 OFFCURVE",
"852 838 OFFCURVE",
"801 780 CURVE SMOOTH",
"752 722 OFFCURVE",
"679 685 OFFCURVE",
"551 685 CURVE SMOOTH",
"526 685 LINE"
);
}
);
width = 1369;
},
{
anchors = (
{
name = bottom;
position = "{697, 0}";
},
{
name = topcap;
position = "{648, 1461}";
}
);
associatedMasterId = "FA6D65B5-4623-4FAC-A199-3F662257AC29";
layerId = "CBD44848-52BD-4DC5-BFA6-577546B7224D";
paths = (
{
closed = 1;
nodes = (
"621 0 LINE",
"621 40 LINE",
"421 74 LINE",
"421 616 LINE",
"590 616 LINE",
"984 0 LINE",
"1366 0 LINE",
"1366 40 LINE",
"1165 74 LINE",
"790 637 LINE",
"977 681 OFFCURVE",
"1086 794 OFFCURVE",
"1086 970 CURVE SMOOTH",
"1086 1220 OFFCURVE",
"892 1355 OFFCURVE",
"616 1355 CURVE SMOOTH",
"86 1355 LINE",
"86 1315 LINE",
"236 1281 LINE",
"236 74 LINE",
"86 40 LINE",
"86 0 LINE"
);
},
{
closed = 1;
nodes = (
"421 1285 LINE",
"565 1285 LINE SMOOTH",
"637 1285 OFFCURVE",
"681 1280 OFFCURVE",
"722 1264 CURVE SMOOTH",
"824 1223 OFFCURVE",
"884 1130 OFFCURVE",
"884 987 CURVE SMOOTH",
"884 912 OFFCURVE",
"864 838 OFFCURVE",
"813 780 CURVE SMOOTH",
"760 722 OFFCURVE",
"683 685 OFFCURVE",
"535 685 CURVE SMOOTH",
"421 685 LINE"
);
}
);
width = 1290;
},
{
anchors = (
{
name = bottom;
position = "{706.333, 0}";
},
{
name = topcap;
position = "{646.667, 1461}";
}
);
layerId = "7C8D72FA-6E62-4564-8BB2-D9F9BC4EB15A";
paths = (
{
closed = 1;
nodes = (
"635.133 0 LINE",
"635.133 43.333 LINE",
"435 78 LINE",
"435 612.533 LINE",
"591.067 612.533 LINE",
"979.733 0 LINE",
"1374.933 0 LINE",
"1374.933 43.333 LINE",
"1179.267 77.333 LINE",
"809.067 635.667 LINE",
"991.933 681.267 OFFCURVE",
"1098.4 794.667 OFFCURVE",
"1098.4 970 CURVE SMOOTH",
"1098.4 1220 OFFCURVE",
"904.533 1355 OFFCURVE",
"628.4 1355 CURVE SMOOTH",
"84.4 1355 LINE",
"84.4 1311.667 LINE",
"234.4 1277.267 LINE",
"234.4 78 LINE",
"84.4 43.333 LINE",
"84.4 0 LINE"
);
},
{
closed = 1;
nodes = (
"435 1281.667 LINE",
"564.733 1281.667 LINE SMOOTH",
"636.733 1281.667 OFFCURVE",
"680.6 1276.4 OFFCURVE",
"721.467 1260.4 CURVE SMOOTH",
"821.867 1219.933 OFFCURVE",
"882.267 1127.867 OFFCURVE",
"882.267 987 CURVE SMOOTH",
"882.267 912 OFFCURVE",
"862.4 838 OFFCURVE",
"811.4 780 CURVE SMOOTH",
"758.933 722 OFFCURVE",
"682.467 685 OFFCURVE",
"537.133 685 CURVE SMOOTH",
"435 685 LINE"
);
}
);
width = 1300.53333;
}
);
leftKerningGroup = I;
rightKerningGroup = R;
unicode = 0052;
},
{
glyphname = S;
layers = (
{
anchors = (
{
name = bottom;
position = "{573, 0}";
},
{
name = topcap;
position = "{572, 1461}";
}
);
layerId = "FA6D65B5-4623-4FAC-A199-3F662257AC29";
paths = (
{
closed = 1;
nodes = (
"841 -16 OFFCURVE",
"1049 157 OFFCURVE",
"1049 384 CURVE SMOOTH",
"1049 869 OFFCURVE",
"391 836 OFFCURVE",
"391 1102 CURVE SMOOTH",
"391 1206 OFFCURVE",
"463 1269 OFFCURVE",
"584 1269 CURVE SMOOTH",
"755 1269 OFFCURVE",
"866 1167 OFFCURVE",
"924 968 CURVE",
"1001 968 LINE",
"984 1357 LINE",
"926 1357 LINE",
"884 1264 LINE",
"796 1338 OFFCURVE",
"695 1373 OFFCURVE",
"574 1373 CURVE SMOOTH",
"317 1373 OFFCURVE",
"123 1216 OFFCURVE",
"123 1001 CURVE SMOOTH",
"123 524 OFFCURVE",
"811 547 OFFCURVE",
"811 287 CURVE SMOOTH",
"811 162 OFFCURVE",
"716 86 OFFCURVE",
"567 86 CURVE SMOOTH",
"359 86 OFFCURVE",
"243 199 OFFCURVE",
"167 463 CURVE",
"93 451 LINE",
"128 0 LINE",
"183 0 LINE",
"245 72 LINE",
"363 11 OFFCURVE",
"461 -16 OFFCURVE",
"570 -16 CURVE SMOOTH"
);
}
);
width = 1139;
},
{
anchors = (
{
name = bottom;
position = "{533, 0}";
},
{
name = topcap;
position = "{542, 1461}";
}
);
associatedMasterId = "FA6D65B5-4623-4FAC-A199-3F662257AC29";
layerId = "CBD44848-52BD-4DC5-BFA6-577546B7224D";
paths = (
{
closed = 1;
nodes = (
"766 -16 OFFCURVE",
"949 157 OFFCURVE",
"949 382 CURVE SMOOTH",
"949 801 OFFCURVE",
"324 753 OFFCURVE",
"324 1096 CURVE SMOOTH",
"324 1221 OFFCURVE",
"407 1297 OFFCURVE",
"540 1297 CURVE SMOOTH",
"700 1297 OFFCURVE",
"803 1192 OFFCURVE",
"859 968 CURVE",
"905 968 LINE",
"889 1355 LINE",
"854 1355 LINE",
"797 1264 LINE",
"720 1338 OFFCURVE",
"637 1373 OFFCURVE",
"532 1373 CURVE SMOOTH",
"308 1373 OFFCURVE",
"139 1214 OFFCURVE",
"139 1001 CURVE SMOOTH",
"139 586 OFFCURVE",
"787 625 OFFCURVE",
"787 278 CURVE SMOOTH",
"787 143 OFFCURVE",
"686 60 OFFCURVE",
"524 60 CURVE SMOOTH",
"333 60 OFFCURVE",
"225 178 OFFCURVE",
"155 461 CURVE",
"111 451 LINE",
"143 0 LINE",
"178 0 LINE",
"248 72 LINE",
"348 11 OFFCURVE",
"435 -16 OFFCURVE",
"530 -16 CURVE SMOOTH"
);
}
);
width = 1054;
},
{
anchors = (
{
name = bottom;
position = "{538.333, 0}";
},
{
name = topcap;
position = "{546, 1461}";
}
);
layerId = "7C8D72FA-6E62-4564-8BB2-D9F9BC4EB15A";
paths = (
{
closed = 1;
nodes = (
"776 -16 OFFCURVE",
"962.333 157 OFFCURVE",
"962.333 382.267 CURVE SMOOTH",
"962.333 810.067 OFFCURVE",
"332.933 764.067 OFFCURVE",
"332.933 1096.8 CURVE SMOOTH",
"332.933 1219 OFFCURVE",
"414.467 1293.267 OFFCURVE",
"545.867 1293.267 CURVE SMOOTH",
"707.333 1293.267 OFFCURVE",
"811.4 1188.667 OFFCURVE",
"867.667 968 CURVE",
"917.8 968 LINE",
"901.667 1355.267 LINE",
"863.6 1355.267 LINE",
"808.6 1264 LINE",
"730.133 1338 OFFCURVE",
"644.733 1373 OFFCURVE",
"537.6 1373 CURVE SMOOTH",
"309.2 1373 OFFCURVE",
"136.867 1214.267 OFFCURVE",
"136.867 1001 CURVE SMOOTH",
"136.867 577.733 OFFCURVE",
"790.2 614.6 OFFCURVE",
"790.2 279.2 CURVE SMOOTH",
"790.2 145.533 OFFCURVE",
"690 63.467 OFFCURVE",
"529.733 63.467 CURVE SMOOTH",
"336.467 63.467 OFFCURVE",
"227.4 180.8 OFFCURVE",
"156.6 461.267 CURVE",
"108.6 451 LINE",
"141 0 LINE",
"178.667 0 LINE",
"247.6 72 LINE",
"350 11 OFFCURVE",
"438.467 -16 OFFCURVE",
"535.333 -16 CURVE SMOOTH"
);
}
);
width = 1065.33333;
}
);
leftKerningGroup = S;
rightKerningGroup = S;
unicode = 0053;
},
{
glyphname = Schwa;
layers = (
{
layerId = "FA6D65B5-4623-4FAC-A199-3F662257AC29";
paths = (
{
closed = 1;
nodes = (
"1033 -18 OFFCURVE",
"1313 269 OFFCURVE",
"1313 697 CURVE SMOOTH",
"1313 1102 OFFCURVE",
"1063 1375 OFFCURVE",
"695 1375 CURVE SMOOTH",
"435 1375 OFFCURVE",
"197 1239 OFFCURVE",
"120 1044 CURVE SMOOTH",
"106 1008 LINE",
"158 973 LINE",
"190 1012 LINE SMOOTH",
"278 1119 OFFCURVE",
"436 1190 OFFCURVE",
"593 1190 CURVE SMOOTH",
"845 1190 OFFCURVE",
"970 1005 OFFCURVE",
"970 634 CURVE SMOOTH",
"970 276 OFFCURVE",
"854 88 OFFCURVE",
"632 88 CURVE SMOOTH",
"475 88 OFFCURVE",
"389 185 OFFCURVE",
"389 361 CURVE SMOOTH",
"389 391 OFFCURVE",
"392 428 OFFCURVE",
"396 456 CURVE",
"1100 480 LINE",
"1100 570 LINE",
"77 570 LINE",
"58 554 LINE",
"63 187 OFFCURVE",
"260 -18 OFFCURVE",
"614 -18 CURVE SMOOTH"
);
}
);
width = 1394;
},
{
associatedMasterId = "FA6D65B5-4623-4FAC-A199-3F662257AC29";
layerId = "CBD44848-52BD-4DC5-BFA6-577546B7224D";
paths = (
{
closed = 1;
nodes = (
"994 -18 OFFCURVE",
"1260 273 OFFCURVE",
"1260 699 CURVE SMOOTH",
"1260 1102 OFFCURVE",
"1023 1375 OFFCURVE",
"672 1375 CURVE SMOOTH",
"424 1375 OFFCURVE",
"206 1243 OFFCURVE",
"125 1044 CURVE SMOOTH",
"111 1008 LINE",
"153 982 LINE",
"183 1021 LINE SMOOTH",
"285 1156 OFFCURVE",
"422 1225 OFFCURVE",
"593 1225 CURVE SMOOTH",
"882 1225 OFFCURVE",
"1038 1016 OFFCURVE",
"1038 635 CURVE SMOOTH",
"1038 266 OFFCURVE",
"891 62 OFFCURVE",
"621 62 CURVE SMOOTH",
"419 62 OFFCURVE",
"313 167 OFFCURVE",
"313 368 CURVE SMOOTH",
"313 419 OFFCURVE",
"320 454 OFFCURVE",
"320 477 CURVE",
"1058 502 LINE",
"1058 570 LINE",
"100 570 LINE",
"83 554 LINE",
"90 180 OFFCURVE",
"269 -18 OFFCURVE",
"602 -18 CURVE SMOOTH"
);
}
);
width = 1359;
},
{
layerId = "7C8D72FA-6E62-4564-8BB2-D9F9BC4EB15A";
paths = (
{
closed = 1;
nodes = (
"999.2 -18 OFFCURVE",
"1267.067 272.467 OFFCURVE",
"1267.067 698.733 CURVE SMOOTH",
"1267.067 1102 OFFCURVE",
"1028.333 1375 OFFCURVE",
"675.067 1375 CURVE SMOOTH",
"425.467 1375 OFFCURVE",
"204.8 1242.467 OFFCURVE",
"124.333 1044 CURVE SMOOTH",
"110.333 1008 LINE",
"153.667 980.8 LINE",
"183.933 1019.8 LINE SMOOTH",
"284.067 1151.067 OFFCURVE",
"423.867 1220.333 OFFCURVE",
"593 1220.333 CURVE SMOOTH",
"877.067 1220.333 OFFCURVE",
"1028.933 1014.533 OFFCURVE",
"1028.933 634.867 CURVE SMOOTH",
"1028.933 267.333 OFFCURVE",
"886.067 65.467 OFFCURVE",
"622.467 65.467 CURVE SMOOTH",
"426.467 65.467 OFFCURVE",
"323.133 169.4 OFFCURVE",
"323.133 367.067 CURVE SMOOTH",
"323.133 415.267 OFFCURVE",
"329.6 450.533 OFFCURVE",
"330.133 474.2 CURVE",
"1063.6 499.067 LINE",
"1063.6 570 LINE",
"96.933 570 LINE",
"79.667 554 LINE",
"86.4 180.933 OFFCURVE",
"267.8 -18 OFFCURVE",
"603.6 -18 CURVE SMOOTH"
);
}
);
width = 1363.66667;
}
);
rightKerningGroup = O;
unicode = 018F;
},
{
glyphname = T;
layers = (
{
anchors = (
{
name = bottom;
position = "{685, -4}";
},
{
name = topcap;
position = "{685, 1461}";
}
);
layerId = "FA6D65B5-4623-4FAC-A199-3F662257AC29";
paths = (
{
closed = 1;
nodes = (
"1047 0 LINE",
"1047 65 LINE",
"838 104 LINE",
"838 1258 LINE",
"1125 1258 LINE",
"1200 1162 OFFCURVE",
"1246 1047 OFFCURVE",
"1281 950 CURVE",
"1350 950 LINE",
"1285 1355 LINE",
"84 1355 LINE",
"19 950 LINE",
"88 950 LINE",
"123 1047 OFFCURVE",
"174 1162 OFFCURVE",
"250 1258 CURVE",
"537 1258 LINE",
"537 104 LINE",
"326 65 LINE",
"326 0 LINE"
);
}
);
width = 1369;
},
{
anchors = (
{
name = bottom;
position = "{667, -4}";
},
{
name = topcap;
position = "{667, 1461}";
}
);
associatedMasterId = "FA6D65B5-4623-4FAC-A199-3F662257AC29";
layerId = "CBD44848-52BD-4DC5-BFA6-577546B7224D";
paths = (
{
closed = 1;
nodes = (
"950 0 LINE",
"950 40 LINE",
"759 74 LINE",
"759 1285 LINE",
"1107 1285 LINE",
"1183 1184 OFFCURVE",
"1234 1068 OFFCURVE",
"1269 968 CURVE",
"1311 968 LINE",
"1246 1355 LINE",
"81 1355 LINE",
"16 968 LINE",
"58 968 LINE",
"93 1068 OFFCURVE",
"144 1184 OFFCURVE",
"220 1285 CURVE",
"574 1285 LINE",
"574 74 LINE",
"380 40 LINE",
"380 0 LINE"
);
}
);
width = 1327;
},
{
anchors = (
{
name = bottom;
position = "{669.4, -4}";
},
{
name = topcap;
position = "{669.4, 1461}";
}
);
layerId = "7C8D72FA-6E62-4564-8BB2-D9F9BC4EB15A";
paths = (
{
closed = 1;
nodes = (
"962.933 0 LINE",
"962.933 43.333 LINE",
"769.533 78 LINE",
"769.533 1281.4 LINE",
"1109.4 1281.4 LINE",
"1185.267 1181.067 OFFCURVE",
"1235.6 1065.2 OFFCURVE",
"1270.6 965.6 CURVE",
"1316.2 965.6 LINE",
"1251.2 1355 LINE",
"81.4 1355 LINE",
"16.4 965.6 LINE",
"62 965.6 LINE",
"97 1065.2 OFFCURVE",
"148 1181.067 OFFCURVE",
"224 1281.4 CURVE",
"569.067 1281.4 LINE",
"569.067 78 LINE",
"372.8 43.333 LINE",
"372.8 0 LINE"
);
}
);
width = 1332.6;
}
);
leftKerningGroup = T;
rightKerningGroup = T;
unicode = 0054;
},
{
glyphname = Tbar;
layers = (
{
components = (
{
name = T;
transform = "{1, 0, 0, 1, 2, 0}";
}
);
layerId = "FA6D65B5-4623-4FAC-A199-3F662257AC29";
paths = (
{
closed = 1;
nodes = (
"1121 646 LINE",
"1121 796 LINE",
"259 796 LINE",
"259 646 LINE"
);
}
);
width = 1373;
},
{
associatedMasterId = "FA6D65B5-4623-4FAC-A199-3F662257AC29";
components = (
{
name = T;
}
);
layerId = "CBD44848-52BD-4DC5-BFA6-577546B7224D";
paths = (
{
closed = 1;
nodes = (
"1040 664 LINE",
"1040 778 LINE",
"292 778 LINE",
"292 664 LINE"
);
}
);
width = 1327;
},
{
components = (
{
alignment = -1;
name = T;
transform = "{1, 0, 0, 1, 0.267, 0}";
}
);
layerId = "7C8D72FA-6E62-4564-8BB2-D9F9BC4EB15A";
paths = (
{
closed = 1;
nodes = (
"1050.8 661.6 LINE",
"1050.8 780.4 LINE",
"287.6 780.4 LINE",
"287.6 661.6 LINE"
);
}
);
width = 1333.13333;
}
);
leftKerningGroup = T;
rightKerningGroup = T;
unicode = 0166;
},
{
glyphname = U;
layers = (
{
anchors = (
{
name = bottom;
position = "{796, 0}";
},
{
name = topcap;
position = "{820, 1461}";
}
);
layerId = "FA6D65B5-4623-4FAC-A199-3F662257AC29";
paths = (
{
closed = 1;
nodes = (
"949 -18 OFFCURVE",
"1088 44 OFFCURVE",
"1169 169 CURVE SMOOTH",
"1221 252 OFFCURVE",
"1250 364 OFFCURVE",
"1250 498 CURVE SMOOTH",
"1250 1257 LINE",
"1406 1290 LINE",
"1406 1355 LINE",
"973 1355 LINE",
"973 1290 LINE",
"1128 1257 LINE",
"1128 598 LINE SMOOTH",
"1128 394 OFFCURVE",
"1105 278 OFFCURVE",
"1051 202 CURVE SMOOTH",
"998 130 OFFCURVE",
"915 92 OFFCURVE",
"808 92 CURVE SMOOTH",
"612 92 OFFCURVE",
"502 231 OFFCURVE",
"502 470 CURVE SMOOTH",
"502 1257 LINE",
"656 1290 LINE",
"656 1355 LINE",
"46 1355 LINE",
"46 1290 LINE",
"195 1257 LINE",
"195 470 LINE SMOOTH",
"195 324 OFFCURVE",
"216 239 OFFCURVE",
"271 171 CURVE SMOOTH",
"364 49 OFFCURVE",
"532 -18 OFFCURVE",
"744 -18 CURVE SMOOTH"
);
}
);
width = 1445;
},
{
anchors = (
{
name = bottom;
position = "{706, 0}";
},
{
name = topcap;
position = "{750, 1461}";
}
);
associatedMasterId = "FA6D65B5-4623-4FAC-A199-3F662257AC29";
layerId = "CBD44848-52BD-4DC5-BFA6-577546B7224D";
paths = (
{
closed = 1;
nodes = (
"869 -18 OFFCURVE",
"1008 40 OFFCURVE",
"1077 141 CURVE SMOOTH",
"1123 209 OFFCURVE",
"1144 306 OFFCURVE",
"1144 454 CURVE SMOOTH",
"1144 1281 LINE",
"1302 1315 LINE",
"1302 1355 LINE",
"917 1355 LINE",
"917 1315 LINE",
"1074 1281 LINE",
"1074 528 LINE SMOOTH",
"1074 341 OFFCURVE",
"1054 234 OFFCURVE",
"1007 171 CURVE SMOOTH",
"954 99 OFFCURVE",
"855 62 OFFCURVE",
"729 62 CURVE SMOOTH",
"530 62 OFFCURVE",
"401 176 OFFCURVE",
"401 400 CURVE SMOOTH",
"401 1281 LINE",
"558 1315 LINE",
"558 1355 LINE",
"58 1355 LINE",
"58 1315 LINE",
"216 1281 LINE",
"216 426 LINE SMOOTH",
"216 280 OFFCURVE",
"239 206 OFFCURVE",
"285 144 CURVE SMOOTH",
"363 42 OFFCURVE",
"510 -18 OFFCURVE",
"692 -18 CURVE SMOOTH"
);
}
);
width = 1362;
},
{
anchors = (
{
name = bottom;
position = "{718, 0}";
},
{
name = topcap;
position = "{759.333, 1461}";
}
);
layerId = "7C8D72FA-6E62-4564-8BB2-D9F9BC4EB15A";
paths = (
{
closed = 1;
nodes = (
"879.667 -18 OFFCURVE",
"1018.667 40.533 OFFCURVE",
"1089.267 144.733 CURVE SMOOTH",
"1136.067 214.733 OFFCURVE",
"1158.133 313.733 OFFCURVE",
"1158.133 459.867 CURVE SMOOTH",
"1158.133 1277.8 LINE",
"1315.867 1311.667 LINE",
"1315.867 1355 LINE",
"924.467 1355 LINE",
"924.467 1311.667 LINE",
"1081.2 1277.8 LINE",
"1081.2 537.333 LINE SMOOTH",
"1081.2 348.067 OFFCURVE",
"1060.8 239.867 OFFCURVE",
"1012.867 175.133 CURVE SMOOTH",
"959.867 103.133 OFFCURVE",
"863 66 OFFCURVE",
"739.533 66 CURVE SMOOTH",
"540.933 66 OFFCURVE",
"414.467 183.333 OFFCURVE",
"414.467 409.333 CURVE SMOOTH",
"414.467 1277.8 LINE",
"571.067 1311.667 LINE",
"571.067 1355 LINE",
"56.4 1355 LINE",
"56.4 1311.667 LINE",
"213.2 1277.8 LINE",
"213.2 431.867 LINE SMOOTH",
"213.2 285.867 OFFCURVE",
"235.933 210.4 OFFCURVE",
"283.133 147.6 CURVE SMOOTH",
"363.133 42.933 OFFCURVE",
"512.933 -18 OFFCURVE",
"698.933 -18 CURVE SMOOTH"
);
}
);
width = 1373.06667;
}
);
leftKerningGroup = U;
rightKerningGroup = U;
unicode = 0055;
},
{
glyphname = V;
layers = (
{
layerId = "FA6D65B5-4623-4FAC-A199-3F662257AC29";
paths = (
{
closed = 1;
nodes = (
"736 -18 LINE",
"1170 1095 LINE SMOOTH",
"1227 1239 OFFCURVE",
"1258 1265 OFFCURVE",
"1417 1290 CURVE",
"1417 1355 LINE",
"873 1355 LINE",
"873 1290 LINE",
"1017 1271 OFFCURVE",
"1068 1241 OFFCURVE",
"1068 1177 CURVE SMOOTH",
"1068 1156 OFFCURVE",
"1063 1130 OFFCURVE",
"1051 1098 CURVE SMOOTH",
"801 447 LINE",
"790 447 LINE",
"528 1172 LINE SMOOTH",
"521 1192 OFFCURVE",
"517 1207 OFFCURVE",
"517 1221 CURVE SMOOTH",
"517 1265 OFFCURVE",
"560 1281 OFFCURVE",
"690 1290 CURVE",
"690 1355 LINE",
"-35 1355 LINE",
"-35 1290 LINE",
"90 1281 OFFCURVE",
"121 1262 OFFCURVE",
"155 1183 CURVE SMOOTH",
"651 -18 LINE"
);
}
);
width = 1375;
},
{
associatedMasterId = "FA6D65B5-4623-4FAC-A199-3F662257AC29";
layerId = "CBD44848-52BD-4DC5-BFA6-577546B7224D";
paths = (
{
closed = 1;
nodes = (
"655 -18 LINE",
"1058 1119 LINE SMOOTH",
"1102 1244 OFFCURVE",
"1126 1287 OFFCURVE",
"1313 1315 CURVE",
"1313 1355 LINE",
"818 1355 LINE",
"818 1315 LINE",
"952 1297 OFFCURVE",
"998 1265 OFFCURVE",
"998 1206 CURVE SMOOTH",
"998 1183 OFFCURVE",
"991 1155 OFFCURVE",
"980 1123 CURVE SMOOTH",
"702 322 LINE",
"693 322 LINE",
"396 1179 LINE SMOOTH",
"385 1211 OFFCURVE",
"373 1243 OFFCURVE",
"373 1260 CURVE SMOOTH",
"373 1299 OFFCURVE",
"400 1306 OFFCURVE",
"558 1315 CURVE",
"558 1355 LINE",
"-14 1355 LINE",
"-14 1315 LINE",
"109 1306 OFFCURVE",
"136 1288 OFFCURVE",
"165 1207 CURVE SMOOTH",
"625 -18 LINE"
);
}
);
width = 1269;
},
{
layerId = "7C8D72FA-6E62-4564-8BB2-D9F9BC4EB15A";
paths = (
{
closed = 1;
nodes = (
"665.8 -18 LINE",
"1072.933 1115.8 LINE SMOOTH",
"1118.667 1243.333 OFFCURVE",
"1143.6 1284.067 OFFCURVE",
"1326.867 1311.667 CURVE",
"1326.867 1355 LINE",
"825.333 1355 LINE",
"825.333 1311.667 LINE",
"960.667 1293.533 OFFCURVE",
"1007.333 1261.8 OFFCURVE",
"1007.333 1202.133 CURVE SMOOTH",
"1007.333 1179.4 OFFCURVE",
"1000.6 1151.667 OFFCURVE",
"989.467 1119.667 CURVE SMOOTH",
"715.2 338.667 LINE",
"705.933 338.667 LINE",
"413.6 1178.067 LINE SMOOTH",
"403.133 1208.467 OFFCURVE",
"392.2 1238.2 OFFCURVE",
"392.2 1254.8 CURVE SMOOTH",
"392.2 1294.467 OFFCURVE",
"421.333 1302.667 OFFCURVE",
"575.6 1311.667 CURVE",
"575.6 1355 LINE",
"-16.8 1355 LINE",
"-16.8 1311.667 LINE",
"106.467 1302.667 OFFCURVE",
"134 1284.533 OFFCURVE",
"163.667 1203.8 CURVE SMOOTH",
"628.467 -18 LINE"
);
}
);
width = 1283.13333;
}
);
unicode = 0056;
},
{
glyphname = W;
layers = (
{
anchors = (
{
name = topcap;
position = "{1117, 1461}";
}
);
layerId = "FA6D65B5-4623-4FAC-A199-3F662257AC29";
paths = (
{
closed = 1;
nodes = (
"716 -18 LINE",
"1065 875 LINE",
"1415 -18 LINE",
"1500 -18 LINE",
"1934 1095 LINE SMOOTH",
"1989 1237 OFFCURVE",
"2028 1267 OFFCURVE",
"2181 1290 CURVE",
"2181 1355 LINE",
"1637 1355 LINE",
"1637 1290 LINE",
"1783 1272 OFFCURVE",
"1834 1241 OFFCURVE",
"1834 1181 CURVE SMOOTH",
"1834 1158 OFFCURVE",
"1825 1126 OFFCURVE",
"1815 1098 CURVE SMOOTH",
"1565 447 LINE",
"1554 447 LINE",
"1318 1172 LINE SMOOTH",
"1311 1192 OFFCURVE",
"1308 1209 OFFCURVE",
"1308 1223 CURVE SMOOTH",
"1308 1269 OFFCURVE",
"1352 1283 OFFCURVE",
"1480 1290 CURVE",
"1480 1355 LINE",
"755 1355 LINE",
"755 1290 LINE",
"880 1281 OFFCURVE",
"913 1262 OFFCURVE",
"945 1183 CURVE SMOOTH",
"1005 1030 LINE",
"781 447 LINE",
"771 447 LINE",
"535 1172 LINE SMOOTH",
"528 1192 OFFCURVE",
"524 1209 OFFCURVE",
"524 1223 CURVE SMOOTH",
"524 1265 OFFCURVE",
"547 1281 OFFCURVE",
"697 1290 CURVE",
"697 1355 LINE",
"-28 1355 LINE",
"-28 1290 LINE",
"97 1281 OFFCURVE",
"130 1262 OFFCURVE",
"162 1183 CURVE SMOOTH",
"632 -18 LINE"
);
}
);
width = 2133;
},
{
anchors = (
{
name = topcap;
position = "{956, 1461}";
}
);
associatedMasterId = "FA6D65B5-4623-4FAC-A199-3F662257AC29";
layerId = "CBD44848-52BD-4DC5-BFA6-577546B7224D";
paths = (
{
closed = 1;
nodes = (
"656 -18 LINE",
"950 903 LINE",
"1295 -18 LINE",
"1336 -18 LINE",
"1698 1119 LINE SMOOTH",
"1739 1246 OFFCURVE",
"1767 1287 OFFCURVE",
"1954 1315 CURVE",
"1954 1355 LINE",
"1459 1355 LINE",
"1459 1315 LINE",
"1595 1295 OFFCURVE",
"1637 1267 OFFCURVE",
"1637 1207 CURVE SMOOTH",
"1637 1181 OFFCURVE",
"1632 1156 OFFCURVE",
"1621 1123 CURVE SMOOTH",
"1373 322 LINE",
"1364 322 LINE",
"1067 1179 LINE SMOOTH",
"1054 1213 OFFCURVE",
"1047 1237 OFFCURVE",
"1047 1257 CURVE SMOOTH",
"1047 1292 OFFCURVE",
"1060 1304 OFFCURVE",
"1228 1315 CURVE",
"1228 1355 LINE",
"656 1355 LINE",
"656 1315 LINE",
"780 1306 OFFCURVE",
"806 1288 OFFCURVE",
"836 1207 CURVE SMOOTH",
"908 1014 LINE",
"693 322 LINE",
"685 322 LINE",
"387 1179 LINE SMOOTH",
"370 1228 OFFCURVE",
"364 1244 OFFCURVE",
"364 1262 CURVE SMOOTH",
"364 1294 OFFCURVE",
"384 1302 OFFCURVE",
"549 1315 CURVE",
"549 1355 LINE",
"-23 1355 LINE",
"-23 1315 LINE",
"100 1306 OFFCURVE",
"127 1288 OFFCURVE",
"157 1207 CURVE SMOOTH",
"616 -18 LINE"
);
}
);
width = 1918;
},
{
anchors = (
{
name = topcap;
position = "{977.467, 1461}";
}
);
layerId = "7C8D72FA-6E62-4564-8BB2-D9F9BC4EB15A";
paths = (
{
closed = 1;
nodes = (
"664 -18 LINE",
"965.333 899.267 LINE",
"1311 -18 LINE",
"1357.867 -18 LINE",
"1729.467 1115.8 LINE SMOOTH",
"1772.333 1244.8 OFFCURVE",
"1801.8 1284.333 OFFCURVE",
"1984.267 1311.667 CURVE",
"1984.267 1355 LINE",
"1482.733 1355 LINE",
"1482.733 1311.667 LINE",
"1620.067 1291.933 OFFCURVE",
"1663.267 1263.533 OFFCURVE",
"1663.267 1203.533 CURVE SMOOTH",
"1663.267 1177.933 OFFCURVE",
"1657.733 1152 OFFCURVE",
"1646.867 1119.667 CURVE SMOOTH",
"1398.6 338.667 LINE",
"1389.333 338.667 LINE",
"1100.467 1178.067 LINE SMOOTH",
"1088.267 1210.2 OFFCURVE",
"1081.8 1233.267 OFFCURVE",
"1081.8 1252.467 CURVE SMOOTH",
"1081.8 1288.933 OFFCURVE",
"1098.933 1301.2 OFFCURVE",
"1261.6 1311.667 CURVE",
"1261.6 1355 LINE",
"669.2 1355 LINE",
"669.2 1311.667 LINE",
"793.333 1302.667 OFFCURVE",
"820.267 1284.533 OFFCURVE",
"850.533 1203.8 CURVE SMOOTH",
"920.933 1016.133 LINE",
"704.733 338.667 LINE",
"696.467 338.667 LINE",
"406.733 1178.067 LINE SMOOTH",
"391.067 1223.2 OFFCURVE",
"385.333 1239.333 OFFCURVE",
"385.333 1256.8 CURVE SMOOTH",
"385.333 1290.133 OFFCURVE",
"405.733 1299.2 OFFCURVE",
"568.733 1311.667 CURVE",
"568.733 1355 LINE",
"-23.667 1355 LINE",
"-23.667 1311.667 LINE",
"99.6 1302.667 OFFCURVE",
"127.4 1284.533 OFFCURVE",
"157.667 1203.8 CURVE SMOOTH",
"618.133 -18 LINE"
);
}
);
width = 1946.66667;
}
);
leftKerningGroup = W;
rightKerningGroup = W;
unicode = 0057;
},
{
glyphname = X;
layers = (
{
layerId = "FA6D65B5-4623-4FAC-A199-3F662257AC29";
paths = (
{
closed = 1;
nodes = (
"505 0 LINE",
"505 65 LINE",
"403 76 OFFCURVE",
"357 93 OFFCURVE",
"357 123 CURVE SMOOTH",
"357 139 OFFCURVE",
"366 164 OFFCURVE",
"387 192 CURVE SMOOTH",
"658 558 LINE",
"926 160 LINE SMOOTH",
"947 128 OFFCURVE",
"954 111 OFFCURVE",
"954 100 CURVE SMOOTH",
"954 81 OFFCURVE",
"920 74 OFFCURVE",
"781 65 CURVE",
"781 0 LINE",
"1512 0 LINE",
"1512 65 LINE",
"1403 74 OFFCURVE",
"1357 88 OFFCURVE",
"1322 141 CURVE SMOOTH",
"894 780 LINE",
"1186 1169 LINE SMOOTH",
"1241 1241 OFFCURVE",
"1276 1264 OFFCURVE",
"1427 1290 CURVE",
"1427 1355 LINE",
"933 1355 LINE",
"933 1290 LINE",
"1037 1280 OFFCURVE",
"1081 1258 OFFCURVE",
"1081 1227 CURVE SMOOTH",
"1081 1207 OFFCURVE",
"1070 1188 OFFCURVE",
"1052 1163 CURVE SMOOTH",
"834 869 LINE",
"618 1195 LINE SMOOTH",
"600 1223 OFFCURVE",
"595 1237 OFFCURVE",
"595 1253 CURVE SMOOTH",
"595 1276 OFFCURVE",
"625 1285 OFFCURVE",
"752 1290 CURVE",
"752 1355 LINE",
"18 1355 LINE",
"18 1290 LINE",
"162 1272 OFFCURVE",
"188 1260 OFFCURVE",
"220 1214 CURVE SMOOTH",
"597 651 LINE",
"253 190 LINE SMOOTH",
"199 116 OFFCURVE",
"139 84 OFFCURVE",
"-12 65 CURVE",
"-12 0 LINE"
);
}
);
width = 1478;
},
{
associatedMasterId = "FA6D65B5-4623-4FAC-A199-3F662257AC29";
layerId = "CBD44848-52BD-4DC5-BFA6-577546B7224D";
paths = (
{
closed = 1;
nodes = (
"459 0 LINE",
"459 35 LINE",
"357 46 OFFCURVE",
"312 63 OFFCURVE",
"312 93 CURVE SMOOTH",
"312 109 OFFCURVE",
"320 134 OFFCURVE",
"341 162 CURVE SMOOTH",
"665 597 LINE",
"970 134 LINE SMOOTH",
"991 102 OFFCURVE",
"998 86 OFFCURVE",
"998 74 CURVE SMOOTH",
"998 55 OFFCURVE",
"972 48 OFFCURVE",
"861 39 CURVE",
"861 0 LINE",
"1389 0 LINE",
"1389 39 LINE",
"1280 48 OFFCURVE",
"1234 62 OFFCURVE",
"1199 114 CURVE SMOOTH",
"788 741 LINE",
"1125 1193 LINE",
"1192 1272 OFFCURVE",
"1239 1292 OFFCURVE",
"1366 1315 CURVE",
"1366 1355 LINE",
"929 1355 LINE",
"929 1315 LINE",
"1021 1304 OFFCURVE",
"1060 1283 OFFCURVE",
"1060 1251 CURVE SMOOTH",
"1060 1232 OFFCURVE",
"1049 1213 OFFCURVE",
"1031 1188 CURVE SMOOTH",
"748 803 LINE",
"475 1220 LINE SMOOTH",
"458 1248 OFFCURVE",
"452 1264 OFFCURVE",
"452 1280 CURVE SMOOTH",
"452 1299 OFFCURVE",
"470 1309 OFFCURVE",
"574 1315 CURVE",
"574 1355 LINE",
"42 1355 LINE",
"42 1315 LINE",
"181 1299 OFFCURVE",
"215 1285 OFFCURVE",
"245 1239 CURVE SMOOTH",
"621 664 LINE",
"248 160 LINE SMOOTH",
"188 79 OFFCURVE",
"118 53 OFFCURVE",
"-18 35 CURVE",
"-18 0 LINE"
);
}
);
width = 1385;
},
{
layerId = "7C8D72FA-6E62-4564-8BB2-D9F9BC4EB15A";
paths = (
{
closed = 1;
nodes = (
"465.133 0 LINE",
"465.133 39 LINE",
"363.133 50 OFFCURVE",
"318 67 OFFCURVE",
"318 97 CURVE SMOOTH",
"318 113 OFFCURVE",
"326.133 138 OFFCURVE",
"347.133 166 CURVE SMOOTH",
"664.067 591.8 LINE",
"964.133 137.467 LINE SMOOTH",
"985.133 105.467 OFFCURVE",
"992.133 89.333 OFFCURVE",
"992.133 77.467 CURVE SMOOTH",
"992.133 58.467 OFFCURVE",
"965.067 51.467 OFFCURVE",
"850.333 42.467 CURVE",
"850.333 0 LINE",
"1405.4 0 LINE",
"1405.4 42.467 LINE",
"1296.4 51.467 OFFCURVE",
"1250.4 65.467 OFFCURVE",
"1215.4 117.6 CURVE SMOOTH",
"802.133 746.2 LINE",
"1133.133 1189.8 LINE",
"1198.533 1267.867 OFFCURVE",
"1243.933 1288.267 OFFCURVE",
"1374.133 1311.667 CURVE",
"1374.133 1355 LINE",
"929.533 1355 LINE",
"929.533 1311.667 LINE",
"1023.133 1300.8 OFFCURVE",
"1062.8 1279.667 OFFCURVE",
"1062.8 1247.8 CURVE SMOOTH",
"1062.8 1228.667 OFFCURVE",
"1051.8 1209.667 OFFCURVE",
"1033.8 1184.667 CURVE SMOOTH",
"759.467 811.8 LINE",
"494.067 1216.667 LINE SMOOTH",
"476.933 1244.667 OFFCURVE",
"471.067 1260.4 OFFCURVE",
"471.067 1276.4 CURVE SMOOTH",
"471.067 1295.933 OFFCURVE",
"490.667 1305.8 OFFCURVE",
"597.733 1311.667 CURVE",
"597.733 1355 LINE",
"38.8 1355 LINE",
"38.8 1311.667 LINE",
"178.467 1295.4 OFFCURVE",
"211.4 1281.667 OFFCURVE",
"241.667 1235.667 CURVE SMOOTH",
"617.8 662.267 LINE",
"248.667 164 LINE SMOOTH",
"189.467 83.933 OFFCURVE",
"120.8 57.133 OFFCURVE",
"-17.2 39 CURVE",
"-17.2 0 LINE"
);
}
);
width = 1397.4;
}
);
unicode = 0058;
},
{
glyphname = Y;
layers = (
{
anchors = (
{
name = topcap;
position = "{752, 1461}";
}
);
layerId = "FA6D65B5-4623-4FAC-A199-3F662257AC29";
paths = (
{
closed = 1;
nodes = (
"957 0 LINE",
"957 65 LINE",
"810 102 LINE",
"810 588 LINE",
"1082 1095 LINE SMOOTH",
"1174 1264 OFFCURVE",
"1192 1278 OFFCURVE",
"1338 1290 CURVE",
"1338 1355 LINE",
"806 1355 LINE",
"806 1290 LINE",
"950 1287 OFFCURVE",
"1001 1260 OFFCURVE",
"1001 1204 CURVE SMOOTH",
"1001 1179 OFFCURVE",
"991 1142 OFFCURVE",
"968 1098 CURVE SMOOTH",
"766 713 LINE",
"759 713 LINE",
"533 1155 LINE SMOOTH",
"523 1174 OFFCURVE",
"517 1190 OFFCURVE",
"517 1206 CURVE SMOOTH",
"517 1248 OFFCURVE",
"553 1280 OFFCURVE",
"695 1290 CURVE",
"695 1355 LINE",
"-32 1355 LINE",
"-32 1290 LINE",
"92 1281 OFFCURVE",
"121 1271 OFFCURVE",
"171 1183 CURVE SMOOTH",
"507 590 LINE",
"507 102 LINE",
"357 65 LINE",
"357 0 LINE"
);
}
);
width = 1311;
},
{
anchors = (
{
name = topcap;
position = "{702, 1461}";
}
);
associatedMasterId = "FA6D65B5-4623-4FAC-A199-3F662257AC29";
layerId = "CBD44848-52BD-4DC5-BFA6-577546B7224D";
paths = (
{
closed = 1;
nodes = (
"869 0 LINE",
"869 40 LINE",
"713 74 LINE",
"713 544 LINE",
"1023 1119 LINE SMOOTH",
"1086 1236 OFFCURVE",
"1091 1287 OFFCURVE",
"1278 1315 CURVE",
"1278 1355 LINE",
"781 1355 LINE",
"781 1315 LINE",
"903 1306 OFFCURVE",
"964 1264 OFFCURVE",
"964 1199 CURVE SMOOTH",
"964 1176 OFFCURVE",
"957 1151 OFFCURVE",
"943 1123 CURVE SMOOTH",
"699 660 LINE",
"692 660 LINE",
"401 1179 LINE SMOOTH",
"387 1206 OFFCURVE",
"378 1230 OFFCURVE",
"378 1250 CURVE SMOOTH",
"378 1285 OFFCURVE",
"410 1306 OFFCURVE",
"563 1315 CURVE",
"563 1355 LINE",
"-14 1355 LINE",
"-14 1315 LINE",
"109 1306 OFFCURVE",
"128 1281 OFFCURVE",
"171 1207 CURVE SMOOTH",
"528 576 LINE",
"528 74 LINE",
"370 40 LINE",
"370 0 LINE"
);
}
);
width = 1248;
},
{
anchors = (
{
name = topcap;
position = "{708.667, 1461}";
}
);
layerId = "7C8D72FA-6E62-4564-8BB2-D9F9BC4EB15A";
paths = (
{
closed = 1;
nodes = (
"880.733 0 LINE",
"880.733 43.333 LINE",
"725.933 77.733 LINE",
"725.933 549.867 LINE",
"1030.867 1115.8 LINE SMOOTH",
"1097.733 1239.733 OFFCURVE",
"1104.467 1285.8 OFFCURVE",
"1286 1311.667 CURVE",
"1286 1355 LINE",
"784.333 1355 LINE",
"784.333 1311.667 LINE",
"909.267 1303.467 OFFCURVE",
"968.933 1263.467 OFFCURVE",
"968.933 1199.667 CURVE SMOOTH",
"968.933 1176.4 OFFCURVE",
"961.533 1149.8 OFFCURVE",
"946.333 1119.667 CURVE SMOOTH",
"707.933 667.067 LINE",
"700.933 667.067 LINE",
"418.6 1175.8 LINE SMOOTH",
"405.133 1201.733 OFFCURVE",
"396.533 1224.667 OFFCURVE",
"396.533 1244.133 CURVE SMOOTH",
"396.533 1280.067 OFFCURVE",
"429.067 1302.533 OFFCURVE",
"580.6 1311.667 CURVE",
"580.6 1355 LINE",
"-16.4 1355 LINE",
"-16.4 1311.667 LINE",
"106.733 1302.667 OFFCURVE",
"127.067 1279.667 OFFCURVE",
"171 1203.8 CURVE SMOOTH",
"525.2 577.867 LINE",
"525.2 77.733 LINE",
"368.267 43.333 LINE",
"368.267 0 LINE"
);
}
);
width = 1256.4;
}
);
leftKerningGroup = Y;
rightKerningGroup = Y;
unicode = 0059;
},
{
glyphname = Z;
layers = (
{
anchors = (
{
name = bottom;
position = "{560, 0}";
},
{
name = topcap;
position = "{683, 1461}";
}
);
layerId = "FA6D65B5-4623-4FAC-A199-3F662257AC29";
paths = (
{
closed = 1;
nodes = (
"1119 0 LINE",
"1230 461 LINE",
"1156 461 LINE",
"1125 382 OFFCURVE",
"1068 253 OFFCURVE",
"986 128 CURVE SMOOTH",
"964 97 LINE",
"456 97 LINE",
"1195 1290 LINE",
"1195 1355 LINE",
"174 1355 LINE",
"84 952 LINE",
"157 952 LINE",
"174 1005 OFFCURVE",
"213 1095 OFFCURVE",
"282 1220 CURVE SMOOTH",
"303 1258 LINE",
"783 1258 LINE",
"48 67 LINE",
"48 0 LINE"
);
}
);
width = 1285;
},
{
anchors = (
{
name = bottom;
position = "{560, 0}";
},
{
name = topcap;
position = "{628, 1461}";
}
);
associatedMasterId = "FA6D65B5-4623-4FAC-A199-3F662257AC29";
layerId = "CBD44848-52BD-4DC5-BFA6-577546B7224D";
paths = (
{
closed = 1;
nodes = (
"1021 0 LINE",
"1112 429 LINE",
"1067 435 LINE",
"1035 356 OFFCURVE",
"979 227 OFFCURVE",
"896 102 CURVE SMOOTH",
"875 70 LINE",
"287 70 LINE",
"1096 1308 LINE",
"1096 1355 LINE",
"181 1355 LINE",
"107 972 LINE",
"153 970 LINE",
"171 1023 OFFCURVE",
"211 1121 OFFCURVE",
"280 1246 CURVE SMOOTH",
"301 1285 LINE",
"861 1285 LINE",
"55 49 LINE",
"55 0 LINE"
);
}
);
width = 1190;
},
{
anchors = (
{
name = bottom;
position = "{560, 0}";
},
{
name = topcap;
position = "{635.333, 1461}";
}
);
layerId = "7C8D72FA-6E62-4564-8BB2-D9F9BC4EB15A";
paths = (
{
closed = 1;
nodes = (
"1034.067 0 LINE",
"1127.733 433.267 LINE",
"1078.867 438.467 LINE",
"1047 359.467 OFFCURVE",
"990.867 230.467 OFFCURVE",
"908 105.467 CURVE SMOOTH",
"886.867 73.6 LINE",
"309.533 73.6 LINE",
"1109.2 1305.6 LINE",
"1109.2 1355 LINE",
"180.067 1355 LINE",
"103.933 969.333 LINE",
"153.533 967.6 LINE",
"171.4 1020.6 OFFCURVE",
"211.267 1117.533 OFFCURVE",
"280.267 1242.533 CURVE SMOOTH",
"301.267 1281.4 LINE",
"850.6 1281.4 LINE",
"54.067 51.4 LINE",
"54.067 0 LINE"
);
}
);
width = 1202.66667;
}
);
leftKerningGroup = Z;
rightKerningGroup = Z;
unicode = 005A;
},
{
glyphname = a;
layers = (
{
anchors = (
{
name = bottom;
position = "{711, 0}";
},
{
name = top;
position = "{454, 1146}";
}
);
layerId = "FA6D65B5-4623-4FAC-A199-3F662257AC29";
paths = (
{
closed = 1;
nodes = (
"407 -18 OFFCURVE",
"500 26 OFFCURVE",
"588 121 CURVE",
"595 121 LINE",
"612 28 OFFCURVE",
"669 -18 OFFCURVE",
"783 -18 CURVE SMOOTH",
"884 -18 OFFCURVE",
"964 19 OFFCURVE",
"1040 100 CURVE",
"1000 158 LINE",
"975 130 OFFCURVE",
"949 116 OFFCURVE",
"922 116 CURVE SMOOTH",
"875 116 OFFCURVE",
"855 160 OFFCURVE",
"855 264 CURVE SMOOTH",
"855 627 LINE SMOOTH",
"855 757 OFFCURVE",
"843 818 OFFCURVE",
"815 862 CURVE SMOOTH",
"776 920 OFFCURVE",
"700 950 OFFCURVE",
"574 950 CURVE SMOOTH",
"447 950 OFFCURVE",
"331 920 OFFCURVE",
"241 862 CURVE SMOOTH",
"153 804 OFFCURVE",
"102 727 OFFCURVE",
"102 653 CURVE SMOOTH",
"102 583 OFFCURVE",
"150 533 OFFCURVE",
"218 533 CURVE SMOOTH",
"287 533 OFFCURVE",
"340 584 OFFCURVE",
"340 651 CURVE SMOOTH",
"340 676 OFFCURVE",
"333 702 OFFCURVE",
"333 729 CURVE SMOOTH",
"333 803 OFFCURVE",
"387 848 OFFCURVE",
"475 848 CURVE SMOOTH",
"560 848 OFFCURVE",
"583 806 OFFCURVE",
"583 646 CURVE SMOOTH",
"583 517 LINE",
"227 468 OFFCURVE",
"67 366 OFFCURVE",
"67 190 CURVE SMOOTH",
"67 60 OFFCURVE",
"155 -18 OFFCURVE",
"299 -18 CURVE SMOOTH"
);
},
{
closed = 1;
nodes = (
"392 148 OFFCURVE",
"361 185 OFFCURVE",
"361 262 CURVE SMOOTH",
"361 361 OFFCURVE",
"412 401 OFFCURVE",
"583 435 CURVE",
"583 199 LINE",
"551 165 OFFCURVE",
"509 148 OFFCURVE",
"461 148 CURVE SMOOTH"
);
}
);
width = 1030;
},
{
anchors = (
{
name = bottom;
position = "{722, 0}";
},
{
name = top;
position = "{465, 1146}";
}
);
associatedMasterId = "FA6D65B5-4623-4FAC-A199-3F662257AC29";
layerId = "CBD44848-52BD-4DC5-BFA6-577546B7224D";
paths = (
{
closed = 1;
nodes = (
"400 -18 OFFCURVE",
"503 44 OFFCURVE",
"572 144 CURVE",
"577 141 LINE",
"590 33 OFFCURVE",
"641 -18 OFFCURVE",
"734 -18 CURVE SMOOTH",
"810 -18 OFFCURVE",
"862 16 OFFCURVE",
"917 100 CURVE",
"887 127 LINE",
"857 90 OFFCURVE",
"834 76 OFFCURVE",
"801 76 CURVE SMOOTH",
"750 76 OFFCURVE",
"736 107 OFFCURVE",
"736 224 CURVE SMOOTH",
"736 627 LINE SMOOTH",
"736 774 OFFCURVE",
"732 817 OFFCURVE",
"713 857 CURVE SMOOTH",
"683 917 OFFCURVE",
"609 950 OFFCURVE",
"509 950 CURVE SMOOTH",
"433 950 OFFCURVE",
"354 931 OFFCURVE",
"285 896 CURVE SMOOTH",
"171 838 OFFCURVE",
"95 748 OFFCURVE",
"95 671 CURVE SMOOTH",
"95 620 OFFCURVE",
"128 586 OFFCURVE",
"176 586 CURVE SMOOTH",
"229 586 OFFCURVE",
"268 628 OFFCURVE",
"268 688 CURVE SMOOTH",
"268 708 OFFCURVE",
"264 730 OFFCURVE",
"264 750 CURVE SMOOTH",
"264 832 OFFCURVE",
"327 884 OFFCURVE",
"428 884 CURVE SMOOTH",
"530 884 OFFCURVE",
"568 829 OFFCURVE",
"568 681 CURVE SMOOTH",
"568 509 LINE",
"215 433 OFFCURVE",
"86 350 OFFCURVE",
"86 197 CURVE SMOOTH",
"86 70 OFFCURVE",
"172 -18 OFFCURVE",
"297 -18 CURVE SMOOTH"
);
},
{
closed = 1;
nodes = (
"290 86 OFFCURVE",
"243 139 OFFCURVE",
"243 234 CURVE SMOOTH",
"243 356 OFFCURVE",
"320 408 OFFCURVE",
"568 458 CURVE",
"568 204 LINE",
"523 130 OFFCURVE",
"451 86 OFFCURVE",
"375 86 CURVE SMOOTH"
);
}
);
width = 924;
},
{
anchors = (
{
name = bottom;
position = "{720.533, 0}";
},
{
name = top;
position = "{463.533, 1146}";
}
);
layerId = "7C8D72FA-6E62-4564-8BB2-D9F9BC4EB15A";
paths = (
{
closed = 1;
nodes = (
"400.933 -18 OFFCURVE",
"502.6 41.6 OFFCURVE",
"574.133 140.933 CURVE",
"579.4 138.333 LINE",
"592.933 32.333 OFFCURVE",
"644.733 -18 OFFCURVE",
"740.533 -18 CURVE SMOOTH",
"819.867 -18 OFFCURVE",
"875.6 16.4 OFFCURVE",
"933.4 100 CURVE",
"902.067 131.133 LINE",
"872.733 95.333 OFFCURVE",
"849.333 81.333 OFFCURVE",
"817.133 81.333 CURVE SMOOTH",
"766.667 81.333 OFFCURVE",
"751.867 114.067 OFFCURVE",
"751.867 229.333 CURVE SMOOTH",
"751.867 627 LINE SMOOTH",
"751.867 771.733 OFFCURVE",
"746.8 817.133 OFFCURVE",
"726.6 857.667 CURVE SMOOTH",
"695.4 917.4 OFFCURVE",
"621.133 950 OFFCURVE",
"517.667 950 CURVE SMOOTH",
"434.867 950 OFFCURVE",
"350.933 929.533 OFFCURVE",
"279.133 891.467 CURVE SMOOTH",
"168.6 833.467 OFFCURVE",
"95.933 745.2 OFFCURVE",
"95.933 668.6 CURVE SMOOTH",
"95.933 615.067 OFFCURVE",
"130.933 578.933 OFFCURVE",
"181.6 578.933 CURVE SMOOTH",
"236.733 578.933 OFFCURVE",
"277.6 622.133 OFFCURVE",
"277.6 683.067 CURVE SMOOTH",
"277.6 703.733 OFFCURVE",
"273.2 726.267 OFFCURVE",
"273.2 747.2 CURVE SMOOTH",
"273.2 828.133 OFFCURVE",
"335 879.2 OFFCURVE",
"434.267 879.2 CURVE SMOOTH",
"534 879.2 OFFCURVE",
"570 825.933 OFFCURVE",
"570 676.333 CURVE SMOOTH",
"570 510.067 LINE",
"216.6 437.667 OFFCURVE",
"83.467 352.133 OFFCURVE",
"83.467 196.067 CURVE SMOOTH",
"83.467 68.667 OFFCURVE",
"169.733 -18 OFFCURVE",
"297.267 -18 CURVE SMOOTH"
);
},
{
closed = 1;
nodes = (
"303.6 94.267 OFFCURVE",
"258.733 145.133 OFFCURVE",
"258.733 237.733 CURVE SMOOTH",
"258.733 356.667 OFFCURVE",
"332.267 407.067 OFFCURVE",
"570 454.933 CURVE",
"570 203.333 LINE",
"526.733 134.667 OFFCURVE",
"458.733 94.267 OFFCURVE",
"386.467 94.267 CURVE SMOOTH"
);
}
);
width = 938.13333;
}
);
leftKerningGroup = a;
rightKerningGroup = a;
unicode = 0061;
userData = {
com.typemytype.robofont.guides = (
{
angle = 359.5;
isGlobal = 0;
magnetic = 5;
x = 0;
y = 84;
}
);
};
},
{
glyphname = ae;
layers = (
{
layerId = "FA6D65B5-4623-4FAC-A199-3F662257AC29";
paths = (
{
closed = 1;
nodes = (
"433 -18 OFFCURVE",
"537 35 OFFCURVE",
"664 162 CURVE",
"671 162 LINE",
"755 46 OFFCURVE",
"894 -18 OFFCURVE",
"1061 -18 CURVE SMOOTH",
"1262 -18 OFFCURVE",
"1424 76 OFFCURVE",
"1489 231 CURVE SMOOTH",
"1498 252 LINE",
"1448 294 LINE",
"1436 280 LINE SMOOTH",
"1373 208 OFFCURVE",
"1264 164 OFFCURVE",
"1149 164 CURVE SMOOTH",
"966 164 OFFCURVE",
"875 278 OFFCURVE",
"873 510 CURVE",
"1514 510 LINE",
"1528 521 LINE",
"1519 804 OFFCURVE",
"1375 950 OFFCURVE",
"1109 950 CURVE SMOOTH",
"993 950 OFFCURVE",
"891 924 OFFCURVE",
"806 871 CURVE",
"755 928 OFFCURVE",
"688 950 OFFCURVE",
"576 950 CURVE SMOOTH",
"444 950 OFFCURVE",
"327 919 OFFCURVE",
"241 862 CURVE SMOOTH",
"155 804 OFFCURVE",
"102 723 OFFCURVE",
"102 651 CURVE SMOOTH",
"102 583 OFFCURVE",
"150 533 OFFCURVE",
"218 533 CURVE SMOOTH",
"287 533 OFFCURVE",
"340 584 OFFCURVE",
"340 651 CURVE SMOOTH",
"340 676 OFFCURVE",
"333 702 OFFCURVE",
"333 729 CURVE SMOOTH",
"333 803 OFFCURVE",
"387 848 OFFCURVE",
"475 848 CURVE SMOOTH",
"560 848 OFFCURVE",
"583 806 OFFCURVE",
"583 646 CURVE SMOOTH",
"583 517 LINE",
"225 468 OFFCURVE",
"67 366 OFFCURVE",
"67 188 CURVE SMOOTH",
"67 58 OFFCURVE",
"153 -18 OFFCURVE",
"306 -18 CURVE SMOOTH"
);
},
{
closed = 1;
nodes = (
"401 148 OFFCURVE",
"361 188 OFFCURVE",
"361 257 CURVE SMOOTH",
"361 348 OFFCURVE",
"429 405 OFFCURVE",
"581 435 CURVE",
"583 363 OFFCURVE",
"598 290 OFFCURVE",
"628 229 CURVE",
"572 174 OFFCURVE",
"519 148 OFFCURVE",
"466 148 CURVE SMOOTH"
);
},
{
closed = 1;
nodes = (
"891 766 OFFCURVE",
"966 861 OFFCURVE",
"1088 861 CURVE SMOOTH",
"1188 861 OFFCURVE",
"1243 796 OFFCURVE",
"1243 678 CURVE SMOOTH",
"1243 651 OFFCURVE",
"1239 625 OFFCURVE",
"1236 607 CURVE",
"876 593 LINE"
);
}
);
width = 1580;
},
{
associatedMasterId = "FA6D65B5-4623-4FAC-A199-3F662257AC29";
layerId = "CBD44848-52BD-4DC5-BFA6-577546B7224D";
paths = (
{
closed = 1;
nodes = (
"408 -18 OFFCURVE",
"539 60 OFFCURVE",
"623 190 CURVE",
"630 190 LINE",
"700 60 OFFCURVE",
"829 -18 OFFCURVE",
"991 -18 CURVE SMOOTH",
"1163 -18 OFFCURVE",
"1308 70 OFFCURVE",
"1369 213 CURVE SMOOTH",
"1380 238 LINE",
"1350 255 LINE",
"1329 229 LINE SMOOTH",
"1269 155 OFFCURVE",
"1162 111 OFFCURVE",
"1047 111 CURVE SMOOTH",
"838 111 OFFCURVE",
"744 245 OFFCURVE",
"744 542 CURVE",
"1387 542 LINE",
"1399 553 LINE",
"1394 813 OFFCURVE",
"1269 950 OFFCURVE",
"1038 950 CURVE SMOOTH",
"910 950 OFFCURVE",
"803 908 OFFCURVE",
"722 834 CURVE",
"692 917 OFFCURVE",
"609 950 OFFCURVE",
"509 950 CURVE SMOOTH",
"433 950 OFFCURVE",
"354 931 OFFCURVE",
"285 896 CURVE SMOOTH",
"171 838 OFFCURVE",
"95 748 OFFCURVE",
"95 671 CURVE SMOOTH",
"95 620 OFFCURVE",
"128 586 OFFCURVE",
"176 586 CURVE SMOOTH",
"229 586 OFFCURVE",
"268 628 OFFCURVE",
"268 688 CURVE SMOOTH",
"268 708 OFFCURVE",
"264 730 OFFCURVE",
"264 750 CURVE SMOOTH",
"264 832 OFFCURVE",
"327 884 OFFCURVE",
"428 884 CURVE SMOOTH",
"530 884 OFFCURVE",
"568 829 OFFCURVE",
"568 681 CURVE SMOOTH",
"568 509 LINE",
"213 433 OFFCURVE",
"86 350 OFFCURVE",
"86 195 CURVE SMOOTH",
"86 70 OFFCURVE",
"174 -18 OFFCURVE",
"299 -18 CURVE SMOOTH"
);
},
{
closed = 1;
nodes = (
"290 86 OFFCURVE",
"243 141 OFFCURVE",
"243 234 CURVE SMOOTH",
"243 356 OFFCURVE",
"320 408 OFFCURVE",
"568 458 CURVE",
"568 375 OFFCURVE",
"581 304 OFFCURVE",
"605 243 CURVE",
"547 150 OFFCURVE",
"454 86 OFFCURVE",
"373 86 CURVE SMOOTH"
);
},
{
closed = 1;
nodes = (
"771 787 OFFCURVE",
"868 896 OFFCURVE",
"1023 896 CURVE SMOOTH",
"1149 896 OFFCURVE",
"1214 822 OFFCURVE",
"1214 678 CURVE SMOOTH",
"1214 649 OFFCURVE",
"1213 620 OFFCURVE",
"1209 607 CURVE",
"748 591 LINE"
);
}
);
width = 1471;
},
{
layerId = "7C8D72FA-6E62-4564-8BB2-D9F9BC4EB15A";
paths = (
{
closed = 1;
nodes = (
"411.333 -18 OFFCURVE",
"538.733 56.667 OFFCURVE",
"628.467 186.267 CURVE",
"635.467 186.267 LINE",
"707.333 58.133 OFFCURVE",
"837.667 -18 OFFCURVE",
"1000.333 -18 CURVE SMOOTH",
"1176.2 -18 OFFCURVE",
"1323.467 70.8 OFFCURVE",
"1385 215.4 CURVE SMOOTH",
"1395.733 239.867 LINE",
"1363.067 260.2 LINE",
"1343.267 235.8 LINE SMOOTH",
"1282.867 162.067 OFFCURVE",
"1175.6 118.067 OFFCURVE",
"1060.6 118.067 CURVE SMOOTH",
"855.067 118.067 OFFCURVE",
"761.467 249.4 OFFCURVE",
"761.2 537.733 CURVE",
"1403.933 537.733 LINE",
"1416.2 548.733 LINE",
"1410.667 811.8 OFFCURVE",
"1283.133 950 OFFCURVE",
"1047.467 950 CURVE SMOOTH",
"921.067 950 OFFCURVE",
"814.733 910.133 OFFCURVE",
"733.2 838.933 CURVE",
"700.4 918.467 OFFCURVE",
"619.533 950 OFFCURVE",
"517.933 950 CURVE SMOOTH",
"434.467 950 OFFCURVE",
"350.4 929.4 OFFCURVE",
"279.133 891.467 CURVE SMOOTH",
"168.867 833.467 OFFCURVE",
"95.933 744.667 OFFCURVE",
"95.933 668.333 CURVE SMOOTH",
"95.933 615.067 OFFCURVE",
"130.933 578.933 OFFCURVE",
"181.6 578.933 CURVE SMOOTH",
"236.733 578.933 OFFCURVE",
"277.6 622.133 OFFCURVE",
"277.6 683.067 CURVE SMOOTH",
"277.6 703.733 OFFCURVE",
"273.2 726.267 OFFCURVE",
"273.2 747.2 CURVE SMOOTH",
"273.2 828.133 OFFCURVE",
"335 879.2 OFFCURVE",
"434.267 879.2 CURVE SMOOTH",
"534 879.2 OFFCURVE",
"570 825.933 OFFCURVE",
"570 676.333 CURVE SMOOTH",
"570 510.067 LINE",
"214.6 437.667 OFFCURVE",
"83.467 352.133 OFFCURVE",
"83.467 194.067 CURVE SMOOTH",
"83.467 68.4 OFFCURVE",
"171.2 -18 OFFCURVE",
"299.933 -18 CURVE SMOOTH"
);
},
{
closed = 1;
nodes = (
"304.8 94.267 OFFCURVE",
"258.733 147.267 OFFCURVE",
"258.733 237.067 CURVE SMOOTH",
"258.733 354.933 OFFCURVE",
"334.533 407.6 OFFCURVE",
"569.733 454.933 CURVE",
"570 373.4 OFFCURVE",
"583.267 302.133 OFFCURVE",
"608.067 241.133 CURVE",
"550.333 153.2 OFFCURVE",
"462.667 94.267 OFFCURVE",
"385.4 94.267 CURVE SMOOTH"
);
},
{
closed = 1;
nodes = (
"787 784.2 OFFCURVE",
"881.067 891.333 OFFCURVE",
"1031.667 891.333 CURVE SMOOTH",
"1154.2 891.333 OFFCURVE",
"1217.867 818.533 OFFCURVE",
"1217.867 678 CURVE SMOOTH",
"1217.867 649.267 OFFCURVE",
"1216.467 620.667 OFFCURVE",
"1212.6 607 CURVE",
"765.067 591.267 LINE"
);
}
);
width = 1485.53333;
}
);
leftKerningGroup = a;
rightKerningGroup = e;
unicode = 00E6;
userData = {
com.typemytype.robofont.guides = (
{
angle = 90;
isGlobal = 0;
magnetic = 5;
x = -118;
y = 0;
}
);
};
},
{
glyphname = b;
layers = (
{
layerId = "FA6D65B5-4623-4FAC-A199-3F662257AC29";
paths = (
{
closed = 1;
nodes = (
"885 -18 OFFCURVE",
"1093 208 OFFCURVE",
"1093 505 CURVE SMOOTH",
"1093 769 OFFCURVE",
"935 950 OFFCURVE",
"704 950 CURVE SMOOTH",
"591 950 OFFCURVE",
"491 903 OFFCURVE",
"412 825 CURVE",
"412 1461 LINE",
"373 1461 LINE",
"-9 1375 LINE",
"-9 1334 LINE",
"139 1287 LINE",
"139 0 LINE",
"190 0 LINE",
"341 63 LINE",
"352 63 LINE",
"428 11 OFFCURVE",
"521 -18 OFFCURVE",
"616 -18 CURVE SMOOTH"
);
},
{
closed = 1;
nodes = (
"479 77 OFFCURVE",
"412 165 OFFCURVE",
"412 299 CURVE SMOOTH",
"412 711 LINE",
"454 774 OFFCURVE",
"512 813 OFFCURVE",
"583 813 CURVE SMOOTH",
"718 813 OFFCURVE",
"796 679 OFFCURVE",
"796 456 CURVE SMOOTH",
"796 229 OFFCURVE",
"711 77 OFFCURVE",
"581 77 CURVE SMOOTH"
);
}
);
width = 1158;
},
{
associatedMasterId = "FA6D65B5-4623-4FAC-A199-3F662257AC29";
layerId = "CBD44848-52BD-4DC5-BFA6-577546B7224D";
paths = (
{
closed = 1;
nodes = (
"778 -18 OFFCURVE",
"979 208 OFFCURVE",
"979 505 CURVE SMOOTH",
"979 769 OFFCURVE",
"820 950 OFFCURVE",
"590 950 CURVE SMOOTH",
"486 950 OFFCURVE",
"396 910 OFFCURVE",
"322 831 CURVE",
"322 1461 LINE",
"304 1461 LINE",
"25 1375 LINE",
"25 1352 LINE",
"153 1304 LINE",
"153 0 LINE",
"181 0 LINE",
"262 63 LINE",
"271 63 LINE",
"341 11 OFFCURVE",
"426 -18 OFFCURVE",
"514 -18 CURVE SMOOTH"
);
},
{
closed = 1;
nodes = (
"398 42 OFFCURVE",
"322 130 OFFCURVE",
"322 264 CURVE SMOOTH",
"322 764 LINE",
"368 820 OFFCURVE",
"436 855 OFFCURVE",
"516 855 CURVE SMOOTH",
"686 855 OFFCURVE",
"790 704 OFFCURVE",
"790 456 CURVE SMOOTH",
"790 208 OFFCURVE",
"681 42 OFFCURVE",
"514 42 CURVE SMOOTH"
);
}
);
width = 1060;
},
{
layerId = "7C8D72FA-6E62-4564-8BB2-D9F9BC4EB15A";
paths = (
{
closed = 1;
nodes = (
"792.267 -18 OFFCURVE",
"994.2 208 OFFCURVE",
"994.2 505 CURVE SMOOTH",
"994.2 769 OFFCURVE",
"835.333 950 OFFCURVE",
"605.2 950 CURVE SMOOTH",
"500 950 OFFCURVE",
"408.667 909.067 OFFCURVE",
"334 830.2 CURVE",
"334 1461 LINE",
"313.2 1461 LINE",
"20.467 1375 LINE",
"20.467 1349.6 LINE",
"151.133 1301.733 LINE",
"151.133 0 LINE",
"182.2 0 LINE",
"272.533 63 LINE",
"281.8 63 LINE",
"352.6 11 OFFCURVE",
"438.667 -18 OFFCURVE",
"527.6 -18 CURVE SMOOTH"
);
},
{
closed = 1;
nodes = (
"408.8 46.667 OFFCURVE",
"334 134.667 OFFCURVE",
"334 268.667 CURVE SMOOTH",
"334 756.933 LINE",
"379.467 813.867 OFFCURVE",
"446.133 849.4 OFFCURVE",
"524.933 849.4 CURVE SMOOTH",
"690.267 849.4 OFFCURVE",
"790.8 700.667 OFFCURVE",
"790.8 456 CURVE SMOOTH",
"790.8 210.8 OFFCURVE",
"685 46.667 OFFCURVE",
"522.933 46.667 CURVE SMOOTH"
);
}
);
width = 1073.06667;
}
);
leftKerningGroup = b;
rightKerningGroup = b;
unicode = 0062;
},
{
glyphname = c;
layers = (
{
anchors = (
{
name = bottom;
position = "{552, 0}";
},
{
name = top;
position = "{572, 1146}";
}
);
layerId = "FA6D65B5-4623-4FAC-A199-3F662257AC29";
paths = (
{
closed = 1;
nodes = (
"727 -18 OFFCURVE",
"864 65 OFFCURVE",
"935 234 CURVE SMOOTH",
"943 255 LINE",
"894 294 LINE",
"882 280 LINE SMOOTH",
"817 204 OFFCURVE",
"727 164 OFFCURVE",
"621 164 CURVE SMOOTH",
"447 164 OFFCURVE",
"359 283 OFFCURVE",
"359 509 CURVE SMOOTH",
"359 732 OFFCURVE",
"445 859 OFFCURVE",
"593 859 CURVE SMOOTH",
"688 859 OFFCURVE",
"711 796 OFFCURVE",
"722 713 CURVE SMOOTH",
"729 660 OFFCURVE",
"750 598 OFFCURVE",
"838 598 CURVE SMOOTH",
"910 598 OFFCURVE",
"956 644 OFFCURVE",
"956 716 CURVE SMOOTH",
"956 850 OFFCURVE",
"797 950 OFFCURVE",
"584 950 CURVE SMOOTH",
"280 950 OFFCURVE",
"63 743 OFFCURVE",
"63 454 CURVE SMOOTH",
"63 180 OFFCURVE",
"260 -18 OFFCURVE",
"537 -18 CURVE SMOOTH"
);
}
);
width = 1005;
},
{
anchors = (
{
name = bottom;
position = "{512, 0}";
},
{
name = top;
position = "{542, 1146}";
}
);
associatedMasterId = "FA6D65B5-4623-4FAC-A199-3F662257AC29";
layerId = "CBD44848-52BD-4DC5-BFA6-577546B7224D";
paths = (
{
closed = 1;
nodes = (
"681 -18 OFFCURVE",
"813 70 OFFCURVE",
"873 225 CURVE SMOOTH",
"882 248 LINE",
"848 266 LINE",
"829 239 LINE SMOOTH",
"766 153 OFFCURVE",
"669 111 OFFCURVE",
"563 111 CURVE SMOOTH",
"371 111 OFFCURVE",
"260 250 OFFCURVE",
"260 489 CURVE SMOOTH",
"260 736 OFFCURVE",
"368 894 OFFCURVE",
"554 894 CURVE SMOOTH",
"634 894 OFFCURVE",
"667 869 OFFCURVE",
"681 753 CURVE SMOOTH",
"690 678 OFFCURVE",
"723 642 OFFCURVE",
"785 642 CURVE SMOOTH",
"836 642 OFFCURVE",
"866 683 OFFCURVE",
"866 743 CURVE SMOOTH",
"866 855 OFFCURVE",
"729 950 OFFCURVE",
"549 950 CURVE SMOOTH",
"275 950 OFFCURVE",
"81 744 OFFCURVE",
"81 454 CURVE SMOOTH",
"81 176 OFFCURVE",
"259 -18 OFFCURVE",
"510 -18 CURVE SMOOTH"
);
}
);
width = 942;
},
{
anchors = (
{
name = bottom;
position = "{517.333, 0}";
},
{
name = top;
position = "{546, 1146}";
}
);
layerId = "7C8D72FA-6E62-4564-8BB2-D9F9BC4EB15A";
paths = (
{
closed = 1;
nodes = (
"687.133 -18 OFFCURVE",
"819.8 69.333 OFFCURVE",
"881.267 226.2 CURVE SMOOTH",
"890.133 248.933 LINE",
"854.133 269.733 LINE",
"836.067 244.467 LINE SMOOTH",
"772.8 159.8 OFFCURVE",
"676.733 118.067 OFFCURVE",
"570.733 118.067 CURVE SMOOTH",
"381.133 118.067 OFFCURVE",
"273.2 254.4 OFFCURVE",
"273.2 491.667 CURVE SMOOTH",
"273.2 735.467 OFFCURVE",
"378.267 889.333 OFFCURVE",
"559.2 889.333 CURVE SMOOTH",
"641.2 889.333 OFFCURVE",
"672.867 859.267 OFFCURVE",
"686.467 747.667 CURVE SMOOTH",
"695.2 675.6 OFFCURVE",
"726.6 636.133 OFFCURVE",
"792.067 636.133 CURVE SMOOTH",
"845.867 636.133 OFFCURVE",
"878 677.8 OFFCURVE",
"878 739.4 CURVE SMOOTH",
"878 854.333 OFFCURVE",
"738.067 950 OFFCURVE",
"553.667 950 CURVE SMOOTH",
"275.667 950 OFFCURVE",
"78.6 743.867 OFFCURVE",
"78.6 454 CURVE SMOOTH",
"78.6 176.533 OFFCURVE",
"259.133 -18 OFFCURVE",
"513.6 -18 CURVE SMOOTH"
);
}
);
width = 950.4;
}
);
leftKerningGroup = e;
rightKerningGroup = c;
unicode = 0063;
},
{
glyphname = d;
layers = (
{
anchors = (
{
name = bottom;
position = "{447, 0}";
}
);
layerId = "FA6D65B5-4623-4FAC-A199-3F662257AC29";
paths = (
{
closed = 1;
nodes = (
"581 -18 OFFCURVE",
"683 23 OFFCURVE",
"755 93 CURVE",
"764 90 LINE",
"764 -18 LINE",
"796 -18 LINE",
"1162 92 LINE",
"1162 128 LINE",
"1023 172 LINE",
"1023 1461 LINE",
"984 1461 LINE",
"600 1375 LINE",
"600 1334 LINE",
"750 1285 LINE",
"750 906 LINE",
"683 936 OFFCURVE",
"612 950 OFFCURVE",
"546 950 CURVE SMOOTH",
"262 950 OFFCURVE",
"65 746 OFFCURVE",
"65 451 CURVE SMOOTH",
"65 181 OFFCURVE",
"241 -18 OFFCURVE",
"466 -18 CURVE SMOOTH"
);
},
{
closed = 1;
nodes = (
"444 109 OFFCURVE",
"366 253 OFFCURVE",
"366 480 CURVE SMOOTH",
"366 704 OFFCURVE",
"451 855 OFFCURVE",
"581 855 CURVE SMOOTH",
"683 855 OFFCURVE",
"750 767 OFFCURVE",
"750 637 CURVE SMOOTH",
"750 201 LINE",
"708 144 OFFCURVE",
"649 109 OFFCURVE",
"579 109 CURVE SMOOTH"
);
}
);
width = 1186;
},
{
anchors = (
{
name = bottom;
position = "{447, 0}";
}
);
associatedMasterId = "FA6D65B5-4623-4FAC-A199-3F662257AC29";
layerId = "CBD44848-52BD-4DC5-BFA6-577546B7224D";
paths = (
{
closed = 1;
nodes = (
"563 -18 OFFCURVE",
"667 33 OFFCURVE",
"741 137 CURVE",
"748 134 LINE",
"748 -18 LINE",
"760 -18 LINE",
"1021 92 LINE",
"1021 111 LINE",
"901 137 LINE",
"901 1461 LINE",
"884 1461 LINE",
"607 1375 LINE",
"607 1352 LINE",
"736 1302 LINE",
"736 924 LINE",
"674 942 OFFCURVE",
"607 950 OFFCURVE",
"546 950 CURVE SMOOTH",
"271 950 OFFCURVE",
"83 746 OFFCURVE",
"83 451 CURVE SMOOTH",
"83 181 OFFCURVE",
"239 -18 OFFCURVE",
"447 -18 CURVE SMOOTH"
);
},
{
closed = 1;
nodes = (
"363 97 OFFCURVE",
"268 243 OFFCURVE",
"268 479 CURVE SMOOTH",
"268 732 OFFCURVE",
"378 898 OFFCURVE",
"542 898 CURVE SMOOTH",
"669 898 OFFCURVE",
"736 831 OFFCURVE",
"736 704 CURVE SMOOTH",
"736 201 LINE",
"695 137 OFFCURVE",
"612 97 OFFCURVE",
"521 97 CURVE SMOOTH"
);
}
);
width = 1068;
},
{
anchors = (
{
name = bottom;
position = "{447, 0}";
}
);
layerId = "7C8D72FA-6E62-4564-8BB2-D9F9BC4EB15A";
paths = (
{
closed = 1;
nodes = (
"565.4 -18 OFFCURVE",
"669.133 31.667 OFFCURVE",
"742.867 131.133 CURVE",
"750.133 128.133 LINE",
"750.133 -18 LINE",
"764.8 -18 LINE",
"1039.8 92 LINE",
"1039.8 113.267 LINE",
"917.267 141.667 LINE",
"917.267 1461 LINE",
"897.333 1461 LINE",
"606.067 1375 LINE",
"606.067 1349.6 LINE",
"737.867 1299.733 LINE",
"737.867 921.6 LINE",
"675.2 941.2 OFFCURVE",
"607.667 950 OFFCURVE",
"546 950 CURVE SMOOTH",
"269.8 950 OFFCURVE",
"80.6 746 OFFCURVE",
"80.6 451 CURVE SMOOTH",
"80.6 181 OFFCURVE",
"239.267 -18 OFFCURVE",
"449.533 -18 CURVE SMOOTH"
);
},
{
closed = 1;
nodes = (
"373.8 98.6 OFFCURVE",
"281.067 244.333 OFFCURVE",
"281.067 479.133 CURVE SMOOTH",
"281.067 728.267 OFFCURVE",
"387.733 892.267 OFFCURVE",
"547.2 892.267 CURVE SMOOTH",
"670.867 892.267 OFFCURVE",
"737.867 822.467 OFFCURVE",
"737.867 695.067 CURVE SMOOTH",
"737.867 201 LINE",
"696.733 137.933 OFFCURVE",
"616.933 98.6 OFFCURVE",
"528.733 98.6 CURVE SMOOTH"
);
}
);
width = 1083.73333;
}
);
leftKerningGroup = d;
rightKerningGroup = d;
unicode = 0064;
},
{
glyphname = eth;
layers = (
{
layerId = "FA6D65B5-4623-4FAC-A199-3F662257AC29";
paths = (
{
closed = 1;
nodes = (
"766 -18 OFFCURVE",
"984 174 OFFCURVE",
"984 516 CURVE SMOOTH",
"984 912 OFFCURVE",
"737 1221 OFFCURVE",
"285 1373 CURVE",
"227 1285 LINE",
"489 1149 OFFCURVE",
"635 961 OFFCURVE",
"671 739 CURVE",
"628 797 OFFCURVE",
"549 831 OFFCURVE",
"452 831 CURVE SMOOTH",
"227 831 OFFCURVE",
"63 655 OFFCURVE",
"63 415 CURVE SMOOTH",
"63 158 OFFCURVE",
"252 -18 OFFCURVE",
"505 -18 CURVE SMOOTH {name = hr00;}"
);
},
{
closed = 1;
nodes = (
"415 88 OFFCURVE",
"352 202 OFFCURVE",
"352 385 CURVE SMOOTH",
"352 577 OFFCURVE",
"421 699 OFFCURVE",
"530 699 CURVE SMOOTH",
"590 699 OFFCURVE",
"644 664 OFFCURVE",
"674 604 CURVE",
"688 551 OFFCURVE",
"695 484 OFFCURVE",
"695 419 CURVE SMOOTH",
"695 215 OFFCURVE",
"627 88 OFFCURVE",
"517 88 CURVE SMOOTH"
);
},
{
closed = 1;
nodes = (
"850 1255 LINE",
"773 1362 LINE",
"275 1012 LINE",
"350 903 LINE"
);
}
);
width = 1068;
},
{
associatedMasterId = "FA6D65B5-4623-4FAC-A199-3F662257AC29";
layerId = "CBD44848-52BD-4DC5-BFA6-577546B7224D";
paths = (
{
closed = 1;
nodes = (
"767 -18 OFFCURVE",
"952 190 OFFCURVE",
"952 491 CURVE SMOOTH",
"952 868 OFFCURVE",
"676 1230 OFFCURVE",
"280 1373 CURVE",
"248 1311 LINE",
"472 1204 OFFCURVE",
"699 929 OFFCURVE",
"730 725 CURVE",
"685 776 OFFCURVE",
"572 817 OFFCURVE",
"475 817 CURVE SMOOTH",
"259 817 OFFCURVE",
"84 630 OFFCURVE",
"84 400 CURVE SMOOTH",
"84 158 OFFCURVE",
"259 -18 OFFCURVE",
"500 -18 CURVE SMOOTH {name = hr00;}"
);
},
{
closed = 1;
nodes = (
"375 62 OFFCURVE",
"294 181 OFFCURVE",
"294 371 CURVE SMOOTH",
"294 577 OFFCURVE",
"394 716 OFFCURVE",
"540 716 CURVE SMOOTH",
"614 716 OFFCURVE",
"692 679 OFFCURVE",
"734 621 CURVE",
"746 568 OFFCURVE",
"755 488 OFFCURVE",
"755 428 CURVE SMOOTH",
"755 216 OFFCURVE",
"648 62 OFFCURVE",
"502 62 CURVE SMOOTH"
);
},
{
closed = 1;
nodes = (
"778 1272 LINE",
"725 1353 LINE",
"273 1060 LINE",
"324 979 LINE"
);
}
);
width = 1038;
},
{
layerId = "7C8D72FA-6E62-4564-8BB2-D9F9BC4EB15A";
paths = (
{
closed = 1;
nodes = (
"766.867 -18 OFFCURVE",
"956.267 187.867 OFFCURVE",
"956.267 494.333 CURVE SMOOTH",
"956.267 873.867 OFFCURVE",
"684.133 1228.8 OFFCURVE",
"280.667 1373 CURVE",
"245.2 1307.533 LINE",
"474.267 1196.667 OFFCURVE",
"690.467 933.267 OFFCURVE",
"722.133 726.867 CURVE",
"677.4 778.8 OFFCURVE",
"568.933 818.867 OFFCURVE",
"471.933 818.867 CURVE SMOOTH",
"254.733 818.867 OFFCURVE",
"81.2 633.333 OFFCURVE",
"81.2 402 CURVE SMOOTH",
"81.2 158 OFFCURVE",
"258.067 -18 OFFCURVE",
"500.667 -18 CURVE SMOOTH {name = hr00;}"
);
},
{
closed = 1;
nodes = (
"380.333 65.467 OFFCURVE",
"301.733 183.8 OFFCURVE",
"301.733 372.867 CURVE SMOOTH",
"301.733 577 OFFCURVE",
"397.6 713.733 OFFCURVE",
"538.667 713.733 CURVE SMOOTH",
"610.8 713.733 OFFCURVE",
"685.6 677 OFFCURVE",
"726 618.733 CURVE",
"738.267 565.733 OFFCURVE",
"747 487.467 OFFCURVE",
"747 426.8 CURVE SMOOTH",
"747 215.867 OFFCURVE",
"645.2 65.467 OFFCURVE",
"504 65.467 CURVE SMOOTH"
);
},
{
closed = 1;
nodes = (
"787.6 1269.733 LINE",
"731.4 1354.2 LINE",
"273.267 1053.6 LINE",
"327.467 968.867 LINE"
);
}
);
width = 1042;
}
);
leftKerningGroup = o;
unicode = 00F0;
},
{
glyphname = dcroat;
layers = (
{
components = (
{
name = d;
}
);
layerId = "FA6D65B5-4623-4FAC-A199-3F662257AC29";
paths = (
{
closed = 1;
nodes = (
"1162 1054 LINE",
"1162 1204 LINE",
"551 1204 LINE",
"551 1054 LINE"
);
}
);
width = 1186;
},
{
associatedMasterId = "FA6D65B5-4623-4FAC-A199-3F662257AC29";
components = (
{
name = d;
}
);
layerId = "CBD44848-52BD-4DC5-BFA6-577546B7224D";
paths = (
{
closed = 1;
nodes = (
"1023 1072 LINE",
"1023 1186 LINE",
"482 1186 LINE",
"482 1072 LINE"
);
}
);
width = 1068;
},
{
components = (
{
alignment = -1;
name = d;
}
);
layerId = "7C8D72FA-6E62-4564-8BB2-D9F9BC4EB15A";
paths = (
{
closed = 1;
nodes = (
"1041.533 1069.6 LINE",
"1041.533 1188.4 LINE",
"491.2 1188.4 LINE",
"491.2 1069.6 LINE"
);
}
);
width = 1083.73333;
}
);
leftKerningGroup = d;
rightKerningGroup = d;
unicode = 0111;
},
{
glyphname = e;
layers = (
{
anchors = (
{
name = bottom;
position = "{524, 0}";
},
{
name = top;
position = "{565, 1146}";
}
);
layerId = "FA6D65B5-4623-4FAC-A199-3F662257AC29";
paths = (
{
closed = 1;
nodes = (
"739 -18 OFFCURVE",
"906 72 OFFCURVE",
"972 231 CURVE SMOOTH",
"980 252 LINE",
"931 294 LINE",
"919 280 LINE SMOOTH",
"850 202 OFFCURVE",
"734 164 OFFCURVE",
"632 164 CURVE SMOOTH",
"447 164 OFFCURVE",
"356 280 OFFCURVE",
"356 519 CURVE SMOOTH",
"356 737 OFFCURVE",
"431 861 OFFCURVE",
"568 861 CURVE SMOOTH",
"671 861 OFFCURVE",
"725 796 OFFCURVE",
"725 674 CURVE SMOOTH",
"725 644 OFFCURVE",
"722 618 OFFCURVE",
"718 607 CURVE",
"227 590 LINE",
"227 510 LINE",
"996 510 LINE",
"1010 521 LINE",
"1001 803 OFFCURVE",
"859 950 OFFCURVE",
"591 950 CURVE SMOOTH",
"278 950 OFFCURVE",
"63 748 OFFCURVE",
"63 452 CURVE SMOOTH",
"63 172 OFFCURVE",
"255 -18 OFFCURVE",
"547 -18 CURVE SMOOTH"
);
}
);
width = 1063;
},
{
anchors = (
{
name = bottom;
position = "{507, 0}";
},
{
name = top;
position = "{547, 1146}";
}
);
associatedMasterId = "FA6D65B5-4623-4FAC-A199-3F662257AC29";
layerId = "CBD44848-52BD-4DC5-BFA6-577546B7224D";
paths = (
{
closed = 1;
nodes = (
"678 -18 OFFCURVE",
"822 70 OFFCURVE",
"884 213 CURVE SMOOTH",
"894 238 LINE",
"864 255 LINE",
"843 229 LINE SMOOTH",
"781 155 OFFCURVE",
"678 111 OFFCURVE",
"563 111 CURVE SMOOTH",
"363 111 OFFCURVE",
"259 245 OFFCURVE",
"259 502 CURVE SMOOTH",
"259 753 OFFCURVE",
"359 896 OFFCURVE",
"537 896 CURVE SMOOTH",
"664 896 OFFCURVE",
"729 824 OFFCURVE",
"729 679 CURVE SMOOTH",
"729 651 OFFCURVE",
"727 621 OFFCURVE",
"723 607 CURVE",
"224 590 LINE",
"224 542 LINE",
"901 542 LINE",
"913 553 LINE",
"908 813 OFFCURVE",
"783 950 OFFCURVE",
"553 950 CURVE SMOOTH",
"273 950 OFFCURVE",
"83 748 OFFCURVE",
"83 452 CURVE SMOOTH",
"83 172 OFFCURVE",
"253 -18 OFFCURVE",
"505 -18 CURVE SMOOTH"
);
}
);
width = 986;
},
{
anchors = (
{
name = bottom;
position = "{509.267, 0}";
},
{
name = top;
position = "{549.4, 1146}";
}
);
layerId = "7C8D72FA-6E62-4564-8BB2-D9F9BC4EB15A";
paths = (
{
closed = 1;
nodes = (
"686.133 -18 OFFCURVE",
"833.2 70.267 OFFCURVE",
"895.733 215.4 CURVE SMOOTH",
"905.467 239.867 LINE",
"872.933 260.2 LINE",
"853.133 235.8 LINE SMOOTH",
"790.2 161.267 OFFCURVE",
"685.467 118.067 OFFCURVE",
"572.2 118.067 CURVE SMOOTH",
"374.2 118.067 OFFCURVE",
"271.933 249.667 OFFCURVE",
"271.933 504.267 CURVE SMOOTH",
"271.933 750.867 OFFCURVE",
"368.6 891.333 OFFCURVE",
"541.133 891.333 CURVE SMOOTH",
"664.933 891.333 OFFCURVE",
"728.467 820.267 OFFCURVE",
"728.467 678.333 CURVE SMOOTH",
"728.467 650.067 OFFCURVE",
"726.333 620.6 OFFCURVE",
"722.333 607 CURVE",
"224.4 590 LINE",
"224.4 537.733 LINE",
"913.667 537.733 LINE",
"925.933 548.733 LINE",
"920.4 811.667 OFFCURVE",
"793.133 950 OFFCURVE",
"558.067 950 CURVE SMOOTH",
"273.667 950 OFFCURVE",
"80.333 748 OFFCURVE",
"80.333 452 CURVE SMOOTH",
"80.333 172 OFFCURVE",
"253.267 -18 OFFCURVE",
"510.6 -18 CURVE SMOOTH"
);
}
);
width = 996.26667;
}
);
leftKerningGroup = e;
rightKerningGroup = e;
unicode = 0065;
},
{
glyphname = schwa;
layers = (
{
layerId = "FA6D65B5-4623-4FAC-A199-3F662257AC29";
paths = (
{
closed = 1;
nodes = (
"783 -18 OFFCURVE",
"998 185 OFFCURVE",
"998 480 CURVE SMOOTH",
"998 760 OFFCURVE",
"806 950 OFFCURVE",
"514 950 CURVE SMOOTH",
"322 950 OFFCURVE",
"155 861 OFFCURVE",
"90 702 CURVE SMOOTH",
"81 681 LINE",
"130 639 LINE",
"143 653 LINE SMOOTH",
"211 730 OFFCURVE",
"327 769 OFFCURVE",
"429 769 CURVE SMOOTH",
"614 769 OFFCURVE",
"706 653 OFFCURVE",
"706 414 CURVE SMOOTH",
"706 195 OFFCURVE",
"630 72 OFFCURVE",
"493 72 CURVE SMOOTH",
"391 72 OFFCURVE",
"336 137 OFFCURVE",
"336 259 CURVE SMOOTH",
"336 289 OFFCURVE",
"340 315 OFFCURVE",
"343 326 CURVE",
"834 343 LINE",
"834 422 LINE",
"65 422 LINE",
"51 412 LINE",
"60 130 OFFCURVE",
"202 -18 OFFCURVE",
"470 -18 CURVE SMOOTH"
);
}
);
width = 1061;
},
{
associatedMasterId = "FA6D65B5-4623-4FAC-A199-3F662257AC29";
layerId = "CBD44848-52BD-4DC5-BFA6-577546B7224D";
paths = (
{
closed = 1;
nodes = (
"713 -18 OFFCURVE",
"903 185 OFFCURVE",
"903 480 CURVE SMOOTH",
"903 760 OFFCURVE",
"732 950 OFFCURVE",
"480 950 CURVE SMOOTH",
"308 950 OFFCURVE",
"164 862 OFFCURVE",
"102 720 CURVE SMOOTH",
"92 695 LINE",
"121 678 LINE",
"143 704 LINE SMOOTH",
"204 778 OFFCURVE",
"308 822 OFFCURVE",
"422 822 CURVE SMOOTH",
"623 822 OFFCURVE",
"727 688 OFFCURVE",
"727 431 CURVE SMOOTH",
"727 180 OFFCURVE",
"627 37 OFFCURVE",
"449 37 CURVE SMOOTH",
"322 37 OFFCURVE",
"257 109 OFFCURVE",
"257 253 CURVE SMOOTH",
"257 282 OFFCURVE",
"259 312 OFFCURVE",
"262 326 CURVE",
"762 343 LINE",
"762 391 LINE",
"84 391 LINE",
"72 380 LINE",
"77 120 OFFCURVE",
"202 -18 OFFCURVE",
"433 -18 CURVE SMOOTH"
);
}
);
width = 986;
},
{
layerId = "7C8D72FA-6E62-4564-8BB2-D9F9BC4EB15A";
paths = (
{
closed = 1;
nodes = (
"722.333 -18 OFFCURVE",
"915.667 185 OFFCURVE",
"915.667 480 CURVE SMOOTH",
"915.667 760 OFFCURVE",
"741.867 950 OFFCURVE",
"484.533 950 CURVE SMOOTH",
"309.867 950 OFFCURVE",
"162.8 861.867 OFFCURVE",
"100.4 717.6 CURVE SMOOTH",
"90.533 693.133 LINE",
"122.2 672.8 LINE",
"143 697.2 LINE SMOOTH",
"204.933 771.6 OFFCURVE",
"310.533 814.933 OFFCURVE",
"422.933 814.933 CURVE SMOOTH",
"621.8 814.933 OFFCURVE",
"724.2 683.333 OFFCURVE",
"724.2 428.733 CURVE SMOOTH",
"724.2 182 OFFCURVE",
"627.4 41.667 OFFCURVE",
"454.867 41.667 CURVE SMOOTH",
"331.2 41.667 OFFCURVE",
"267.533 112.733 OFFCURVE",
"267.533 253.8 CURVE SMOOTH",
"267.533 282.933 OFFCURVE",
"269.8 312.4 OFFCURVE",
"272.8 326 CURVE",
"771.6 343 LINE",
"771.6 395.133 LINE",
"81.467 395.133 LINE",
"69.2 384.267 LINE",
"74.733 121.333 OFFCURVE",
"202 -18 OFFCURVE",
"437.933 -18 CURVE SMOOTH"
);
}
);
width = 996;
}
);
rightKerningGroup = o;
unicode = 0259;
},
{
glyphname = f;
layers = (
{
layerId = "FA6D65B5-4623-4FAC-A199-3F662257AC29";
paths = (
{
closed = 1;
nodes = (
"693 0 LINE",
"693 62 LINE",
"477 97 LINE",
"477 1030 LINE SMOOTH",
"477 1149 OFFCURVE",
"479 1236 OFFCURVE",
"498 1290 CURVE SMOOTH",
"517 1346 OFFCURVE",
"563 1371 OFFCURVE",
"614 1371 CURVE SMOOTH",
"669 1371 OFFCURVE",
"693 1346 OFFCURVE",
"711 1280 CURVE SMOOTH",
"729 1211 OFFCURVE",
"773 1172 OFFCURVE",
"834 1172 CURVE SMOOTH",
"906 1172 OFFCURVE",
"956 1220 OFFCURVE",
"956 1288 CURVE SMOOTH",
"956 1392 OFFCURVE",
"832 1461 OFFCURVE",
"648 1461 CURVE SMOOTH",
"454 1461 OFFCURVE",
"290 1373 OFFCURVE",
"234 1237 CURVE SMOOTH",
"209 1181 OFFCURVE",
"204 1119 OFFCURVE",
"204 908 CURVE SMOOTH",
"204 97 LINE",
"55 62 LINE",
"55 0 LINE"
);
},
{
closed = 1;
nodes = (
"690 850 LINE",
"715 933 LINE",
"49 933 LINE",
"25 850 LINE"
);
}
);
width = 743;
},
{
associatedMasterId = "FA6D65B5-4623-4FAC-A199-3F662257AC29";
layerId = "CBD44848-52BD-4DC5-BFA6-577546B7224D";
paths = (
{
closed = 1;
nodes = (
"549 0 LINE",
"549 33 LINE",
"363 60 LINE",
"363 1030 LINE SMOOTH",
"363 1181 OFFCURVE",
"375 1267 OFFCURVE",
"400 1320 CURVE SMOOTH",
"428 1382 OFFCURVE",
"477 1406 OFFCURVE",
"530 1406 CURVE SMOOTH",
"586 1406 OFFCURVE",
"605 1378 OFFCURVE",
"618 1315 CURVE SMOOTH",
"627 1271 OFFCURVE",
"646 1225 OFFCURVE",
"704 1225 CURVE SMOOTH",
"755 1225 OFFCURVE",
"790 1260 OFFCURVE",
"790 1311 CURVE SMOOTH",
"790 1397 OFFCURVE",
"690 1461 OFFCURVE",
"563 1461 CURVE SMOOTH",
"415 1461 OFFCURVE",
"269 1375 OFFCURVE",
"222 1244 CURVE SMOOTH",
"199 1181 OFFCURVE",
"195 1096 OFFCURVE",
"195 908 CURVE SMOOTH",
"195 60 LINE",
"63 33 LINE",
"63 0 LINE"
);
},
{
closed = 1;
nodes = (
"568 876 LINE",
"590 933 LINE",
"62 933 LINE",
"40 876 LINE"
);
}
);
width = 618;
},
{
layerId = "7C8D72FA-6E62-4564-8BB2-D9F9BC4EB15A";
paths = (
{
closed = 1;
nodes = (
"568.2 0 LINE",
"568.2 36.867 LINE",
"378.2 64.933 LINE",
"378.2 1030 LINE SMOOTH",
"378.2 1176.733 OFFCURVE",
"388.867 1262.867 OFFCURVE",
"413.067 1316 CURVE SMOOTH",
"439.867 1377.2 OFFCURVE",
"488.467 1401.333 OFFCURVE",
"541.2 1401.333 CURVE SMOOTH",
"597.067 1401.333 OFFCURVE",
"616.733 1373.733 OFFCURVE",
"630.4 1310.333 CURVE SMOOTH",
"640.6 1263 OFFCURVE",
"662.933 1217.933 OFFCURVE",
"721.333 1217.933 CURVE SMOOTH",
"775.133 1217.933 OFFCURVE",
"812.133 1254.667 OFFCURVE",
"812.133 1307.933 CURVE SMOOTH",
"812.133 1396.333 OFFCURVE",
"708.933 1461 OFFCURVE",
"574.333 1461 CURVE SMOOTH",
"420.2 1461 OFFCURVE",
"271.8 1374.733 OFFCURVE",
"223.6 1243.067 CURVE SMOOTH",
"200.333 1181 OFFCURVE",
"196.2 1099.067 OFFCURVE",
"196.2 908 CURVE SMOOTH",
"196.2 64.933 LINE",
"61.933 36.867 LINE",
"61.933 0 LINE"
);
},
{
closed = 1;
nodes = (
"584.267 872.533 LINE",
"606.667 933 LINE",
"60.267 933 LINE",
"38 872.533 LINE"
);
}
);
width = 634.66667;
}
);
leftKerningGroup = f;
rightKerningGroup = f;
unicode = 0066;
},
{
glyphname = g;
layers = (
{
anchors = (
{
name = top;
position = "{509, 1146}";
}
);
layerId = "FA6D65B5-4623-4FAC-A199-3F662257AC29";
paths = (
{
closed = 1;
nodes = (
"567 -456 OFFCURVE",
"746 -426 OFFCURVE",
"859 -347 CURVE SMOOTH",
"931 -296 OFFCURVE",
"970 -231 OFFCURVE",
"970 -136 CURVE SMOOTH",
"970 -48 OFFCURVE",
"936 65 OFFCURVE",
"704 118 CURVE SMOOTH",
"561 150 OFFCURVE",
"306 169 OFFCURVE",
"306 250 CURVE SMOOTH",
"306 289 OFFCURVE",
"364 329 OFFCURVE",
"502 343 CURVE SMOOTH",
"741 368 OFFCURVE",
"899 500 OFFCURVE",
"899 651 CURVE SMOOTH",
"899 730 OFFCURVE",
"855 808 OFFCURVE",
"780 862 CURVE",
"794 896 OFFCURVE",
"818 924 OFFCURVE",
"855 924 CURVE SMOOTH",
"901 924 OFFCURVE",
"910 878 OFFCURVE",
"970 878 CURVE SMOOTH",
"1033 878 OFFCURVE",
"1068 929 OFFCURVE",
"1068 980 CURVE SMOOTH",
"1068 1044 OFFCURVE",
"1014 1084 OFFCURVE",
"942 1084 CURVE SMOOTH",
"831 1084 OFFCURVE",
"760 987 OFFCURVE",
"720 899 CURVE",
"656 931 OFFCURVE",
"579 950 OFFCURVE",
"493 950 CURVE SMOOTH",
"266 950 OFFCURVE",
"95 822 OFFCURVE",
"95 648 CURVE SMOOTH",
"95 502 OFFCURVE",
"216 396 OFFCURVE",
"371 361 CURVE",
"169 292 OFFCURVE",
"100 246 OFFCURVE",
"100 148 CURVE SMOOTH",
"100 69 OFFCURVE",
"146 26 OFFCURVE",
"213 -4 CURVE",
"56 -70 OFFCURVE",
"-5 -139 OFFCURVE",
"-5 -227 CURVE SMOOTH",
"-5 -310 OFFCURVE",
"48 -361 OFFCURVE",
"111 -394 CURVE SMOOTH",
"208 -445 OFFCURVE",
"333 -456 OFFCURVE",
"421 -456 CURVE SMOOTH"
);
},
{
closed = 1;
nodes = (
"398 -366 OFFCURVE",
"334 -352 OFFCURVE",
"287 -327 CURVE SMOOTH",
"232 -299 OFFCURVE",
"204 -260 OFFCURVE",
"204 -202 CURVE SMOOTH",
"204 -139 OFFCURVE",
"238 -76 OFFCURVE",
"296 -35 CURVE",
"375 -55 OFFCURVE",
"445 -70 OFFCURVE",
"532 -90 CURVE SMOOTH",
"693 -127 OFFCURVE",
"769 -153 OFFCURVE",
"769 -222 CURVE SMOOTH",
"769 -273 OFFCURVE",
"729 -306 OFFCURVE",
"676 -329 CURVE SMOOTH",
"612 -356 OFFCURVE",
"532 -366 OFFCURVE",
"470 -366 CURVE SMOOTH"
);
},
{
closed = 1;
nodes = (
"396 421 OFFCURVE",
"375 549 OFFCURVE",
"375 634 CURVE SMOOTH",
"375 725 OFFCURVE",
"400 875 OFFCURVE",
"503 875 CURVE SMOOTH",
"602 875 OFFCURVE",
"621 739 OFFCURVE",
"621 655 CURVE SMOOTH",
"621 553 OFFCURVE",
"593 421 OFFCURVE",
"495 421 CURVE SMOOTH"
);
}
);
width = 1028;
},
{
anchors = (
{
name = top;
position = "{456, 1146}";
}
);
associatedMasterId = "FA6D65B5-4623-4FAC-A199-3F662257AC29";
layerId = "CBD44848-52BD-4DC5-BFA6-577546B7224D";
paths = (
{
closed = 1;
nodes = (
"512 -458 OFFCURVE",
"665 -424 OFFCURVE",
"764 -345 CURVE SMOOTH",
"822 -297 OFFCURVE",
"861 -234 OFFCURVE",
"861 -144 CURVE SMOOTH",
"861 -65 OFFCURVE",
"831 37 OFFCURVE",
"637 81 CURVE SMOOTH",
"516 109 OFFCURVE",
"259 130 OFFCURVE",
"259 227 CURVE SMOOTH",
"259 287 OFFCURVE",
"359 331 OFFCURVE",
"449 338 CURVE SMOOTH",
"656 354 OFFCURVE",
"799 495 OFFCURVE",
"799 649 CURVE SMOOTH",
"799 732 OFFCURVE",
"759 813 OFFCURVE",
"690 869 CURVE",
"702 917 OFFCURVE",
"729 959 OFFCURVE",
"757 959 CURVE SMOOTH",
"801 959 OFFCURVE",
"796 913 OFFCURVE",
"847 913 CURVE SMOOTH",
"892 913 OFFCURVE",
"929 949 OFFCURVE",
"929 996 CURVE SMOOTH",
"929 1051 OFFCURVE",
"880 1084 OFFCURVE",
"827 1084 CURVE SMOOTH",
"736 1084 OFFCURVE",
"681 979 OFFCURVE",
"653 894 CURVE",
"597 929 OFFCURVE",
"526 950 OFFCURVE",
"447 950 CURVE SMOOTH",
"253 950 OFFCURVE",
"106 824 OFFCURVE",
"106 649 CURVE SMOOTH",
"106 503 OFFCURVE",
"208 398 OFFCURVE",
"343 361 CURVE",
"150 299 OFFCURVE",
"111 208 OFFCURVE",
"111 151 CURVE SMOOTH",
"111 93 OFFCURVE",
"151 42 OFFCURVE",
"231 7 CURVE",
"70 -62 OFFCURVE",
"12 -134 OFFCURVE",
"12 -227 CURVE SMOOTH",
"12 -304 OFFCURVE",
"53 -359 OFFCURVE",
"114 -396 CURVE SMOOTH",
"192 -442 OFFCURVE",
"303 -458 OFFCURVE",
"387 -458 CURVE SMOOTH"
);
},
{
closed = 1;
nodes = (
"347 -401 OFFCURVE",
"283 -385 OFFCURVE",
"236 -354 CURVE SMOOTH",
"185 -320 OFFCURVE",
"155 -269 OFFCURVE",
"155 -206 CURVE SMOOTH",
"155 -125 OFFCURVE",
"206 -48 OFFCURVE",
"289 -11 CURVE",
"336 -25 OFFCURVE",
"398 -39 OFFCURVE",
"459 -51 CURVE SMOOTH",
"665 -92 OFFCURVE",
"725 -128 OFFCURVE",
"725 -211 CURVE SMOOTH",
"725 -280 OFFCURVE",
"685 -329 OFFCURVE",
"623 -359 CURVE SMOOTH",
"567 -387 OFFCURVE",
"491 -401 OFFCURVE",
"421 -401 CURVE SMOOTH"
);
},
{
closed = 1;
nodes = (
"315 394 OFFCURVE",
"287 540 OFFCURVE",
"287 635 CURVE SMOOTH",
"287 734 OFFCURVE",
"317 901 OFFCURVE",
"458 901 CURVE SMOOTH",
"593 901 OFFCURVE",
"620 748 OFFCURVE",
"620 653 CURVE SMOOTH",
"620 539 OFFCURVE",
"583 394 OFFCURVE",
"449 394 CURVE SMOOTH"
);
}
);
width = 905;
},
{
anchors = (
{
name = top;
position = "{463.067, 1146}";
}
);
layerId = "7C8D72FA-6E62-4564-8BB2-D9F9BC4EB15A";
paths = (
{
closed = 1;
nodes = (
"519.333 -457.733 OFFCURVE",
"675.8 -424.267 OFFCURVE",
"776.667 -345.267 CURVE SMOOTH",
"836.533 -296.867 OFFCURVE",
"875.533 -233.6 OFFCURVE",
"875.533 -142.933 CURVE SMOOTH",
"875.533 -62.733 OFFCURVE",
"845 40.733 OFFCURVE",
"645.933 85.933 CURVE SMOOTH",
"522 114.467 OFFCURVE",
"265.267 135.2 OFFCURVE",
"265.267 230.067 CURVE SMOOTH",
"265.267 287.267 OFFCURVE",
"359.667 330.733 OFFCURVE",
"456.067 338.667 CURVE SMOOTH",
"667.333 355.867 OFFCURVE",
"812.333 495.667 OFFCURVE",
"812.333 649.267 CURVE SMOOTH",
"812.333 731.733 OFFCURVE",
"771.8 812.333 OFFCURVE",
"702 868.067 CURVE",
"714.267 914.2 OFFCURVE",
"740.867 954.333 OFFCURVE",
"770.067 954.333 CURVE SMOOTH",
"814.333 954.333 OFFCURVE",
"811.2 908.333 OFFCURVE",
"863.4 908.333 CURVE SMOOTH",
"910.8 908.333 OFFCURVE",
"947.533 946.333 OFFCURVE",
"947.533 993.867 CURVE SMOOTH",
"947.533 1050.067 OFFCURVE",
"897.867 1084 OFFCURVE",
"842.333 1084 CURVE SMOOTH",
"748.667 1084 OFFCURVE",
"691.533 980.067 OFFCURVE",
"661.933 894.667 CURVE",
"604.867 929.267 OFFCURVE",
"533.067 950 OFFCURVE",
"453.133 950 CURVE SMOOTH",
"254.733 950 OFFCURVE",
"104.533 823.733 OFFCURVE",
"104.533 648.867 CURVE SMOOTH",
"104.533 502.867 OFFCURVE",
"209.067 397.733 OFFCURVE",
"346.733 361 CURVE",
"152.533 298.067 OFFCURVE",
"109.533 213.067 OFFCURVE",
"109.533 150.6 CURVE SMOOTH",
"109.533 89.8 OFFCURVE",
"150.333 39.867 OFFCURVE",
"228.6 5.533 CURVE",
"68.133 -63.067 OFFCURVE",
"9.733 -134.667 OFFCURVE",
"9.733 -227 CURVE SMOOTH",
"9.733 -304.8 OFFCURVE",
"52.333 -359.267 OFFCURVE",
"113.6 -395.733 CURVE SMOOTH",
"194.133 -442.4 OFFCURVE",
"307 -457.733 OFFCURVE",
"391.533 -457.733 CURVE SMOOTH"
);
},
{
closed = 1;
nodes = (
"353.8 -396.333 OFFCURVE",
"289.8 -380.6 OFFCURVE",
"242.8 -350.4 CURVE SMOOTH",
"191.267 -317.2 OFFCURVE",
"161.533 -267.8 OFFCURVE",
"161.533 -205.467 CURVE SMOOTH",
"161.533 -126.867 OFFCURVE",
"210.267 -51.733 OFFCURVE",
"289.933 -14.2 CURVE",
"341.2 -29 OFFCURVE",
"404.267 -43.133 OFFCURVE",
"468.733 -56.2 CURVE SMOOTH",
"668.733 -96.667 OFFCURVE",
"730.867 -131.333 OFFCURVE",
"730.867 -212.467 CURVE SMOOTH",
"730.867 -279.067 OFFCURVE",
"690.867 -325.933 OFFCURVE",
"630.067 -355 CURVE SMOOTH",
"573 -382.867 OFFCURVE",
"496.467 -396.333 OFFCURVE",
"427.533 -396.333 CURVE SMOOTH"
);
},
{
closed = 1;
nodes = (
"325.8 397.6 OFFCURVE",
"298.733 541.2 OFFCURVE",
"298.733 634.867 CURVE SMOOTH",
"298.733 732.8 OFFCURVE",
"328.067 897.533 OFFCURVE",
"464 897.533 CURVE SMOOTH",
"594.2 897.533 OFFCURVE",
"620.133 746.8 OFFCURVE",
"620.133 653.267 CURVE SMOOTH",
"620.133 540.867 OFFCURVE",
"584.333 397.6 OFFCURVE",
"455.133 397.6 CURVE SMOOTH"
);
}
);
width = 921.4;
}
);
leftKerningGroup = g;
rightKerningGroup = g;
unicode = 0067;
},
{
glyphname = gcommaaccent;
layers = (
{
components = (
{
name = g;
}
);
layerId = "FA6D65B5-4623-4FAC-A199-3F662257AC29";
paths = (
{
closed = 1;
nodes = (
"588 1146 OFFCURVE",
"637 1186 OFFCURVE",
"637 1239 CURVE SMOOTH",
"637 1315 OFFCURVE",
"554 1316 OFFCURVE",
"554 1368 CURVE SMOOTH",
"554 1394 OFFCURVE",
"579 1436 OFFCURVE",
"614 1470 CURVE",
"574 1514 LINE",
"463 1464 OFFCURVE",
"400 1382 OFFCURVE",
"400 1283 CURVE SMOOTH",
"400 1199 OFFCURVE",
"445 1146 OFFCURVE",
"519 1146 CURVE SMOOTH"
);
}
);
width = 1028;
},
{
associatedMasterId = "FA6D65B5-4623-4FAC-A199-3F662257AC29";
components = (
{
name = g;
}
);
layerId = "CBD44848-52BD-4DC5-BFA6-577546B7224D";
paths = (
{
closed = 1;
nodes = (
"526 1146 OFFCURVE",
"568 1184 OFFCURVE",
"568 1236 CURVE SMOOTH",
"568 1318 OFFCURVE",
"482 1304 OFFCURVE",
"482 1368 CURVE SMOOTH",
"482 1390 OFFCURVE",
"514 1429 OFFCURVE",
"558 1459 CURVE",
"530 1501 LINE",
"428 1441 OFFCURVE",
"375 1362 OFFCURVE",
"375 1262 CURVE SMOOTH",
"375 1199 OFFCURVE",
"414 1146 OFFCURVE",
"470 1146 CURVE SMOOTH"
);
}
);
width = 905;
},
{
components = (
{
alignment = -1;
name = g;
}
);
layerId = "7C8D72FA-6E62-4564-8BB2-D9F9BC4EB15A";
paths = (
{
closed = 1;
nodes = (
"534.267 1146 OFFCURVE",
"577.2 1184.267 OFFCURVE",
"577.2 1236.4 CURVE SMOOTH",
"577.2 1317.6 OFFCURVE",
"491.6 1305.6 OFFCURVE",
"491.6 1368 CURVE SMOOTH",
"491.6 1390.533 OFFCURVE",
"522.667 1429.933 OFFCURVE",
"565.467 1460.467 CURVE",
"535.867 1502.733 LINE",
"432.667 1444.067 OFFCURVE",
"378.333 1364.667 OFFCURVE",
"378.333 1264.8 CURVE SMOOTH",
"378.333 1199 OFFCURVE",
"418.133 1146 OFFCURVE",
"476.533 1146 CURVE SMOOTH"
);
}
);
width = 921.4;
}
);
leftKerningGroup = g;
rightKerningGroup = g;
unicode = 0123;
},
{
glyphname = h;
layers = (
{
anchors = (
{
name = bottom;
position = "{600, 0}";
},
{
name = top;
position = "{795, 1146}";
}
);
layerId = "FA6D65B5-4623-4FAC-A199-3F662257AC29";
paths = (
{
closed = 1;
nodes = (
"561 0 LINE",
"561 62 LINE",
"438 97 LINE",
"438 1461 LINE",
"400 1461 LINE",
"32 1375 LINE",
"32 1334 LINE",
"165 1285 LINE",
"165 97 LINE",
"33 62 LINE",
"33 0 LINE"
);
},
{
closed = 1;
nodes = (
"1167 0 LINE",
"1167 62 LINE",
"1035 97 LINE",
"1035 560 LINE SMOOTH",
"1035 722 OFFCURVE",
"1030 766 OFFCURVE",
"1008 810 CURVE SMOOTH",
"963 903 OFFCURVE",
"876 950 OFFCURVE",
"759 950 CURVE SMOOTH",
"637 950 OFFCURVE",
"498 899 OFFCURVE",
"417 825 CURVE",
"417 715 LINE",
"465 773 OFFCURVE",
"517 799 OFFCURVE",
"588 799 CURVE SMOOTH",
"669 799 OFFCURVE",
"716 764 OFFCURVE",
"744 702 CURVE SMOOTH",
"760 667 OFFCURVE",
"762 616 OFFCURVE",
"762 491 CURVE SMOOTH",
"762 97 LINE",
"639 62 LINE",
"639 0 LINE"
);
}
);
width = 1199;
},
{
anchors = (
{
name = bottom;
position = "{551, 0}";
},
{
name = top;
position = "{685, 1146}";
}
);
associatedMasterId = "FA6D65B5-4623-4FAC-A199-3F662257AC29";
layerId = "CBD44848-52BD-4DC5-BFA6-577546B7224D";
paths = (
{
closed = 1;
nodes = (
"473 0 LINE",
"473 35 LINE",
"341 62 LINE",
"341 1461 LINE",
"324 1461 LINE",
"44 1376 LINE",
"44 1352 LINE",
"174 1304 LINE",
"174 62 LINE",
"40 35 LINE",
"40 0 LINE"
);
},
{
closed = 1;
nodes = (
"1052 0 LINE",
"1052 35 LINE",
"920 60 LINE",
"920 595 LINE SMOOTH",
"920 764 OFFCURVE",
"917 808 OFFCURVE",
"898 845 CURVE SMOOTH",
"864 910 OFFCURVE",
"787 950 OFFCURVE",
"693 950 CURVE SMOOTH",
"570 950 OFFCURVE",
"436 892 OFFCURVE",
"326 790 CURVE",
"326 722 LINE",
"396 806 OFFCURVE",
"491 854 OFFCURVE",
"595 854 CURVE SMOOTH",
"665 854 OFFCURVE",
"709 827 OFFCURVE",
"732 773 CURVE SMOOTH",
"748 734 OFFCURVE",
"753 678 OFFCURVE",
"753 577 CURVE SMOOTH",
"753 60 LINE",
"621 35 LINE",
"621 0 LINE"
);
}
);
width = 1089;
},
{
anchors = (
{
name = bottom;
position = "{557.533, 0}";
},
{
name = top;
position = "{699.667, 1146}";
}
);
layerId = "7C8D72FA-6E62-4564-8BB2-D9F9BC4EB15A";
paths = (
{
closed = 1;
nodes = (
"484.733 0 LINE",
"484.733 38.6 LINE",
"353.933 66.667 LINE",
"353.933 1461 LINE",
"334.133 1461 LINE",
"42.4 1375.867 LINE",
"42.4 1349.6 LINE",
"172.8 1301.467 LINE",
"172.8 66.667 LINE",
"39.067 38.6 LINE",
"39.067 0 LINE"
);
},
{
closed = 1;
nodes = (
"1067.333 0 LINE",
"1067.333 38.6 LINE",
"935.333 64.933 LINE",
"935.333 590.333 LINE SMOOTH",
"935.333 758.4 OFFCURVE",
"932.067 802.4 OFFCURVE",
"912.667 840.333 CURVE SMOOTH",
"877.2 909.067 OFFCURVE",
"798.867 950 OFFCURVE",
"701.8 950 CURVE SMOOTH",
"578.933 950 OFFCURVE",
"444.267 892.933 OFFCURVE",
"338.133 794.667 CURVE",
"338.133 721.067 LINE",
"405.2 801.6 OFFCURVE",
"494.467 846.667 OFFCURVE",
"594.067 846.667 CURVE SMOOTH",
"665.533 846.667 OFFCURVE",
"709.933 818.6 OFFCURVE",
"733.6 763.533 CURVE SMOOTH",
"749.6 725.067 OFFCURVE",
"754.2 669.733 OFFCURVE",
"754.2 565.533 CURVE SMOOTH",
"754.2 64.933 LINE",
"623.4 38.6 LINE",
"623.4 0 LINE"
);
}
);
width = 1103.66667;
}
);
leftKerningGroup = h;
rightKerningGroup = n;
unicode = 0068;
},
{
glyphname = hbar;
layers = (
{
components = (
{
name = h;
}
);
layerId = "FA6D65B5-4623-4FAC-A199-3F662257AC29";
paths = (
{
closed = 1;
nodes = (
"672 1054 LINE",
"672 1204 LINE",
"62 1204 LINE",
"62 1054 LINE"
);
}
);
width = 1199;
},
{
associatedMasterId = "FA6D65B5-4623-4FAC-A199-3F662257AC29";
components = (
{
name = h;
}
);
layerId = "CBD44848-52BD-4DC5-BFA6-577546B7224D";
paths = (
{
closed = 1;
nodes = (
"584 1072 LINE",
"584 1186 LINE",
"44 1186 LINE",
"44 1072 LINE"
);
}
);
width = 1089;
},
{
components = (
{
alignment = -1;
name = h;
}
);
layerId = "7C8D72FA-6E62-4564-8BB2-D9F9BC4EB15A";
paths = (
{
closed = 1;
nodes = (
"595.733 1069.6 LINE",
"595.733 1188.4 LINE",
"46.4 1188.4 LINE",
"46.4 1069.6 LINE"
);
}
);
width = 1103.66667;
}
);
leftKerningGroup = h;
rightKerningGroup = n;
unicode = 0127;
},
{
glyphname = i;
layers = (
{
anchors = (
{
name = bottom;
position = "{333, 0}";
}
);
layerId = "FA6D65B5-4623-4FAC-A199-3F662257AC29";
paths = (
{
closed = 1;
nodes = (
"605 0 LINE",
"605 62 LINE",
"465 97 LINE",
"465 950 LINE",
"428 950 LINE",
"42 866 LINE",
"42 824 LINE",
"192 776 LINE",
"192 97 LINE",
"42 62 LINE",
"42 0 LINE"
);
},
{
closed = 1;
nodes = (
"429 1082 OFFCURVE",
"482 1155 OFFCURVE",
"482 1227 CURVE SMOOTH",
"482 1304 OFFCURVE",
"422 1373 OFFCURVE",
"326 1373 CURVE SMOOTH",
"231 1373 OFFCURVE",
"174 1304 OFFCURVE",
"174 1227 CURVE SMOOTH",
"174 1155 OFFCURVE",
"227 1082 OFFCURVE",
"326 1082 CURVE SMOOTH"
);
}
);
width = 634;
},
{
anchors = (
{
name = bottom;
position = "{271, 0}";
}
);
associatedMasterId = "FA6D65B5-4623-4FAC-A199-3F662257AC29";
layerId = "CBD44848-52BD-4DC5-BFA6-577546B7224D";
paths = (
{
closed = 1;
nodes = (
"488 0 LINE",
"488 35 LINE",
"356 62 LINE",
"356 950 LINE",
"340 950 LINE",
"58 866 LINE",
"58 841 LINE",
"188 794 LINE",
"188 62 LINE",
"55 35 LINE",
"55 0 LINE"
);
},
{
closed = 1;
nodes = (
"341 1146 OFFCURVE",
"385 1197 OFFCURVE",
"385 1258 CURVE SMOOTH",
"385 1324 OFFCURVE",
"341 1373 OFFCURVE",
"271 1373 CURVE SMOOTH",
"202 1373 OFFCURVE",
"158 1324 OFFCURVE",
"158 1258 CURVE SMOOTH",
"158 1197 OFFCURVE",
"202 1146 OFFCURVE",
"271 1146 CURVE SMOOTH"
);
}
);
width = 528;
},
{
anchors = (
{
name = bottom;
position = "{279.267, 0}";
}
);
layerId = "7C8D72FA-6E62-4564-8BB2-D9F9BC4EB15A";
paths = (
{
closed = 1;
nodes = (
"503.6 0 LINE",
"503.6 38.6 LINE",
"370.533 66.667 LINE",
"370.533 950 LINE",
"351.733 950 LINE",
"55.867 866 LINE",
"55.867 838.733 LINE",
"188.533 791.6 LINE",
"188.533 66.667 LINE",
"53.267 38.6 LINE",
"53.267 0 LINE"
);
},
{
closed = 1;
nodes = (
"352.733 1137.467 OFFCURVE",
"397.933 1191.4 OFFCURVE",
"397.933 1253.867 CURVE SMOOTH",
"397.933 1321.333 OFFCURVE",
"351.8 1373 OFFCURVE",
"278.333 1373 CURVE SMOOTH",
"205.867 1373 OFFCURVE",
"160.133 1321.333 OFFCURVE",
"160.133 1253.867 CURVE SMOOTH",
"160.133 1191.4 OFFCURVE",
"205.333 1137.467 OFFCURVE",
"278.333 1137.467 CURVE SMOOTH"
);
}
);
width = 542.13333;
}
);
leftKerningGroup = i;
rightKerningGroup = i;
unicode = 0069;
},
{
glyphname = dotlessi;
layers = (
{
anchors = (
{
name = top;
position = "{316, 1146}";
}
);
layerId = "FA6D65B5-4623-4FAC-A199-3F662257AC29";
paths = (
{
closed = 1;
nodes = (
"605 0 LINE",
"605 62 LINE",
"465 97 LINE",
"465 950 LINE",
"428 950 LINE",
"42 866 LINE",
"42 824 LINE",
"192 776 LINE",
"192 97 LINE",
"42 62 LINE",
"42 0 LINE"
);
}
);
width = 634;
},
{
anchors = (
{
name = top;
position = "{271, 1146}";
}
);
associatedMasterId = "FA6D65B5-4623-4FAC-A199-3F662257AC29";
layerId = "CBD44848-52BD-4DC5-BFA6-577546B7224D";
paths = (
{
closed = 1;
nodes = (
"488 0 LINE",
"488 35 LINE",
"356 62 LINE",
"356 950 LINE",
"340 950 LINE",
"58 866 LINE",
"58 841 LINE",
"188 794 LINE",
"188 62 LINE",
"55 35 LINE",
"55 0 LINE"
);
}
);
width = 528;
},
{
anchors = (
{
name = top;
position = "{277, 1146}";
}
);
layerId = "7C8D72FA-6E62-4564-8BB2-D9F9BC4EB15A";
paths = (
{
closed = 1;
nodes = (
"503.6 0 LINE",
"503.6 38.6 LINE",
"370.533 66.667 LINE",
"370.533 950 LINE",
"351.733 950 LINE",
"55.867 866 LINE",
"55.867 838.733 LINE",
"188.533 791.6 LINE",
"188.533 66.667 LINE",
"53.267 38.6 LINE",
"53.267 0 LINE"
);
}
);
width = 542.13333;
}
);
leftKerningGroup = i;
rightKerningGroup = i;
unicode = 0131;
},
{
glyphname = j;
layers = (
{
layerId = "FA6D65B5-4623-4FAC-A199-3F662257AC29";
paths = (
{
closed = 1;
nodes = (
"174 -458 OFFCURVE",
"287 -396 OFFCURVE",
"368 -257 CURVE SMOOTH",
"424 -160 OFFCURVE",
"442 -70 OFFCURVE",
"442 121 CURVE SMOOTH",
"442 950 LINE",
"405 950 LINE",
"19 866 LINE",
"19 824 LINE",
"169 776 LINE",
"169 -84 LINE",
"169 -275 OFFCURVE",
"127 -366 OFFCURVE",
"42 -366 CURVE SMOOTH",
"-7 -366 OFFCURVE",
"-35 -338 OFFCURVE",
"-76 -253 CURVE SMOOTH",
"-107 -190 OFFCURVE",
"-137 -169 OFFCURVE",
"-192 -169 CURVE SMOOTH",
"-264 -169 OFFCURVE",
"-310 -211 OFFCURVE",
"-310 -278 CURVE SMOOTH",
"-310 -385 OFFCURVE",
"-185 -458 OFFCURVE",
"2 -458 CURVE SMOOTH"
);
},
{
closed = 1;
nodes = (
"407 1082 OFFCURVE",
"459 1155 OFFCURVE",
"459 1227 CURVE SMOOTH",
"459 1304 OFFCURVE",
"400 1373 OFFCURVE",
"303 1373 CURVE SMOOTH",
"208 1373 OFFCURVE",
"151 1304 OFFCURVE",
"151 1227 CURVE SMOOTH",
"151 1155 OFFCURVE",
"204 1082 OFFCURVE",
"303 1082 CURVE SMOOTH"
);
}
);
width = 581;
},
{
associatedMasterId = "FA6D65B5-4623-4FAC-A199-3F662257AC29";
layerId = "CBD44848-52BD-4DC5-BFA6-577546B7224D";
paths = (
{
closed = 1;
nodes = (
"83 -458 OFFCURVE",
"202 -378 OFFCURVE",
"283 -231 CURVE SMOOTH",
"334 -137 OFFCURVE",
"341 -72 OFFCURVE",
"341 273 CURVE SMOOTH",
"341 950 LINE",
"326 950 LINE",
"44 866 LINE",
"44 841 LINE",
"174 794 LINE",
"174 -84 LINE SMOOTH",
"174 -280 OFFCURVE",
"127 -375 OFFCURVE",
"28 -375 CURVE SMOOTH",
"-16 -375 OFFCURVE",
"-35 -356 OFFCURVE",
"-60 -289 CURVE SMOOTH",
"-79 -236 OFFCURVE",
"-107 -208 OFFCURVE",
"-157 -208 CURVE SMOOTH",
"-215 -208 OFFCURVE",
"-252 -248 OFFCURVE",
"-252 -313 CURVE SMOOTH",
"-252 -403 OFFCURVE",
"-178 -458 OFFCURVE",
"-58 -458 CURVE SMOOTH"
);
},
{
closed = 1;
nodes = (
"324 1146 OFFCURVE",
"371 1193 OFFCURVE",
"371 1260 CURVE SMOOTH",
"371 1325 OFFCURVE",
"324 1373 OFFCURVE",
"257 1373 CURVE SMOOTH",
"190 1373 OFFCURVE",
"144 1325 OFFCURVE",
"144 1260 CURVE SMOOTH",
"144 1193 OFFCURVE",
"190 1146 OFFCURVE",
"257 1146 CURVE SMOOTH"
);
}
);
width = 493;
},
{
layerId = "7C8D72FA-6E62-4564-8BB2-D9F9BC4EB15A";
paths = (
{
closed = 1;
nodes = (
"95.133 -458 OFFCURVE",
"213.333 -380.4 OFFCURVE",
"294.333 -234.467 CURVE SMOOTH",
"346 -140.067 OFFCURVE",
"354.467 -71.733 OFFCURVE",
"354.467 252.733 CURVE SMOOTH",
"354.467 950 LINE",
"336.533 950 LINE",
"40.667 866 LINE",
"40.667 838.733 LINE",
"173.333 791.6 LINE",
"173.333 -84 LINE SMOOTH",
"173.333 -279.333 OFFCURVE",
"127 -373.8 OFFCURVE",
"29.867 -373.8 CURVE SMOOTH",
"-14.8 -373.8 OFFCURVE",
"-35 -353.6 OFFCURVE",
"-62.133 -284.2 CURVE SMOOTH",
"-82.733 -229.867 OFFCURVE",
"-111 -202.8 OFFCURVE",
"-161.667 -202.8 CURVE SMOOTH",
"-221.533 -202.8 OFFCURVE",
"-259.733 -243.067 OFFCURVE",
"-259.733 -308.333 CURVE SMOOTH",
"-259.733 -400.6 OFFCURVE",
"-178.933 -458 OFFCURVE",
"-50 -458 CURVE SMOOTH"
);
},
{
closed = 1;
nodes = (
"335.067 1137.467 OFFCURVE",
"382.733 1187.933 OFFCURVE",
"382.733 1255.6 CURVE SMOOTH",
"382.733 1322.2 OFFCURVE",
"334.133 1373 OFFCURVE",
"263.133 1373 CURVE SMOOTH",
"192.4 1373 OFFCURVE",
"144.933 1322.2 OFFCURVE",
"144.933 1255.6 CURVE SMOOTH",
"144.933 1187.933 OFFCURVE",
"191.867 1137.467 OFFCURVE",
"263.133 1137.467 CURVE SMOOTH"
);
}
);
width = 504.73333;
}
);
leftKerningGroup = j;
rightKerningGroup = j;
unicode = 006A;
},
{
glyphname = dotlessj;
layers = (
{
anchors = (
{
name = top;
position = "{299, 1146}";
}
);
layerId = "FA6D65B5-4623-4FAC-A199-3F662257AC29";
paths = (
{
closed = 1;
nodes = (
"174 -458 OFFCURVE",
"287 -396 OFFCURVE",
"368 -257 CURVE SMOOTH",
"424 -160 OFFCURVE",
"442 -70 OFFCURVE",
"442 121 CURVE SMOOTH",
"442 950 LINE",
"405 950 LINE",
"19 866 LINE",
"19 824 LINE",
"169 776 LINE",
"169 -84 LINE SMOOTH",
"169 -275 OFFCURVE",
"127 -366 OFFCURVE",
"42 -366 CURVE SMOOTH",
"-7 -366 OFFCURVE",
"-35 -338 OFFCURVE",
"-76 -253 CURVE SMOOTH",
"-107 -190 OFFCURVE",
"-137 -169 OFFCURVE",
"-192 -169 CURVE SMOOTH",
"-264 -169 OFFCURVE",
"-310 -211 OFFCURVE",
"-310 -278 CURVE SMOOTH",
"-310 -385 OFFCURVE",
"-185 -458 OFFCURVE",
"2 -458 CURVE SMOOTH"
);
}
);
width = 581;
},
{
anchors = (
{
name = top;
position = "{260, 1146}";
}
);
associatedMasterId = "FA6D65B5-4623-4FAC-A199-3F662257AC29";
layerId = "CBD44848-52BD-4DC5-BFA6-577546B7224D";
paths = (
{
closed = 1;
nodes = (
"83 -458 OFFCURVE",
"202 -378 OFFCURVE",
"283 -231 CURVE SMOOTH",
"334 -137 OFFCURVE",
"341 -72 OFFCURVE",
"341 273 CURVE SMOOTH",
"341 950 LINE",
"326 950 LINE",
"44 866 LINE",
"44 841 LINE",
"174 794 LINE",
"174 -84 LINE SMOOTH",
"174 -280 OFFCURVE",
"127 -375 OFFCURVE",
"28 -375 CURVE SMOOTH",
"-16 -375 OFFCURVE",
"-35 -356 OFFCURVE",
"-60 -289 CURVE SMOOTH",
"-79 -236 OFFCURVE",
"-107 -208 OFFCURVE",
"-157 -208 CURVE SMOOTH",
"-215 -208 OFFCURVE",
"-252 -248 OFFCURVE",
"-252 -313 CURVE SMOOTH",
"-252 -403 OFFCURVE",
"-178 -458 OFFCURVE",
"-58 -458 CURVE SMOOTH"
);
}
);
width = 493;
},
{
anchors = (
{
name = top;
position = "{265.2, 1146}";
}
);
layerId = "7C8D72FA-6E62-4564-8BB2-D9F9BC4EB15A";
paths = (
{
closed = 1;
nodes = (
"95.133 -458 OFFCURVE",
"213.333 -380.4 OFFCURVE",
"294.333 -234.467 CURVE SMOOTH",
"346 -140.067 OFFCURVE",
"354.467 -71.733 OFFCURVE",
"354.467 252.733 CURVE SMOOTH",
"354.467 950 LINE",
"336.533 950 LINE",
"40.667 866 LINE",
"40.667 838.733 LINE",
"173.333 791.6 LINE",
"173.333 -84 LINE SMOOTH",
"173.333 -279.333 OFFCURVE",
"127 -373.8 OFFCURVE",
"29.867 -373.8 CURVE SMOOTH",
"-14.8 -373.8 OFFCURVE",
"-35 -353.6 OFFCURVE",
"-62.133 -284.2 CURVE SMOOTH",
"-82.733 -229.867 OFFCURVE",
"-111 -202.8 OFFCURVE",
"-161.667 -202.8 CURVE SMOOTH",
"-221.533 -202.8 OFFCURVE",
"-259.733 -243.067 OFFCURVE",
"-259.733 -308.333 CURVE SMOOTH",
"-259.733 -400.6 OFFCURVE",
"-178.933 -458 OFFCURVE",
"-50 -458 CURVE SMOOTH"
);
}
);
width = 504.73333;
}
);
leftKerningGroup = j;
rightKerningGroup = j;
unicode = 0237;
},
{
glyphname = k;
layers = (
{
anchors = (
{
name = bottom;
position = "{674, 0}";
}
);
layerId = "FA6D65B5-4623-4FAC-A199-3F662257AC29";
paths = (
{
closed = 1;
nodes = (
"602 0 LINE",
"602 62 LINE",
"449 97 LINE",
"449 1461 LINE",
"410 1461 LINE",
"26 1375 LINE",
"26 1334 LINE",
"176 1287 LINE",
"176 97 LINE",
"26 62 LINE",
"26 0 LINE"
);
},
{
closed = 1;
nodes = (
"1200 0 LINE",
"1200 62 LINE",
"1056 97 LINE",
"697 658 LINE",
"537 440 LINE",
"792 0 LINE"
);
},
{
closed = 1;
nodes = (
"873 771 LINE SMOOTH",
"931 829 OFFCURVE",
"956 848 OFFCURVE",
"1112 871 CURVE",
"1112 933 LINE",
"628 933 LINE",
"628 871 LINE",
"748 859 OFFCURVE",
"780 850 OFFCURVE",
"780 829 CURVE SMOOTH",
"780 815 OFFCURVE",
"764 796 OFFCURVE",
"736 766 CURVE SMOOTH",
"357 368 LINE",
"396 283 LINE"
);
}
);
width = 1170;
},
{
anchors = (
{
name = bottom;
position = "{574, 0}";
}
);
associatedMasterId = "FA6D65B5-4623-4FAC-A199-3F662257AC29";
layerId = "CBD44848-52BD-4DC5-BFA6-577546B7224D";
paths = (
{
closed = 1;
nodes = (
"468 0 LINE",
"468 35 LINE",
"336 62 LINE",
"336 1461 LINE",
"319 1461 LINE",
"46 1375 LINE",
"46 1352 LINE",
"174 1304 LINE",
"174 62 LINE",
"40 35 LINE",
"40 0 LINE"
);
},
{
closed = 1;
nodes = (
"1077 0 LINE",
"1077 35 LINE",
"929 62 LINE",
"495 584 LINE",
"389 463 LINE",
"769 0 LINE"
);
},
{
closed = 1;
nodes = (
"709 797 LINE SMOOTH",
"762 859 OFFCURVE",
"788 871 OFFCURVE",
"931 898 CURVE",
"931 933 LINE",
"537 933 LINE",
"537 898 LINE",
"641 885 OFFCURVE",
"667 876 OFFCURVE",
"667 855 CURVE SMOOTH",
"667 841 OFFCURVE",
"655 820 OFFCURVE",
"630 792 CURVE SMOOTH",
"287 403 LINE",
"297 319 LINE"
);
}
);
width = 1006;
},
{
anchors = (
{
name = bottom;
position = "{587.333, 0}";
}
);
layerId = "7C8D72FA-6E62-4564-8BB2-D9F9BC4EB15A";
paths = (
{
closed = 1;
nodes = (
"485.867 0 LINE",
"485.867 38.6 LINE",
"351.067 66.667 LINE",
"351.067 1461 LINE",
"331.133 1461 LINE",
"43.333 1375 LINE",
"43.333 1349.6 LINE",
"174.267 1301.733 LINE",
"174.267 66.667 LINE",
"38.133 38.6 LINE",
"38.133 0 LINE"
);
},
{
closed = 1;
nodes = (
"1093.4 0 LINE",
"1093.4 38.6 LINE",
"945.933 66.667 LINE",
"521.933 593.867 LINE",
"408.733 459.933 LINE",
"772.067 0 LINE"
);
},
{
closed = 1;
nodes = (
"730.867 793.533 LINE SMOOTH",
"784.533 855 OFFCURVE",
"810.4 867.933 OFFCURVE",
"955.133 894.4 CURVE",
"955.133 933 LINE",
"549.133 933 LINE",
"549.133 894.4 LINE",
"655.267 881.533 OFFCURVE",
"682.067 872.533 OFFCURVE",
"682.067 851.533 CURVE SMOOTH",
"682.067 837.533 OFFCURVE",
"669.533 816.8 OFFCURVE",
"644.133 788.533 CURVE SMOOTH",
"296.333 398.333 LINE",
"310.2 314.2 LINE"
);
}
);
width = 1027.86667;
}
);
leftKerningGroup = h;
rightKerningGroup = k;
unicode = 006B;
},
{
glyphname = kgreenlandic;
layers = (
{
layerId = "FA6D65B5-4623-4FAC-A199-3F662257AC29";
paths = (
{
closed = 1;
nodes = (
"622 0 LINE",
"622 62 LINE",
"469 97 LINE",
"469 950 LINE",
"430 950 LINE",
"46 864 LINE",
"46 824 LINE",
"196 776 LINE",
"196 97 LINE",
"46 62 LINE",
"46 0 LINE"
);
},
{
closed = 1;
nodes = (
"1220 0 LINE",
"1220 62 LINE",
"1076 97 LINE",
"717 658 LINE",
"557 440 LINE",
"812 0 LINE"
);
},
{
closed = 1;
nodes = (
"893 771 LINE SMOOTH",
"951 829 OFFCURVE",
"976 848 OFFCURVE",
"1132 871 CURVE",
"1132 933 LINE",
"648 933 LINE",
"648 871 LINE",
"768 859 OFFCURVE",
"800 850 OFFCURVE",
"800 829 CURVE SMOOTH",
"800 815 OFFCURVE",
"784 796 OFFCURVE",
"756 766 CURVE SMOOTH",
"377 368 LINE",
"416 283 LINE"
);
}
);
width = 1190;
},
{
associatedMasterId = "FA6D65B5-4623-4FAC-A199-3F662257AC29";
layerId = "CBD44848-52BD-4DC5-BFA6-577546B7224D";
paths = (
{
closed = 1;
nodes = (
"482 0 LINE",
"482 35 LINE",
"350 62 LINE",
"350 950 LINE",
"333 950 LINE",
"60 864 LINE",
"60 841 LINE",
"188 794 LINE",
"188 62 LINE",
"55 35 LINE",
"55 0 LINE"
);
},
{
closed = 1;
nodes = (
"1091 0 LINE",
"1091 35 LINE",
"943 62 LINE",
"509 584 LINE",
"403 463 LINE",
"783 0 LINE"
);
},
{
closed = 1;
nodes = (
"723 797 LINE SMOOTH",
"776 859 OFFCURVE",
"803 871 OFFCURVE",
"945 898 CURVE",
"945 933 LINE",
"551 933 LINE",
"551 898 LINE",
"655 885 OFFCURVE",
"681 876 OFFCURVE",
"681 855 CURVE SMOOTH",
"681 841 OFFCURVE",
"669 820 OFFCURVE",
"644 792 CURVE SMOOTH",
"301 403 LINE",
"312 319 LINE"
);
}
);
width = 1020;
},
{
layerId = "7C8D72FA-6E62-4564-8BB2-D9F9BC4EB15A";
paths = (
{
closed = 1;
nodes = (
"500.667 0 LINE",
"500.667 38.6 LINE",
"365.867 66.667 LINE",
"365.867 950 LINE",
"345.933 950 LINE",
"58.133 864 LINE",
"58.133 838.733 LINE",
"189.067 791.6 LINE",
"189.067 66.667 LINE",
"53.8 38.6 LINE",
"53.8 0 LINE"
);
},
{
closed = 1;
nodes = (
"1108.2 0 LINE",
"1108.2 38.6 LINE",
"960.733 66.667 LINE",
"536.733 593.867 LINE",
"423.533 459.933 LINE",
"786.867 0 LINE"
);
},
{
closed = 1;
nodes = (
"745.667 793.533 LINE SMOOTH",
"799.333 855 OFFCURVE",
"826.067 867.933 OFFCURVE",
"969.933 894.4 CURVE",
"969.933 933 LINE",
"563.933 933 LINE",
"563.933 894.4 LINE",
"670.067 881.533 OFFCURVE",
"696.867 872.533 OFFCURVE",
"696.867 851.533 CURVE SMOOTH",
"696.867 837.533 OFFCURVE",
"684.333 816.8 OFFCURVE",
"658.933 788.533 CURVE SMOOTH",
"311.133 398.333 LINE",
"325.867 314.2 LINE"
);
}
);
width = 1042.66667;
}
);
leftMetricsKey = n;
rightMetricsKey = k;
unicode = 0138;
},
{
glyphname = l;
layers = (
{
anchors = (
{
name = bottom;
position = "{319, 0}";
},
{
name = topcap;
position = "{314, 1508}";
}
);
layerId = "FA6D65B5-4623-4FAC-A199-3F662257AC29";
paths = (
{
closed = 1;
nodes = (
"593 0 LINE",
"593 62 LINE",
"452 97 LINE",
"452 1461 LINE",
"415 1461 LINE",
"30 1376 LINE",
"30 1334 LINE",
"180 1287 LINE",
"180 97 LINE",
"30 62 LINE",
"30 0 LINE"
);
}
);
width = 627;
},
{
anchors = (
{
name = bottom;
position = "{254, 0}";
},
{
name = topcap;
position = "{254, 1508}";
}
);
associatedMasterId = "FA6D65B5-4623-4FAC-A199-3F662257AC29";
layerId = "CBD44848-52BD-4DC5-BFA6-577546B7224D";
paths = (
{
closed = 1;
nodes = (
"473 0 LINE",
"473 35 LINE",
"341 62 LINE",
"341 1461 LINE",
"325 1461 LINE",
"43 1377 LINE",
"43 1352 LINE",
"173 1305 LINE",
"173 62 LINE",
"40 35 LINE",
"40 0 LINE"
);
}
);
width = 513;
},
{
anchors = (
{
name = bottom;
position = "{253, 0}";
},
{
name = topcap;
position = "{253, 1508}";
}
);
associatedMasterId = "CBD44848-52BD-4DC5-BFA6-577546B7224D";
layerId = "49171B4C-9787-4E4D-BDE1-9BE5B70CD83A";
name = "Nov 19 18, 13:46";
paths = (
{
closed = 1;
nodes = (
"458 0 LINE",
"458 33 LINE",
"336 60 LINE",
"336 1461 LINE",
"320 1461 LINE",
"51 1375 LINE",
"51 1352 LINE",
"174 1306 LINE",
"174 60 LINE",
"51 33 LINE",
"51 0 LINE"
);
}
);
width = 509;
},
{
anchors = (
{
name = bottom;
position = "{262.667, 0}";
},
{
name = topcap;
position = "{262, 1508}";
}
);
layerId = "7C8D72FA-6E62-4564-8BB2-D9F9BC4EB15A";
paths = (
{
closed = 1;
nodes = (
"489 0 LINE",
"489 38.6 LINE",
"355.8 66.667 LINE",
"355.8 1461 LINE",
"337 1461 LINE",
"41.267 1376.867 LINE",
"41.267 1349.6 LINE",
"173.933 1302.6 LINE",
"173.933 66.667 LINE",
"38.667 38.6 LINE",
"38.667 0 LINE"
);
}
);
width = 528.2;
}
);
leftKerningGroup = l;
rightKerningGroup = l;
unicode = 006C;
},
{
glyphname = lacute;
layers = (
{
layerId = "FA6D65B5-4623-4FAC-A199-3F662257AC29";
paths = (
{
closed = 1;
nodes = (
"593 0 LINE",
"593 62 LINE",
"452 97 LINE",
"452 1461 LINE",
"415 1461 LINE",
"30 1376 LINE",
"30 1334 LINE",
"180 1287 LINE",
"180 97 LINE",
"30 62 LINE",
"30 0 LINE"
);
},
{
closed = 1;
nodes = (
"348 1514 LINE SMOOTH",
"440 1540 OFFCURVE",
"468 1573 OFFCURVE",
"468 1614 CURVE SMOOTH",
"468 1658 OFFCURVE",
"431 1690 OFFCURVE",
"392 1690 CURVE SMOOTH",
"364 1690 OFFCURVE",
"341 1681 OFFCURVE",
"315 1661 CURVE SMOOTH",
"62 1473 LINE",
"81 1436 LINE"
);
}
);
width = 627;
},
{
associatedMasterId = "FA6D65B5-4623-4FAC-A199-3F662257AC29";
layerId = "CBD44848-52BD-4DC5-BFA6-577546B7224D";
paths = (
{
closed = 1;
nodes = (
"458 0 LINE",
"458 33 LINE",
"336 60 LINE",
"336 1461 LINE",
"320 1461 LINE",
"51 1375 LINE",
"51 1352 LINE",
"174 1306 LINE",
"174 60 LINE",
"51 33 LINE",
"51 0 LINE"
);
},
{
closed = 1;
nodes = (
"334 1514 LINE SMOOTH",
"426 1540 OFFCURVE",
"454 1573 OFFCURVE",
"454 1614 CURVE SMOOTH",
"454 1658 OFFCURVE",
"417 1690 OFFCURVE",
"378 1690 CURVE SMOOTH",
"350 1690 OFFCURVE",
"327 1681 OFFCURVE",
"301 1661 CURVE SMOOTH",
"48 1473 LINE",
"67 1436 LINE"
);
}
);
width = 509;
},
{
layerId = "7C8D72FA-6E62-4564-8BB2-D9F9BC4EB15A";
paths = (
{
closed = 1;
nodes = (
"476 0 LINE",
"476 36.867 LINE",
"351.467 64.933 LINE",
"351.467 1461 LINE",
"332.667 1461 LINE",
"48.2 1375.133 LINE",
"48.2 1349.6 LINE",
"174.8 1303.467 LINE",
"174.8 64.933 LINE",
"48.2 36.867 LINE",
"48.2 0 LINE"
);
},
{
closed = 1;
nodes = (
"335.867 1514 LINE SMOOTH",
"427.867 1540 OFFCURVE",
"455.867 1573 OFFCURVE",
"455.867 1614 CURVE SMOOTH",
"455.867 1658 OFFCURVE",
"418.867 1690 OFFCURVE",
"379.867 1690 CURVE SMOOTH",
"351.867 1690 OFFCURVE",
"328.867 1681 OFFCURVE",
"302.867 1661 CURVE SMOOTH",
"49.867 1473 LINE",
"68.867 1436 LINE"
);
}
);
width = 524.73333;
}
);
leftKerningGroup = l;
rightKerningGroup = l;
unicode = 013A;
},
{
glyphname = lslash;
layers = (
{
components = (
{
name = l;
transform = "{1, 0, 0, 1, 4, 0}";
}
);
layerId = "FA6D65B5-4623-4FAC-A199-3F662257AC29";
paths = (
{
closed = 1;
nodes = (
"600 796 LINE",
"600 963 LINE",
"51 671 LINE",
"51 503 LINE"
);
}
);
width = 634;
},
{
associatedMasterId = "FA6D65B5-4623-4FAC-A199-3F662257AC29";
components = (
{
name = l;
transform = "{1, 0, 0, 1, 5, 0}";
}
);
layerId = "CBD44848-52BD-4DC5-BFA6-577546B7224D";
paths = (
{
closed = 1;
nodes = (
"496 787 LINE",
"496 901 LINE",
"33 653 LINE",
"33 539 LINE"
);
}
);
width = 524;
},
{
components = (
{
alignment = -1;
name = l;
transform = "{1, 0, 0, 1, 4.867, 0}";
}
);
layerId = "7C8D72FA-6E62-4564-8BB2-D9F9BC4EB15A";
paths = (
{
closed = 1;
nodes = (
"509.867 788.2 LINE",
"509.867 909.267 LINE",
"35.4 655.4 LINE",
"35.4 534.2 LINE"
);
}
);
width = 538.66667;
}
);
leftKerningGroup = l;
rightKerningGroup = l;
unicode = 0142;
},
{
glyphname = m;
layers = (
{
layerId = "FA6D65B5-4623-4FAC-A199-3F662257AC29";
paths = (
{
closed = 1;
nodes = (
"574 0 LINE",
"574 62 LINE",
"451 97 LINE",
"451 818 LINE",
"444 827 LINE",
"444 950 LINE",
"373 950 LINE",
"49 864 LINE",
"49 824 LINE",
"178 774 LINE",
"178 97 LINE",
"46 62 LINE",
"46 0 LINE"
);
},
{
closed = 1;
nodes = (
"1155 0 LINE",
"1155 62 LINE",
"1031 97 LINE",
"1031 560 LINE SMOOTH",
"1031 722 OFFCURVE",
"1026 766 OFFCURVE",
"1005 810 CURVE SMOOTH",
"959 903 OFFCURVE",
"873 950 OFFCURVE",
"755 950 CURVE SMOOTH",
"630 950 OFFCURVE",
"488 889 OFFCURVE",
"405 799 CURVE",
"405 685 LINE",
"454 759 OFFCURVE",
"510 796 OFFCURVE",
"584 796 CURVE SMOOTH",
"665 796 OFFCURVE",
"718 762 OFFCURVE",
"741 702 CURVE SMOOTH",
"755 667 OFFCURVE",
"759 616 OFFCURVE",
"759 491 CURVE SMOOTH",
"759 97 LINE",
"635 62 LINE",
"635 0 LINE"
);
},
{
closed = 1;
nodes = (
"1735 0 LINE",
"1735 62 LINE",
"1612 97 LINE",
"1612 560 LINE SMOOTH",
"1612 722 OFFCURVE",
"1607 766 OFFCURVE",
"1586 810 CURVE SMOOTH",
"1540 903 OFFCURVE",
"1454 950 OFFCURVE",
"1336 950 CURVE SMOOTH",
"1211 950 OFFCURVE",
"1068 889 OFFCURVE",
"986 799 CURVE",
"986 683 LINE",
"1035 757 OFFCURVE",
"1091 794 OFFCURVE",
"1165 794 CURVE SMOOTH",
"1246 794 OFFCURVE",
"1299 760 OFFCURVE",
"1322 702 CURVE SMOOTH",
"1336 667 OFFCURVE",
"1339 616 OFFCURVE",
"1339 491 CURVE SMOOTH",
"1339 97 LINE",
"1216 62 LINE",
"1216 0 LINE"
);
}
);
width = 1774;
},
{
associatedMasterId = "FA6D65B5-4623-4FAC-A199-3F662257AC29";
layerId = "CBD44848-52BD-4DC5-BFA6-577546B7224D";
paths = (
{
closed = 1;
nodes = (
"488 0 LINE",
"488 35 LINE",
"356 62 LINE",
"356 783 LINE",
"348 792 LINE",
"348 950 LINE",
"331 950 LINE",
"58 864 LINE",
"58 841 LINE",
"188 792 LINE",
"188 62 LINE",
"55 35 LINE",
"55 0 LINE"
);
},
{
closed = 1;
nodes = (
"1021 0 LINE",
"1021 35 LINE",
"889 60 LINE",
"889 595 LINE SMOOTH",
"889 778 OFFCURVE",
"880 817 OFFCURVE",
"866 845 CURVE SMOOTH",
"836 910 OFFCURVE",
"764 950 OFFCURVE",
"679 950 CURVE SMOOTH",
"563 950 OFFCURVE",
"440 892 OFFCURVE",
"338 790 CURVE",
"338 722 LINE",
"400 806 OFFCURVE",
"488 854 OFFCURVE",
"581 854 CURVE SMOOTH",
"642 854 OFFCURVE",
"681 827 OFFCURVE",
"700 773 CURVE SMOOTH",
"711 734 OFFCURVE",
"722 678 OFFCURVE",
"722 577 CURVE SMOOTH",
"722 60 LINE",
"590 35 LINE",
"590 0 LINE"
);
},
{
closed = 1;
nodes = (
"1554 0 LINE",
"1554 35 LINE",
"1422 60 LINE",
"1422 595 LINE SMOOTH",
"1422 764 OFFCURVE",
"1417 808 OFFCURVE",
"1399 845 CURVE SMOOTH",
"1368 910 OFFCURVE",
"1297 950 OFFCURVE",
"1213 950 CURVE SMOOTH",
"1096 950 OFFCURVE",
"973 892 OFFCURVE",
"871 790 CURVE",
"871 722 LINE",
"933 806 OFFCURVE",
"1021 854 OFFCURVE",
"1114 854 CURVE SMOOTH",
"1176 854 OFFCURVE",
"1216 827 OFFCURVE",
"1234 773 CURVE SMOOTH",
"1246 734 OFFCURVE",
"1255 678 OFFCURVE",
"1255 577 CURVE SMOOTH",
"1255 60 LINE",
"1123 35 LINE",
"1123 0 LINE"
);
}
);
width = 1596;
},
{
layerId = "7C8D72FA-6E62-4564-8BB2-D9F9BC4EB15A";
paths = (
{
closed = 1;
nodes = (
"499.467 0 LINE",
"499.467 38.6 LINE",
"368.667 66.667 LINE",
"368.667 787.667 LINE",
"360.8 796.667 LINE",
"360.8 950 LINE",
"336.6 950 LINE",
"56.8 864 LINE",
"56.8 838.733 LINE",
"186.667 789.6 LINE",
"186.667 66.667 LINE",
"53.8 38.6 LINE",
"53.8 0 LINE"
);
},
{
closed = 1;
nodes = (
"1038.867 0 LINE",
"1038.867 38.6 LINE",
"907.933 64.933 LINE",
"907.933 590.333 LINE SMOOTH",
"907.933 770.533 OFFCURVE",
"899.467 810.2 OFFCURVE",
"884.533 840.333 CURVE SMOOTH",
"852.4 909.067 OFFCURVE",
"778.533 950 OFFCURVE",
"689.133 950 CURVE SMOOTH",
"571.933 950 OFFCURVE",
"446.4 891.6 OFFCURVE",
"346.933 791.2 CURVE",
"346.933 717.067 LINE",
"407.2 799.733 OFFCURVE",
"490.933 846.267 OFFCURVE",
"581.4 846.267 CURVE SMOOTH",
"645.067 846.267 OFFCURVE",
"685.933 818.333 OFFCURVE",
"705.467 763.533 CURVE SMOOTH",
"716.867 725.067 OFFCURVE",
"726.933 669.733 OFFCURVE",
"726.933 565.533 CURVE SMOOTH",
"726.933 64.933 LINE",
"596 38.6 LINE",
"596 0 LINE"
);
},
{
closed = 1;
nodes = (
"1578.133 0 LINE",
"1578.133 38.6 LINE",
"1447.333 64.933 LINE",
"1447.333 590.333 LINE SMOOTH",
"1447.333 758.4 OFFCURVE",
"1442.333 802.4 OFFCURVE",
"1423.933 840.333 CURVE SMOOTH",
"1390.933 909.067 OFFCURVE",
"1317.933 950 OFFCURVE",
"1229.4 950 CURVE SMOOTH",
"1111.333 950 OFFCURVE",
"985.667 891.6 OFFCURVE",
"886.333 791.2 CURVE",
"886.333 716.8 LINE",
"946.6 799.467 OFFCURVE",
"1030.333 846 OFFCURVE",
"1120.8 846 CURVE SMOOTH",
"1185.333 846 OFFCURVE",
"1227.067 818.067 OFFCURVE",
"1245.733 763.533 CURVE SMOOTH",
"1258 725.067 OFFCURVE",
"1266.2 669.733 OFFCURVE",
"1266.2 565.533 CURVE SMOOTH",
"1266.2 64.933 LINE",
"1135.4 38.6 LINE",
"1135.4 0 LINE"
);
}
);
width = 1619.73333;
}
);
leftKerningGroup = n;
unicode = 006D;
},
{
glyphname = n;
layers = (
{
anchors = (
{
name = bottom;
position = "{614, 0}";
},
{
name = top;
position = "{618, 1146}";
}
);
layerId = "FA6D65B5-4623-4FAC-A199-3F662257AC29";
paths = (
{
closed = 1;
nodes = (
"1172 0 LINE",
"1172 62 LINE",
"1040 97 LINE",
"1040 560 LINE SMOOTH",
"1040 716 OFFCURVE",
"1035 764 OFFCURVE",
"1014 810 CURVE SMOOTH",
"970 899 OFFCURVE",
"882 950 OFFCURVE",
"767 950 CURVE SMOOTH",
"644 950 OFFCURVE",
"510 894 OFFCURVE",
"431 808 CURVE",
"431 697 LINE",
"475 764 OFFCURVE",
"524 792 OFFCURVE",
"595 792 CURVE SMOOTH",
"669 792 OFFCURVE",
"725 760 OFFCURVE",
"750 702 CURVE SMOOTH",
"764 671 OFFCURVE",
"767 628 OFFCURVE",
"767 491 CURVE SMOOTH",
"767 97 LINE",
"644 62 LINE",
"644 0 LINE"
);
},
{
closed = 1;
nodes = (
"576 0 LINE",
"576 62 LINE",
"452 97 LINE",
"452 792 LINE",
"444 801 LINE",
"444 950 LINE",
"405 950 LINE",
"46 864 LINE",
"46 824 LINE",
"180 774 LINE",
"180 97 LINE",
"48 62 LINE",
"48 0 LINE"
);
}
);
width = 1204;
},
{
anchors = (
{
name = bottom;
position = "{547, 0}";
},
{
name = top;
position = "{551, 1146}";
}
);
associatedMasterId = "FA6D65B5-4623-4FAC-A199-3F662257AC29";
layerId = "CBD44848-52BD-4DC5-BFA6-577546B7224D";
paths = (
{
closed = 1;
nodes = (
"1038 0 LINE",
"1038 35 LINE",
"906 60 LINE",
"906 595 LINE SMOOTH",
"906 764 OFFCURVE",
"903 808 OFFCURVE",
"884 845 CURVE SMOOTH",
"850 910 OFFCURVE",
"773 950 OFFCURVE",
"679 950 CURVE SMOOTH",
"563 950 OFFCURVE",
"440 892 OFFCURVE",
"338 790 CURVE",
"338 722 LINE",
"400 806 OFFCURVE",
"488 854 OFFCURVE",
"581 854 CURVE SMOOTH",
"651 854 OFFCURVE",
"695 827 OFFCURVE",
"718 773 CURVE SMOOTH",
"734 734 OFFCURVE",
"739 678 OFFCURVE",
"739 577 CURVE SMOOTH",
"739 60 LINE",
"607 35 LINE",
"607 0 LINE"
);
},
{
closed = 1;
nodes = (
"488 0 LINE",
"488 35 LINE",
"356 62 LINE",
"356 783 LINE",
"348 792 LINE",
"348 950 LINE",
"331 950 LINE",
"58 864 LINE",
"58 841 LINE",
"188 792 LINE",
"188 62 LINE",
"55 35 LINE",
"55 0 LINE"
);
}
);
width = 1075;
},
{
anchors = (
{
name = bottom;
position = "{555.933, 0}";
},
{
name = top;
position = "{559.933, 1146}";
}
);
layerId = "7C8D72FA-6E62-4564-8BB2-D9F9BC4EB15A";
paths = (
{
closed = 1;
nodes = (
"1055.867 0 LINE",
"1055.867 38.6 LINE",
"923.867 64.933 LINE",
"923.867 590.333 LINE SMOOTH",
"923.867 757.6 OFFCURVE",
"920.6 802.133 OFFCURVE",
"901.333 840.333 CURVE SMOOTH",
"866 908.533 OFFCURVE",
"787.533 950 OFFCURVE",
"690.733 950 CURVE SMOOTH",
"573.8 950 OFFCURVE",
"449.333 892.267 OFFCURVE",
"350.4 792.4 CURVE",
"350.4 718.667 LINE",
"410 800.4 OFFCURVE",
"492.8 845.733 OFFCURVE",
"582.867 845.733 CURVE SMOOTH",
"653.4 845.733 OFFCURVE",
"699 818.067 OFFCURVE",
"722.267 763.533 CURVE SMOOTH",
"738 725.6 OFFCURVE",
"742.733 671.333 OFFCURVE",
"742.733 565.533 CURVE SMOOTH",
"742.733 64.933 LINE",
"611.933 38.6 LINE",
"611.933 0 LINE"
);
},
{
closed = 1;
nodes = (
"499.733 0 LINE",
"499.733 38.6 LINE",
"368.8 66.667 LINE",
"368.8 784.2 LINE",
"360.8 793.2 LINE",
"360.8 950 LINE",
"340.867 950 LINE",
"56.4 864 LINE",
"56.4 838.733 LINE",
"186.933 789.6 LINE",
"186.933 66.667 LINE",
"54.067 38.6 LINE",
"54.067 0 LINE"
);
}
);
width = 1092.2;
}
);
leftKerningGroup = n;
rightKerningGroup = n;
unicode = 006E;
},
{
glyphname = eng;
layers = (
{
layerId = "FA6D65B5-4623-4FAC-A199-3F662257AC29";
paths = (
{
closed = 1;
nodes = (
"576 0 LINE",
"576 62 LINE",
"452 97 LINE",
"452 792 LINE",
"444 801 LINE",
"444 950 LINE",
"405 950 LINE",
"46 864 LINE",
"46 824 LINE",
"180 774 LINE",
"180 97 LINE",
"48 62 LINE",
"48 0 LINE"
);
},
{
closed = 1;
nodes = (
"1040 97 LINE",
"1040 560 LINE SMOOTH",
"1040 716 OFFCURVE",
"1035 764 OFFCURVE",
"1014 810 CURVE SMOOTH",
"970 899 OFFCURVE",
"882 950 OFFCURVE",
"767 950 CURVE SMOOTH",
"644 950 OFFCURVE",
"510 894 OFFCURVE",
"431 808 CURVE",
"431 697 LINE",
"475 764 OFFCURVE",
"524 792 OFFCURVE",
"595 792 CURVE SMOOTH",
"669 792 OFFCURVE",
"725 760 OFFCURVE",
"750 702 CURVE SMOOTH",
"764 671 OFFCURVE",
"767 628 OFFCURVE",
"767 491 CURVE SMOOTH",
"767 97 LINE"
);
},
{
closed = 1;
nodes = (
"773 -458 OFFCURVE",
"885 -396 OFFCURVE",
"966 -257 CURVE SMOOTH",
"1023 -160 OFFCURVE",
"1040 -70 OFFCURVE",
"1040 121 CURVE",
"767 201 LINE",
"767 -84 LINE SMOOTH",
"767 -275 OFFCURVE",
"725 -366 OFFCURVE",
"641 -366 CURVE SMOOTH",
"591 -366 OFFCURVE",
"563 -338 OFFCURVE",
"523 -253 CURVE SMOOTH",
"491 -190 OFFCURVE",
"461 -169 OFFCURVE",
"407 -169 CURVE SMOOTH",
"334 -169 OFFCURVE",
"289 -211 OFFCURVE",
"289 -278 CURVE SMOOTH",
"289 -385 OFFCURVE",
"414 -458 OFFCURVE",
"600 -458 CURVE SMOOTH"
);
}
);
width = 1163;
},
{
associatedMasterId = "FA6D65B5-4623-4FAC-A199-3F662257AC29";
layerId = "CBD44848-52BD-4DC5-BFA6-577546B7224D";
paths = (
{
closed = 1;
nodes = (
"488 0 LINE",
"488 35 LINE",
"356 62 LINE",
"356 783 LINE",
"348 792 LINE",
"348 950 LINE",
"331 950 LINE",
"58 864 LINE",
"58 841 LINE",
"188 792 LINE",
"188 62 LINE",
"55 35 LINE",
"55 0 LINE"
);
},
{
closed = 1;
nodes = (
"906 238 LINE",
"906 595 LINE SMOOTH",
"906 764 OFFCURVE",
"903 808 OFFCURVE",
"884 845 CURVE SMOOTH",
"850 910 OFFCURVE",
"773 950 OFFCURVE",
"679 950 CURVE SMOOTH",
"563 950 OFFCURVE",
"440 892 OFFCURVE",
"338 790 CURVE",
"338 722 LINE",
"400 806 OFFCURVE",
"488 854 OFFCURVE",
"581 854 CURVE SMOOTH",
"651 854 OFFCURVE",
"695 827 OFFCURVE",
"718 773 CURVE SMOOTH",
"734 734 OFFCURVE",
"739 678 OFFCURVE",
"739 577 CURVE SMOOTH",
"739 238 LINE"
);
},
{
closed = 1;
nodes = (
"648 -458 OFFCURVE",
"767 -378 OFFCURVE",
"848 -231 CURVE SMOOTH",
"899 -137 OFFCURVE",
"906 -72 OFFCURVE",
"906 273 CURVE",
"739 333 LINE",
"739 -84 LINE SMOOTH",
"739 -280 OFFCURVE",
"692 -375 OFFCURVE",
"593 -375 CURVE SMOOTH",
"549 -375 OFFCURVE",
"530 -356 OFFCURVE",
"505 -289 CURVE SMOOTH",
"486 -236 OFFCURVE",
"458 -208 OFFCURVE",
"408 -208 CURVE SMOOTH",
"350 -208 OFFCURVE",
"313 -248 OFFCURVE",
"313 -313 CURVE SMOOTH",
"313 -403 OFFCURVE",
"387 -458 OFFCURVE",
"507 -458 CURVE SMOOTH"
);
}
);
width = 1049;
},
{
layerId = "7C8D72FA-6E62-4564-8BB2-D9F9BC4EB15A";
paths = (
{
closed = 1;
nodes = (
"499.733 0 LINE",
"499.733 38.6 LINE",
"368.8 66.667 LINE",
"368.8 784.2 LINE",
"360.8 793.2 LINE",
"360.8 950 LINE",
"340.867 950 LINE",
"56.4 864 LINE",
"56.4 838.733 LINE",
"186.933 789.6 LINE",
"186.933 66.667 LINE",
"54.067 38.6 LINE",
"54.067 0 LINE"
);
},
{
closed = 1;
nodes = (
"923.867 219.2 LINE",
"923.867 590.333 LINE SMOOTH",
"923.867 757.6 OFFCURVE",
"920.6 802.133 OFFCURVE",
"901.333 840.333 CURVE SMOOTH",
"866 908.533 OFFCURVE",
"787.533 950 OFFCURVE",
"690.733 950 CURVE SMOOTH",
"573.8 950 OFFCURVE",
"449.333 892.267 OFFCURVE",
"350.4 792.4 CURVE",
"350.4 718.667 LINE",
"410 800.4 OFFCURVE",
"492.8 845.733 OFFCURVE",
"582.867 845.733 CURVE SMOOTH",
"653.4 845.733 OFFCURVE",
"699 818.067 OFFCURVE",
"722.267 763.533 CURVE SMOOTH",
"738 725.6 OFFCURVE",
"742.733 671.333 OFFCURVE",
"742.733 565.533 CURVE SMOOTH",
"742.733 219.2 LINE"
);
},
{
closed = 1;
nodes = (
"664.667 -458 OFFCURVE",
"782.733 -380.4 OFFCURVE",
"863.733 -234.467 CURVE SMOOTH",
"915.533 -140.067 OFFCURVE",
"923.867 -71.733 OFFCURVE",
"923.867 252.733 CURVE",
"742.733 315.4 LINE",
"742.733 -84 LINE SMOOTH",
"742.733 -279.333 OFFCURVE",
"696.4 -373.8 OFFCURVE",
"599.4 -373.8 CURVE SMOOTH",
"554.6 -373.8 OFFCURVE",
"534.4 -353.6 OFFCURVE",
"507.4 -284.2 CURVE SMOOTH",
"486.667 -229.867 OFFCURVE",
"458.4 -202.8 OFFCURVE",
"407.867 -202.8 CURVE SMOOTH",
"347.867 -202.8 OFFCURVE",
"309.8 -243.067 OFFCURVE",
"309.8 -308.333 CURVE SMOOTH",
"309.8 -400.6 OFFCURVE",
"390.6 -458 OFFCURVE",
"519.4 -458 CURVE SMOOTH"
);
}
);
width = 1064.2;
}
);
leftKerningGroup = n;
unicode = 014B;
},
{
glyphname = o;
layers = (
{
anchors = (
{
name = bottom;
position = "{565, -4}";
},
{
name = top;
position = "{565, 1146}";
}
);
layerId = "FA6D65B5-4623-4FAC-A199-3F662257AC29";
paths = (
{
closed = 1;
nodes = (
"887 -18 OFFCURVE",
"1067 201 OFFCURVE",
"1067 466 CURVE SMOOTH",
"1067 732 OFFCURVE",
"887 950 OFFCURVE",
"565 950 CURVE SMOOTH",
"243 950 OFFCURVE",
"63 732 OFFCURVE",
"63 466 CURVE SMOOTH",
"63 201 OFFCURVE",
"243 -18 OFFCURVE",
"565 -18 CURVE SMOOTH"
);
},
{
closed = 1;
nodes = (
"391 72 OFFCURVE",
"359 303 OFFCURVE",
"359 466 CURVE SMOOTH",
"359 628 OFFCURVE",
"391 859 OFFCURVE",
"565 859 CURVE SMOOTH",
"739 859 OFFCURVE",
"771 628 OFFCURVE",
"771 466 CURVE SMOOTH",
"771 303 OFFCURVE",
"736 72 OFFCURVE",
"565 72 CURVE SMOOTH"
);
}
);
width = 1130;
},
{
anchors = (
{
name = bottom;
position = "{544, -4}";
},
{
name = top;
position = "{544, 1146}";
}
);
associatedMasterId = "FA6D65B5-4623-4FAC-A199-3F662257AC29";
layerId = "CBD44848-52BD-4DC5-BFA6-577546B7224D";
paths = (
{
closed = 1;
nodes = (
"808 -18 OFFCURVE",
"1005 188 OFFCURVE",
"1005 466 CURVE SMOOTH",
"1005 744 OFFCURVE",
"808 950 OFFCURVE",
"542 950 CURVE SMOOTH",
"276 950 OFFCURVE",
"79 744 OFFCURVE",
"79 466 CURVE SMOOTH",
"79 188 OFFCURVE",
"276 -18 OFFCURVE",
"542 -18 CURVE SMOOTH"
);
},
{
closed = 1;
nodes = (
"370 62 OFFCURVE",
"266 213 OFFCURVE",
"266 466 CURVE SMOOTH",
"266 720 OFFCURVE",
"370 871 OFFCURVE",
"542 871 CURVE SMOOTH",
"715 871 OFFCURVE",
"818 720 OFFCURVE",
"818 468 CURVE SMOOTH",
"818 215 OFFCURVE",
"713 62 OFFCURVE",
"540 62 CURVE SMOOTH"
);
}
);
width = 1084;
},
{
anchors = (
{
name = bottom;
position = "{546.8, -4}";
},
{
name = top;
position = "{546.8, 1146}";
}
);
layerId = "7C8D72FA-6E62-4564-8BB2-D9F9BC4EB15A";
paths = (
{
closed = 1;
nodes = (
"818.533 -18 OFFCURVE",
"1013.267 189.733 OFFCURVE",
"1013.267 466 CURVE SMOOTH",
"1013.267 742.4 OFFCURVE",
"818.533 950 OFFCURVE",
"545.067 950 CURVE SMOOTH",
"271.6 950 OFFCURVE",
"76.867 742.4 OFFCURVE",
"76.867 466 CURVE SMOOTH",
"76.867 189.733 OFFCURVE",
"271.6 -18 OFFCURVE",
"545.067 -18 CURVE SMOOTH"
);
},
{
closed = 1;
nodes = (
"372.8 63.333 OFFCURVE",
"278.4 225 OFFCURVE",
"278.4 466 CURVE SMOOTH",
"278.4 707.733 OFFCURVE",
"372.8 869.4 OFFCURVE",
"545.067 869.4 CURVE SMOOTH",
"718.2 869.4 OFFCURVE",
"811.733 707.733 OFFCURVE",
"811.733 467.733 CURVE SMOOTH",
"811.733 226.733 OFFCURVE",
"716.067 63.333 OFFCURVE",
"543.333 63.333 CURVE SMOOTH"
);
}
);
width = 1090.13333;
}
);
leftKerningGroup = o;
rightKerningGroup = o;
unicode = 006F;
},
{
glyphname = oslash;
layers = (
{
layerId = "FA6D65B5-4623-4FAC-A199-3F662257AC29";
paths = (
{
closed = 1;
nodes = (
"896 -18 OFFCURVE",
"1075 201 OFFCURVE",
"1075 466 CURVE SMOOTH",
"1075 591 OFFCURVE",
"1035 706 OFFCURVE",
"959 792 CURVE",
"1096 933 LINE",
"963 933 LINE",
"889 857 LINE",
"808 915 OFFCURVE",
"702 950 OFFCURVE",
"574 950 CURVE SMOOTH",
"252 950 OFFCURVE",
"72 732 OFFCURVE",
"72 466 CURVE SMOOTH",
"72 340 OFFCURVE",
"113 225 OFFCURVE",
"188 139 CURVE",
"55 0 LINE",
"187 0 LINE",
"259 74 LINE",
"340 16 OFFCURVE",
"445 -18 OFFCURVE",
"574 -18 CURVE SMOOTH"
);
},
{
closed = 1;
nodes = (
"482 72 OFFCURVE",
"429 136 OFFCURVE",
"401 220 CURVE",
"771 598 LINE",
"776 553 OFFCURVE",
"780 507 OFFCURVE",
"780 466 CURVE SMOOTH",
"780 303 OFFCURVE",
"744 72 OFFCURVE",
"574 72 CURVE SMOOTH"
);
},
{
closed = 1;
nodes = (
"370 377 OFFCURVE",
"368 424 OFFCURVE",
"368 466 CURVE SMOOTH",
"368 628 OFFCURVE",
"400 859 OFFCURVE",
"574 859 CURVE SMOOTH",
"665 859 OFFCURVE",
"716 796 OFFCURVE",
"746 711 CURVE",
"377 331 LINE"
);
}
);
width = 1148;
},
{
associatedMasterId = "FA6D65B5-4623-4FAC-A199-3F662257AC29";
layerId = "CBD44848-52BD-4DC5-BFA6-577546B7224D";
paths = (
{
closed = 1;
nodes = (
"817 -18 OFFCURVE",
"1014 188 OFFCURVE",
"1014 466 CURVE SMOOTH",
"1014 586 OFFCURVE",
"977 692 OFFCURVE",
"915 774 CURVE",
"1068 933 LINE",
"961 933 LINE",
"862 831 LINE",
"781 906 OFFCURVE",
"674 950 OFFCURVE",
"551 950 CURVE SMOOTH",
"285 950 OFFCURVE",
"88 744 OFFCURVE",
"88 466 CURVE SMOOTH",
"88 338 OFFCURVE",
"128 227 OFFCURVE",
"199 143 CURVE",
"62 0 LINE",
"167 0 LINE",
"252 88 LINE",
"331 21 OFFCURVE",
"435 -18 OFFCURVE",
"551 -18 CURVE SMOOTH"
);
},
{
closed = 1;
nodes = (
"459 62 OFFCURVE",
"387 102 OFFCURVE",
"340 180 CURVE",
"803 656 LINE",
"818 602 OFFCURVE",
"827 539 OFFCURVE",
"827 468 CURVE SMOOTH",
"827 215 OFFCURVE",
"722 62 OFFCURVE",
"549 62 CURVE SMOOTH"
);
},
{
closed = 1;
nodes = (
"285 312 OFFCURVE",
"275 384 OFFCURVE",
"275 466 CURVE SMOOTH",
"275 720 OFFCURVE",
"378 871 OFFCURVE",
"551 871 CURVE SMOOTH",
"648 871 OFFCURVE",
"723 822 OFFCURVE",
"771 736 CURVE",
"306 253 LINE"
);
}
);
width = 1109;
},
{
layerId = "7C8D72FA-6E62-4564-8BB2-D9F9BC4EB15A";
paths = (
{
closed = 1;
nodes = (
"827.533 -18 OFFCURVE",
"1022.133 189.733 OFFCURVE",
"1022.133 466 CURVE SMOOTH",
"1022.133 586.667 OFFCURVE",
"984.733 693.867 OFFCURVE",
"920.867 776.4 CURVE",
"1071.733 933 LINE",
"961.267 933 LINE",
"865.6 834.467 LINE",
"784.6 907.2 OFFCURVE",
"677.733 950 OFFCURVE",
"554.067 950 CURVE SMOOTH",
"280.6 950 OFFCURVE",
"85.867 742.4 OFFCURVE",
"85.867 466 CURVE SMOOTH",
"85.867 338.267 OFFCURVE",
"126 226.733 OFFCURVE",
"197.533 142.467 CURVE",
"61.067 0 LINE",
"169.667 0 LINE",
"252.933 86.133 LINE",
"332.2 20.333 OFFCURVE",
"436.333 -18 OFFCURVE",
"554.067 -18 CURVE SMOOTH"
);
},
{
closed = 1;
nodes = (
"462.067 63.333 OFFCURVE",
"392.6 106.533 OFFCURVE",
"348.133 185.333 CURVE",
"798.733 648.267 LINE",
"812.4 595.467 OFFCURVE",
"820.733 534.733 OFFCURVE",
"820.733 467.733 CURVE SMOOTH",
"820.733 226.733 OFFCURVE",
"724.933 63.333 OFFCURVE",
"552.333 63.333 CURVE SMOOTH"
);
},
{
closed = 1;
nodes = (
"296.333 320.667 OFFCURVE",
"287.4 389.333 OFFCURVE",
"287.4 466 CURVE SMOOTH",
"287.4 707.733 OFFCURVE",
"380.933 869.4 OFFCURVE",
"554.067 869.4 CURVE SMOOTH",
"650.267 869.4 OFFCURVE",
"722.067 818.533 OFFCURVE",
"767.667 732.667 CURVE",
"315.467 263.4 LINE"
);
}
);
width = 1114.2;
}
);
leftKerningGroup = o;
rightKerningGroup = o;
unicode = 00F8;
},
{
glyphname = oslashacute;
layers = (
{
components = (
{
name = acute;
transform = "{1, 0, 0, 1, 505, 0}";
}
);
layerId = "FA6D65B5-4623-4FAC-A199-3F662257AC29";
paths = (
{
closed = 1;
nodes = (
"896 -18 OFFCURVE",
"1075 201 OFFCURVE",
"1075 466 CURVE SMOOTH",
"1075 591 OFFCURVE",
"1035 706 OFFCURVE",
"959 792 CURVE",
"1096 933 LINE",
"963 933 LINE",
"889 857 LINE",
"808 915 OFFCURVE",
"702 950 OFFCURVE",
"574 950 CURVE SMOOTH",
"252 950 OFFCURVE",
"72 732 OFFCURVE",
"72 466 CURVE SMOOTH",
"72 340 OFFCURVE",
"113 225 OFFCURVE",
"188 139 CURVE",
"55 0 LINE",
"187 0 LINE",
"259 74 LINE",
"340 16 OFFCURVE",
"445 -18 OFFCURVE",
"574 -18 CURVE SMOOTH"
);
},
{
closed = 1;
nodes = (
"482 72 OFFCURVE",
"429 136 OFFCURVE",
"401 220 CURVE",
"771 598 LINE",
"776 553 OFFCURVE",
"780 507 OFFCURVE",
"780 466 CURVE SMOOTH",
"780 303 OFFCURVE",
"744 72 OFFCURVE",
"574 72 CURVE SMOOTH"
);
},
{
closed = 1;
nodes = (
"370 377 OFFCURVE",
"368 424 OFFCURVE",
"368 466 CURVE SMOOTH",
"368 628 OFFCURVE",
"400 859 OFFCURVE",
"574 859 CURVE SMOOTH",
"665 859 OFFCURVE",
"716 796 OFFCURVE",
"746 711 CURVE",
"377 331 LINE"
);
}
);
width = 1148;
},
{
associatedMasterId = "FA6D65B5-4623-4FAC-A199-3F662257AC29";
components = (
{
name = acute;
transform = "{1, 0, 0, 1, 472, 0}";
}
);
layerId = "CBD44848-52BD-4DC5-BFA6-577546B7224D";
paths = (
{
closed = 1;
nodes = (
"817 -18 OFFCURVE",
"1014 188 OFFCURVE",
"1014 466 CURVE SMOOTH",
"1014 586 OFFCURVE",
"977 692 OFFCURVE",
"915 774 CURVE",
"1068 933 LINE",
"961 933 LINE",
"862 831 LINE",
"781 906 OFFCURVE",
"674 950 OFFCURVE",
"551 950 CURVE SMOOTH",
"285 950 OFFCURVE",
"88 744 OFFCURVE",
"88 466 CURVE SMOOTH",
"88 338 OFFCURVE",
"128 227 OFFCURVE",
"199 143 CURVE",
"62 0 LINE",
"167 0 LINE",
"252 88 LINE",
"331 21 OFFCURVE",
"435 -18 OFFCURVE",
"551 -18 CURVE SMOOTH"
);
},
{
closed = 1;
nodes = (
"459 62 OFFCURVE",
"387 102 OFFCURVE",
"340 180 CURVE",
"803 656 LINE",
"818 602 OFFCURVE",
"827 539 OFFCURVE",
"827 468 CURVE SMOOTH",
"827 215 OFFCURVE",
"722 62 OFFCURVE",
"549 62 CURVE SMOOTH"
);
},
{
closed = 1;
nodes = (
"285 312 OFFCURVE",
"275 384 OFFCURVE",
"275 466 CURVE SMOOTH",
"275 720 OFFCURVE",
"378 871 OFFCURVE",
"551 871 CURVE SMOOTH",
"648 871 OFFCURVE",
"723 822 OFFCURVE",
"771 736 CURVE",
"306 253 LINE"
);
}
);
width = 1109;
},
{
components = (
{
alignment = -1;
name = acute;
transform = "{1, 0, 0, 1, 476.4, 0}";
}
);
layerId = "7C8D72FA-6E62-4564-8BB2-D9F9BC4EB15A";
paths = (
{
closed = 1;
nodes = (
"827.533 -18 OFFCURVE",
"1022.133 189.733 OFFCURVE",
"1022.133 466 CURVE SMOOTH",
"1022.133 586.667 OFFCURVE",
"984.733 693.867 OFFCURVE",
"920.867 776.4 CURVE",
"1071.733 933 LINE",
"961.267 933 LINE",
"865.6 834.467 LINE",
"784.6 907.2 OFFCURVE",
"677.733 950 OFFCURVE",
"554.067 950 CURVE SMOOTH",
"280.6 950 OFFCURVE",
"85.867 742.4 OFFCURVE",
"85.867 466 CURVE SMOOTH",
"85.867 338.267 OFFCURVE",
"126 226.733 OFFCURVE",
"197.533 142.467 CURVE",
"61.067 0 LINE",
"169.667 0 LINE",
"252.933 86.133 LINE",
"332.2 20.333 OFFCURVE",
"436.333 -18 OFFCURVE",
"554.067 -18 CURVE SMOOTH"
);
},
{
closed = 1;
nodes = (
"462.067 63.333 OFFCURVE",
"392.6 106.533 OFFCURVE",
"348.133 185.333 CURVE",
"798.733 648.267 LINE",
"812.4 595.467 OFFCURVE",
"820.733 534.733 OFFCURVE",
"820.733 467.733 CURVE SMOOTH",
"820.733 226.733 OFFCURVE",
"724.933 63.333 OFFCURVE",
"552.333 63.333 CURVE SMOOTH"
);
},
{
closed = 1;
nodes = (
"296.333 320.667 OFFCURVE",
"287.4 389.333 OFFCURVE",
"287.4 466 CURVE SMOOTH",
"287.4 707.733 OFFCURVE",
"380.933 869.4 OFFCURVE",
"554.067 869.4 CURVE SMOOTH",
"650.267 869.4 OFFCURVE",
"722.067 818.533 OFFCURVE",
"767.667 732.667 CURVE",
"315.467 263.4 LINE"
);
}
);
width = 1114.2;
}
);
leftKerningGroup = o;
rightKerningGroup = o;
unicode = 01FF;
},
